<svg xmlns="http://www.w3.org/2000/svg" viewBox="0 0 142.63 98.39"><g id="Layer_2" data-name="Layer 2"><g id="OBJECTS"><path d="M8.23.08A2,2,0,0,0,5.75,1.45C5.21,3.37,4.66,5.3,4.13,7.26A2,2,0,0,0,5.54,9.71a1.91,1.91,0,0,0,.52.07A2,2,0,0,0,8,8.3q.8-2.9,1.61-5.75A2,2,0,0,0,8.23.08Z"/><path d="M24.58,66.6a34.31,34.31,0,0,1-9.22-5.92,2,2,0,1,0-2.67,3A38.4,38.4,0,0,0,23,70.26a1.88,1.88,0,0,0,.79.17,2,2,0,0,0,.8-3.83Z"/><path d="M35.49,35.66a27.13,27.13,0,0,1,3.39-4.51A2,2,0,0,0,36,28.42a31.08,31.08,0,0,0-3.89,5.17,34.09,34.09,0,0,0-2.61,5.32,2,2,0,1,0,3.73,1.44A30.44,30.44,0,0,1,35.49,35.66Z"/><path d="M45.84,67.69a27,27,0,0,1-6.36,1.4,28.33,28.33,0,0,1-4.32.08,2,2,0,0,0-1.9,2.91,2,2,0,0,0,0,2.14l.11.18a43.66,43.66,0,0,0,7.79,9.07,2,2,0,1,0,2.65-3,40.05,40.05,0,0,1-6.43-7.27c.83,0,1.66-.06,2.48-.14a31.11,31.11,0,0,0,7.29-1.6,2,2,0,0,0-1.31-3.78Z"/><path d="M47.67,25.52a15,15,0,0,1,10,.54,2,2,0,0,0,1.64-3.64,19,19,0,0,0-12.76-.74,2,2,0,0,0,1.1,3.84Z"/><path d="M2,32.66a2,2,0,0,0,2-1.92A76.73,76.73,0,0,1,5.36,19.49a2,2,0,1,0-3.92-.75A80.78,80.78,0,0,0,0,30.58a2,2,0,0,0,1.92,2.08Z"/><path d="M6.81,48.71a36.68,36.68,0,0,1-2-6.85,2,2,0,1,0-3.92.78A40.48,40.48,0,0,0,3.1,50.22,35.34,35.34,0,0,0,5,54.14a2,2,0,0,0,1.74,1,2,2,0,0,0,1-.25,2,2,0,0,0,.76-2.73A31.4,31.4,0,0,1,6.81,48.71Z"/><path d="M31,52.44c0-.46,0-.92,0-1.38a2,2,0,1,0-4-.15c0,.51,0,1,0,1.54A41.31,41.31,0,0,0,28.39,63a2,2,0,0,0,1.93,1.48,1.86,1.86,0,0,0,.52-.07A2,2,0,0,0,32.26,62,37,37,0,0,1,31,52.44Z"/><path d="M106.86,83.59a71.38,71.38,0,0,1-10.27,4.73,2,2,0,0,0,.68,3.88,2.09,2.09,0,0,0,.69-.12,74.26,74.26,0,0,0,10.86-5,2,2,0,0,0-2-3.49Z"/><path d="M85.7,91.26a57.36,57.36,0,0,1-10,.9H74.5a2,2,0,0,0-2,2,2,2,0,0,0,2,2h1.16a62.59,62.59,0,0,0,10.82-1,2,2,0,1,0-.69-3.94Z"/><path d="M125,69.9a96.71,96.71,0,0,1-8.63,7.45,2,2,0,0,0,1.22,3.59,1.94,1.94,0,0,0,1.2-.41,98.62,98.62,0,0,0,9-7.76A2,2,0,0,0,125,69.9Z"/><path d="M65.45,30.74a2,2,0,0,0-1.09,2.6,21,21,0,0,1,1.47,7.84c0,.37,0,.74,0,1.1s-.07,1-.12,1.52A2,2,0,0,0,67.45,46h.22a2,2,0,0,0,2-1.78c.07-.58.12-1.17.15-1.76,0-.43,0-.86,0-1.3a24.89,24.89,0,0,0-1.77-9.35A2,2,0,0,0,65.45,30.74Z"/><path d="M65,53.25a2,2,0,0,0-2.73.75,30.83,30.83,0,0,1-7,8.31,2,2,0,0,0,2.56,3.08A34.56,34.56,0,0,0,65.76,56,2,2,0,0,0,65,53.25Z"/><path d="M63.42,90.69A48.39,48.39,0,0,1,53,86.75a2,2,0,1,0-1.84,3.55,52.38,52.38,0,0,0,11.3,4.27,2.12,2.12,0,0,0,.49.06,2,2,0,0,0,.48-3.94Z"/><path d="M141.93,54.43a2,2,0,0,0-3-1.78,219.9,219.9,0,0,1-38.21,16.94,2,2,0,0,0,1.27,3.8,223.48,223.48,0,0,0,32.22-13.65l-1.4,1.71a2,2,0,0,0,.24,2.82,2,2,0,0,0,2.82-.24c.66-.79,1.33-1.6,2-2.43-.06,11.61.19,23.31.75,34.88a2,2,0,0,0,2,1.91h.1a2,2,0,0,0,1.9-2.1C142,82.39,141.71,68.31,141.93,54.43Z"/></g></g></svg>