<svg xmlns="http://www.w3.org/2000/svg" viewBox="0 0 77.14 78.57"><g id="Layer_2" data-name="Layer 2"><g id="OBJECTS"><path d="M75.19,57.14,23,56V40.38l15.79-1.53A2,2,0,0,0,40,35.44L5.13.59A2,2,0,0,0,1.71,2L0,76.52A2,2,0,0,0,.6,78a2,2,0,0,0,1.4.57h.09L29.18,77.3a2,2,0,0,0,1,.27h.12a2.07,2.07,0,0,0,1-.37l43.91-2.06a2,2,0,0,0,1.9-2v-14A2,2,0,0,0,75.19,57.14ZM56.62,72,55.2,61.3a2.07,2.07,0,0,0-.19-.61l9.2.21a2.14,2.14,0,0,0,0,.36c.2,3.44.58,6.92,1.12,10.34ZM38.7,60.33a104.12,104.12,0,0,1,1.47,12.45l-8.12.38-.72-13Zm4.08.09,8.68.19a2,2,0,0,0-.22,1.21L52.61,72.2l-8.45.39A108.16,108.16,0,0,0,42.78,60.42ZM5.61,6.72,34.16,35.28l-13.39,1.3a2,2,0,0,0-1.8,2V57.93a2,2,0,0,0,2,2l6.4.15.73,13.27-24,1.12ZM73.14,71.23l-3.8.18A100.94,100.94,0,0,1,68.19,61s0,0,0,0l5,.11Z"/></g></g></svg>