<svg xmlns="http://www.w3.org/2000/svg" viewBox="0 0 140.43 66.23"><g id="Layer_2" data-name="Layer 2"><g id="OBJECTS"><path d="M139.72,25.68a56.92,56.92,0,0,1-13.35-16.3,2,2,0,0,0-3.51,1.91,61.25,61.25,0,0,0,10.67,14.16,189.86,189.86,0,0,1-32.78,0,2,2,0,0,0-1.9,1,73.27,73.27,0,0,0-8.08,20.26A364.21,364.21,0,0,1,89,2a2,2,0,0,0-3.94-.52L76.74,34.62c-2.42-6.31-4.54-12.76-6.31-19.24a2,2,0,0,0-2-1.48,2,2,0,0,0-1.9,1.6c-2.45,12.06-4.48,24.31-6.07,36.56L52.06,13.15a2,2,0,0,0-1.85-1.58,2,2,0,0,0-2,1.36L40.5,35.87l-29.11.54A31.4,31.4,0,0,1,3.85,25.52a2,2,0,0,0-3.7,1.53A35.77,35.77,0,0,0,7.51,38.2a2.64,2.64,0,0,0,0,.29,2.08,2.08,0,0,0,.18.79L4.14,51.67a2,2,0,0,0,1.38,2.47,2,2,0,0,0,.55.08A2,2,0,0,0,8,52.76l3.52-12.35L42,39.84a2,2,0,0,0,1.86-1.36l5.84-17.39,9.41,43.56a2,2,0,0,0,2,1.58h.11A2,2,0,0,0,63,64.44c1.41-13.39,3.38-26.85,5.86-40.12,1.88,5.93,4,11.8,6.43,17.52a2,2,0,0,0,3.78-.28l5.94-23.5a317.41,317.41,0,0,0,3.84,44.83A2,2,0,0,0,91,64.56a2,2,0,0,0,1.85-2,69,69,0,0,1,8.81-33.06,194.49,194.49,0,0,0,32.91-.16L122.4,47.64a2,2,0,0,0,1.66,3.11,2,2,0,0,0,1.67-.89L140.1,28.33A2,2,0,0,0,139.72,25.68Z"/></g></g></svg>