<svg width="326" height="250" viewBox="0 0 326 250" fill="none" xmlns="http://www.w3.org/2000/svg">
<path fill-rule="evenodd" clip-rule="evenodd" d="M101.534 113.34C102.719 125.272 103.904 137.203 105.089 149.135C111.541 145.464 117.994 141.792 124.446 138.121V165.303V172.448C124.446 173.08 124.07 175.252 124.446 175.799C124.765 176.263 127.13 176.277 127.689 176.355C131.337 176.864 134.994 177.317 138.656 177.721C148.308 178.783 158.638 180.306 168.326 179.085C176.748 178.023 184.913 175.036 192.607 171.561C195.308 170.341 197.972 169.035 200.586 167.639C201.14 167.343 203.152 166.645 203.454 166.043C203.7 165.55 203.122 163.822 203.045 163.305C202.72 161.124 202.395 158.944 202.07 156.764L197.529 126.32L206.107 134.862C206.779 135.531 208.055 137.431 208.985 137.728C209.667 137.945 211.355 137.272 212.029 137.143C216.886 136.21 221.744 135.276 226.601 134.343C227.733 134.125 230.283 134.133 231.237 133.452C231.751 133.085 231.775 132.337 231.956 131.629C233.141 127.001 234.326 122.373 235.51 117.746C235.724 116.912 236.914 114.284 236.611 113.445C236.503 113.144 235.977 112.938 235.656 112.742C228.325 108.277 220.994 103.812 213.663 99.3474C209.647 96.9017 205.631 94.4557 201.615 92.0101C199.933 90.9852 197.866 89.1391 195.96 88.5659C194.777 88.2103 193.055 88.4767 191.831 88.4417C189.342 88.371 186.855 88.3002 184.366 88.2295C183.976 88.2185 182.612 87.9415 182.284 88.1704C182.011 88.3608 182.124 88.6262 182.035 89.0801C181.816 90.1888 181.814 91.3842 181.706 92.5095C181.62 93.4124 181.792 95.0684 181.384 95.8859C181.123 96.4083 181.454 96.2002 181.101 96.4527C180.681 96.7534 179.34 96.6567 178.841 96.7143C176.402 96.9969 173.964 97.2792 171.526 97.5615C168.627 97.8972 165.695 98.5272 162.783 98.2371C158.368 97.7975 153.607 97.8193 149.271 96.8919C148.145 96.6507 147.739 96.0176 146.869 95.1524C145.173 93.4632 143.494 91.7545 141.779 90.0834C140.938 89.2645 141.298 89.4033 140.432 89.7139C139.346 90.103 138.244 91.0424 137.262 91.6393C133.496 93.9265 129.73 96.2141 125.964 98.5013L102.973 112.466C102.493 112.757 102.013 113.049 101.534 113.34Z" fill="#69A297"/>
<path fill-rule="evenodd" clip-rule="evenodd" d="M321.441 114.823C316.701 132.765 307.169 152.328 287.966 158.047C283.297 159.437 278.755 160.487 273.905 159.958C273.444 159.907 273.057 159.972 272.618 159.98C271.832 159.995 272.511 160.277 271.629 160.005C270.941 159.793 270.298 159.264 269.581 159.03C267.675 158.408 265.644 158.288 263.707 157.785C258.948 156.551 254.044 155.027 249.433 153.325C247.262 152.523 245.267 151.407 243.225 150.333C241.149 149.242 238.949 148.564 236.849 147.564C235.19 146.773 232.348 145.742 231.181 144.258C229.938 142.675 231.658 139.306 232.15 137.624C233.823 131.899 235.815 126.259 237.072 120.42C241.413 125.436 247.437 128.543 253.674 130.546C257.059 131.634 260.54 132.419 264.059 132.911C267.255 133.358 270.703 133.898 273.906 133.264C276.325 132.786 279.36 131.677 281.087 129.837C281.704 129.18 282.443 127.975 282.098 127.021C281.659 125.809 280.382 126.38 279.691 125.475C279.089 124.688 279.183 122.846 278.991 121.887C278.652 120.189 278.185 118.539 277.616 116.905C276.511 113.732 275.134 110.553 274.804 107.177C274.517 104.249 275.186 101.479 276.651 98.9378C277.344 97.7365 279.083 94.4681 280.78 94.604C282.643 94.753 280.13 102.584 280.048 104.182C279.722 110.515 280.574 117.263 283.833 122.813C285.081 124.939 286.886 127.413 289.55 127.677C292.372 127.955 294.648 125.742 295.991 123.501C299.269 118.036 297.617 110.537 295.956 104.809C293.921 97.7809 288.606 92.937 285.246 86.6254C290.263 87.1282 292.949 90.3062 295.524 94.3383C298.359 98.7771 300.566 104.106 301.654 109.271C302.203 111.881 301.824 114.501 301.827 117.137C301.828 118.012 301.828 121.242 303.26 121.115C304.79 120.979 305.314 117.336 305.539 116.225C306.055 113.676 306.613 111.127 307.061 108.566C307.853 104.034 308.205 99.3925 309.155 94.8919C309.315 94.1313 309.634 92.0206 310.777 92.5904C311.657 93.0293 311.516 96.2939 311.548 97.0526C311.627 98.9224 311.738 100.792 311.753 102.664C311.776 105.438 311.221 108.31 311.493 111.067C311.671 112.869 312.641 114.859 313.843 112.43C315.035 110.02 315.278 107.015 315.943 104.424C316.641 101.703 317.362 98.9424 318.844 96.5257C319.255 95.8554 319.697 94.791 320.61 95.1064C321.274 95.336 321.764 96.9047 321.97 97.4583C322.895 99.9608 322.738 102.743 322.68 105.362C322.609 108.572 322.263 111.711 321.441 114.823ZM229.023 119.479C228.77 119.398 227.694 119.296 227.427 119.273C227.114 119.245 227.469 118.671 226.712 118.834C226.858 119.195 227.118 119.436 227.491 119.557C226.353 119.941 225.514 118.993 224.735 118.871C223.991 118.754 223.959 118.871 223.224 119.655C222.428 118.687 222.577 119.291 221.923 119.291C221.685 119.291 221.675 119.65 221.287 119.607C220.948 119.57 220.913 119.058 220.713 118.997C219.627 118.67 218.509 120.319 217.277 118.888C216.979 120.377 213.559 118.512 212.243 118.774C210.864 119.048 211.459 119.541 210.344 118.698C209.282 117.895 209.578 118.428 208.343 119.086C208.372 119.07 207.646 119.559 207.713 119.567C206.858 119.467 206.907 118.586 205.824 118.632C204.677 118.682 204.188 119.578 203.138 118.475C202.91 119.301 202.863 118.946 202.326 119.154C202.03 119.224 201.771 119.146 201.549 118.921C201.482 119.148 201.335 119.288 201.106 119.339C200.52 119.391 199.421 119.472 198.89 119.191C198.092 118.769 198.733 118.607 198.18 118.133C197.932 119.441 197.388 119.163 196.241 119.285C195.367 119.379 195.174 119.111 194.339 118.981C193.516 118.853 192.452 119.171 191.65 119.307C191.318 119.363 190.875 119.594 190.537 119.513C190.233 119.44 190.103 119.204 189.922 119.143C189.701 119.069 189.748 118.877 189.367 118.783C189.105 118.72 188.634 118.965 188.372 119.008C186.501 119.311 184.703 119.314 182.919 118.58C183.798 120.12 180.864 119.288 180.341 118.65C179.687 119.672 178.896 118.951 177.578 119.031C176.309 119.107 174.4 119.495 173.886 117.919C173.785 118.239 173.065 119.169 172.778 119.311C171.946 119.722 171.847 119.114 171.074 118.866C170.021 118.529 170.241 119.169 169.588 119.299C168.486 119.519 167.89 118.745 166.917 118.334C166.875 118.973 166.854 119.367 166.3 119.765C165.809 117.982 164.056 119.911 164.357 117.528C163.69 117.961 162.752 118.294 162.562 119.169C163.677 118.863 162.681 119.59 162.634 119.614C162.487 119.691 161.989 118.994 161.874 118.896C161.842 119.224 161.811 119.553 161.78 119.882C161.335 119.661 160.918 119.264 160.558 119.065C160.233 118.886 160.698 118.514 160.149 118.488C159.86 118.474 159.558 119.099 159.255 119.153C158.79 119.233 159.014 118.57 158.819 118.592C158.523 118.626 158.041 119.057 157.817 119.049C157.083 119.022 157.58 118.681 157.02 118.525C156.019 118.246 156.083 118.898 155.364 119.134C153.718 119.673 153.883 117.193 152.209 118.847C151.808 119.242 151.55 119.854 151.001 119.819C149.865 119.748 150.264 118.405 150.495 117.747C150.734 117.865 146.343 120.114 146.377 120.026C146.405 119.486 147.096 119.07 146.478 118.591C145.974 119.671 145.443 119.69 144.279 119.891C143.713 119.989 143.602 120.119 142.996 119.885C142.61 119.736 142.351 119.122 141.968 119.089C142.02 119.093 141.316 119.628 141.209 119.675C140.573 119.961 140.171 119.637 139.554 119.755C139.028 119.855 138.82 120.301 138.297 120.179C137.598 120.016 138.009 119.184 137.047 119.416C136.718 119.495 136.521 120.127 136.003 120.257C135.196 120.461 134.206 120.081 133.353 120.279C132.676 120.437 132.174 120.504 131.582 120.536C131.104 120.563 131.3 120.192 130.42 120.63L130.046 119.691C129.605 120.087 129.165 120.482 128.724 120.877C128.64 120.523 128.587 120.164 128.565 119.801C127.907 120.457 127.08 120.57 126.196 120.629C125.239 120.693 124.526 120.9 123.595 121.075C123.3 121.13 122.542 121.218 122.3 121.115C122.335 121.13 121.847 120.928 121.994 120.966C121.931 120.838 121.872 120.707 121.818 120.573C121.735 120.203 121.468 120.187 121.017 120.524C120.783 120.489 120.33 120.183 120.097 120.258C119.497 120.452 119.578 120.917 118.98 120.849C118.591 120.804 118.393 120.232 117.989 120.194C117.37 120.134 116.834 120.825 116.277 120.975C117.972 120.516 114.078 120.873 115.289 120.904C114.495 120.883 113.671 120.844 112.938 121.199C112.532 120.923 113.024 120.367 112.615 120.139C112.244 119.931 112.215 120.479 112.171 120.491C112.406 120.425 112.289 120.891 112.054 120.973C111.324 121.232 110.739 120.575 110.702 119.924C110.081 120.856 109.907 120.481 108.994 120.539C108.094 120.596 107.317 121.066 106.417 121.057C104.636 121.04 103.427 120.423 102.833 118.838C104.73 119.068 106.641 117.851 108.497 118.138C109.107 118.232 109.487 118.689 110.022 118.608C110.68 118.508 111.14 117.792 111.984 117.714C113.846 117.545 115.682 117.71 117.556 117.425C119.796 117.085 122.133 116.884 124.394 117.049C126.141 117.178 127.555 116.512 129.327 116.383C131.618 116.217 133.928 116.188 136.222 116.067C138.58 115.944 141.117 115.569 143.468 115.689C144.202 115.726 144.834 115.798 145.563 115.755C145.871 115.736 146.163 115.527 146.486 115.559C146.907 115.599 147.088 116.029 147.524 116.014C148.266 115.989 149.06 115.379 149.942 115.363C151.393 115.335 152.837 115.338 154.291 115.256C155.571 115.183 156.943 114.885 158.218 114.901C159.117 114.913 159.339 115.676 159.862 115.755C160.805 115.897 165.57 113.193 165.982 115.62C168.463 113.927 171.79 115.36 174.552 115.042C178.1 114.633 181.713 114.998 185.284 114.852C188.919 114.704 192.658 114.841 196.278 115.183C197.778 115.324 199.226 115.457 200.73 115.372C201.4 115.333 202.175 115.163 202.846 115.317C203.008 115.354 204.251 116.219 204.097 116.244C204.776 115.637 204.316 115.547 205.511 115.516C206.432 115.492 207.303 115.69 208.219 115.745C209.862 115.841 211.518 115.614 213.158 115.664C214.528 115.706 215.866 115.907 217.243 115.917C218.727 115.928 220.479 115.97 221.553 117.163C221.439 116.788 221.326 116.414 221.213 116.039C222.869 116.168 224.505 116.758 226.18 116.482C225.756 116.887 225.326 117.217 225.164 117.811C226.067 117.696 226.679 117.068 227.629 117.063C228.428 117.058 228.594 117.457 229.437 116.941C229.541 117.574 229.644 118.206 229.748 118.838C230.916 118.564 230.149 117.696 230.235 116.914C231.184 117.198 231.987 116.871 231.613 118.232C231.325 119.282 230.011 119.799 229.023 119.479ZM227.382 131.168C226.975 132.308 223.454 131.657 222.621 131.536C221.546 131.381 220.315 131.134 219.324 131.012C219.205 130.854 219.063 130.72 218.897 130.61C218.772 130.783 218.615 130.906 218.424 130.978C217.969 131.077 217.967 131.545 217.37 131.442C217.342 132.135 217.825 131.741 218.195 131.992C217.263 132.615 217.689 131.898 217.166 131.91C217.036 131.726 216.856 131.654 216.625 131.694C216.33 131.77 216.059 131.896 215.81 132.071C215.577 132.316 215.378 132.329 215.212 132.109C215.052 131.95 214.858 131.851 214.629 131.814C213.711 131.963 213.454 132.369 212.42 132.302C210.943 132.208 209.346 132.596 207.892 132.391C206.991 132.265 205.485 130.853 205.076 132.229C204.453 131.209 203.461 130.515 202.864 129.473C205.643 129.313 208.42 129.122 211.201 129.022C213.635 128.934 216.299 129.208 218.573 129.093C220.705 128.986 222.962 128.751 225.138 128.557C227.444 128.352 228.207 128.856 227.382 131.168ZM154.902 131.336C155.911 131.614 156.872 130.983 157.85 131.183C158.174 131.249 158.843 131.836 158.991 131.847C159.26 131.869 160.052 131.292 160.392 131.215C162.54 130.727 165.144 130.779 167.292 131.079C168.431 131.237 168.605 130.718 169.599 130.466C170.632 130.203 172.1 130.405 173.188 130.333C175.746 130.162 178.304 130.284 180.845 130.097C183.454 129.905 186.05 129.802 188.66 129.668C190.438 129.577 194.711 128.565 196.185 129.882C197.4 130.967 195.834 132.851 194.619 133.281C193.71 133.602 193.275 132.925 192.6 132.99C191.831 133.063 192.099 133.969 191.413 133.129C190.988 133.964 188.317 133.608 187.551 133.663C185.883 133.783 184.472 134.117 183.336 132.565C183.413 133.013 183.49 133.461 183.567 133.908C182.061 133.106 180.445 133.362 179.138 133.642C178.491 133.781 176.504 134.738 175.802 134.325C175.32 134.041 176.17 133.556 175.356 133.313C174.93 133.186 174.193 133.893 173.672 133.857C172.23 133.758 172.639 132.791 171.222 134.022C170.742 133.608 170.582 132.904 170.645 132.301C169.616 133.176 169.702 134.636 167.862 134.368C167.176 134.269 167.05 133.572 166.692 133.443C165.931 133.168 165.844 133.661 165.184 134.052C164.935 134.199 164.632 134.436 164.338 134.465C163.736 134.525 163.64 134.249 163.558 134.258C163.157 134.302 162.652 134.506 162.176 134.36C161.749 134.23 161.624 133.479 160.872 133.655C160.153 133.823 160.147 134.31 160.277 135.04C159.567 134.967 159.138 134.573 158.607 134.145C158.071 135.392 156.943 134.36 156.318 135.412C155.505 134.444 154.984 134.71 153.975 133.765C154.024 134.159 154.074 134.553 154.123 134.948C153.336 134.797 152.986 134.243 152.314 134.976C151.662 133.765 149.686 135.49 148.67 134.321C148.218 135.802 145.224 135.448 143.959 135.473C142.839 135.496 142.009 135.405 140.914 135.664C139.947 135.893 138.606 136.131 137.696 136.026C137.101 135.958 136.451 135.849 135.71 135.929C134.642 136.045 133.72 136.596 132.614 136.335C130.948 135.943 129.927 133.761 131.782 132.803C133.052 132.147 135.339 132.39 136.737 132.269C139.052 132.068 141.648 131.648 143.966 131.839C145.775 131.988 147.424 131.558 149.269 131.376C150.658 131.239 152.936 130.993 153.842 132.366C154.189 131.965 154.154 131.129 154.902 131.336ZM129.552 150.13C129.303 148.895 139.891 148.215 140.941 148.135C143.148 147.965 145.36 147.844 147.571 147.788C149.389 147.742 151.086 148.088 152.904 147.81C154.602 147.55 156.651 147.018 158.13 148.216C158.347 146.577 164.72 147.376 165.932 147.38C171.21 147.399 176.26 147.411 181.365 147.085C184.283 146.899 187.381 146.648 190.299 146.794C191.615 146.86 192.675 147.21 193.984 146.906C194.838 146.708 195.757 146.296 196.574 146.878C197.53 147.56 197.938 149.875 197.28 150.841C196.8 151.545 196.376 151.467 195.61 151.345C194.433 151.158 193.558 150.887 192.357 151.364C192.551 151.286 191.553 151.509 191.635 151.502C190.275 151.604 188.41 152.551 187.238 151.459C187.708 151.541 188.39 150.705 187.798 150.636C187.354 150.585 187.072 151.06 186.725 151.219C185.538 151.764 184.931 151.593 184.222 150.452C182.793 151.685 182.639 151.344 182.012 149.825C181.529 150.196 181.425 151.073 181.045 151.361C180.988 151.404 181.222 151.937 180.948 151.915C180.693 151.894 180.61 151.478 180.414 151.445C180.289 151.424 180.224 151.059 180.104 151.037C179.974 151.013 179.841 151.246 179.694 151.239C179.301 151.221 178.178 152.054 178.581 150.884C177.986 151.639 177.73 151.158 177.515 150.471C176.828 150.992 176.141 151.513 175.454 152.033C175.135 151.148 174.585 151.389 173.893 151.698C174.102 151.083 173.971 150.501 173.448 150.929C173.145 151.176 172.942 151.962 172.632 152.296C171.378 151.03 170.922 151.377 169.189 151.542C168.528 151.604 167.706 151.726 167.115 151.328C166.595 150.978 166.302 149.693 165.413 150.731C165.611 150.5 165.301 152.274 165.246 152.555C164.855 152.292 164.522 151.968 164.248 151.584C163.737 152.593 162.394 151.688 161.295 151.894C159.564 152.219 157.778 152.766 156.248 151.481C156.14 151.895 154.888 152.424 154.886 152.44C154.96 151.705 155.425 151.963 154.476 151.824C154.301 151.799 154.103 152.112 153.938 152.146C153.372 152.263 152.711 152.152 152.141 152.136C149.769 152.068 147.597 152.592 145.255 152.782C144.465 152.846 143.528 152.971 142.787 152.675C142.023 152.368 142.044 152.021 141.272 152.218C141.516 152.156 140.789 152.918 140.828 152.889C140.724 152.965 140.291 152.593 140.137 152.621C140.092 152.783 140.047 152.945 140.002 153.108C139.816 153.085 139.63 153.062 139.444 153.04C138.934 153.108 138.475 152.594 137.996 152.576C138.084 152.579 136.704 153.091 136.767 153.123C135.804 152.644 136.081 152.782 134.859 153.074C133.704 153.35 132.554 153.285 131.37 153.457C127.923 153.956 129.976 152.234 129.552 150.13ZM126.508 167.312C125.86 166.395 127.585 166.078 128.136 165.997C129.041 165.864 130.243 166.129 130.846 165.986C131.766 165.768 132.653 165.247 133.688 165.106C134.993 164.928 136.31 164.899 137.621 164.788C138.058 164.75 138.598 164.6 139.023 164.626C139.656 164.664 139.919 164.997 140.43 165C141.301 165.004 142.374 164.456 143.266 164.356C144.409 164.227 145.562 164.166 146.71 164.109C149.129 163.99 151.522 164.039 153.939 164.037C155.042 164.035 157.977 162.894 158.527 164.173C159.291 163.204 161.252 163.336 162.345 163.308C164.27 163.259 166.175 163.073 168.098 162.984C169.745 162.908 171.585 163.259 173.202 163.013C174.093 162.878 174.389 162.593 175.399 162.722C176.15 162.816 177.295 162.421 177.94 162.596C177.906 162.587 178.744 163.104 178.483 163.121C178.771 163.102 178.754 163.303 179.071 163.213C179.488 163.096 179.297 162.574 180.16 162.388C181.508 162.098 183.305 162.434 184.705 162.359C186.063 162.287 187.419 162.256 188.779 162.262C189.405 162.265 190.179 162.116 190.788 162.238C191.086 162.297 191.72 162.686 191.973 162.647C192.689 162.535 193.054 162.039 194.023 162.07C195.121 162.104 196.109 162.089 197.201 162.006C198.258 161.925 198.428 161.775 198.951 162.652C199.471 163.522 199.614 164.655 198.658 165.246C199.279 165.205 200.043 166.034 199.311 166.493C198.859 166.777 197.952 166.137 197.411 166.183C196.744 166.24 196.221 166.591 195.495 166.613C194.732 166.637 193.957 166.828 193.205 166.843C192.421 166.858 191.828 166.509 191.085 166.657C190.43 166.789 190.361 167.323 189.574 166.854C189.182 166.62 189.116 165.755 188.582 165.747C187.866 165.736 188.152 166.658 187.74 167.085C187.63 165.767 186.609 167.948 186.203 166.348C185.829 166.879 184.445 167.623 183.773 167.196C183.162 166.807 183.365 165.926 183.11 165.292C182.686 166.432 181.548 167.615 181.651 165.539C181.098 166.218 179.605 166.11 179.979 167.297C179.529 167.289 179.423 166.648 179.044 166.599C178.716 166.557 178.457 166.808 178.406 166.804C178.586 166.819 177.871 167.057 177.86 167.059C178.344 166.961 176.463 166.794 176.783 166.796C176.347 166.793 175.813 167.149 175.303 167.148C174.838 167.147 174.376 166.964 173.917 166.912C172.727 166.777 172.975 167.037 172.228 167.41C171.951 167.548 171.882 167.781 171.489 167.752C171.199 167.731 171.091 167.354 171.058 167.35C170.65 167.309 170.952 167.173 170.319 167.236C170.246 167.361 170.174 167.485 170.101 167.609C169.872 167.901 169.576 167.974 169.212 167.828C168.275 168.029 165.169 168.897 165.473 167.289C164.997 167.521 164.521 167.753 164.045 167.985C163.841 166.689 161.254 168.408 160.677 168.495C159.936 168.605 159.867 168.322 159.167 168.171C159.04 168.144 158.787 168.559 158.491 168.5C157.722 168.346 157.585 168.269 157.454 167.437C156.906 168.459 156.45 168.002 155.456 168.169C155.236 168.207 155.095 168.638 154.779 168.564C154.552 168.51 154.546 168.096 154.389 168.042C154.248 167.994 154.269 167.666 154.061 167.62C153.822 167.566 153.009 168.231 152.775 168.334C152.249 168.565 151.385 168.948 150.871 168.833C150.236 168.692 150.519 168.222 149.621 168.275C148.205 168.358 147.615 169.559 146.734 167.666C146.336 168.424 146.387 168.63 145.748 168.88C145.276 169.065 144.081 168.872 143.46 168.849C140.807 168.752 138.198 169.653 135.567 169.417C134.411 169.313 133.435 169.083 132.268 169.271C131.042 169.47 129.842 169.762 128.598 169.879C127.966 169.938 126.644 170.12 126.333 169.313C126.06 168.603 127.079 168.119 126.508 167.312ZM131.712 196.419C128.27 198.715 125.42 201.85 122.26 204.504C119.092 207.166 116.578 210.124 113.729 213.071C111.095 215.795 108.675 218.373 105.49 220.431C103.475 221.734 101.677 223.338 99.6073 224.567C98.0567 225.486 95.7079 226.697 96.4643 223.883C97.2396 220.999 98.6708 218.084 99.9138 215.39C101.681 211.562 103.461 207.768 105.373 204.012C106.092 202.601 106.494 201.196 107.633 200.072C108.873 198.849 109.741 197.251 111.099 196.095C116.811 191.233 125.418 194.989 131.712 196.419ZM142.507 198.068C140.946 198.884 139.199 199.086 137.545 199.625C136.135 200.085 134.824 200.902 133.308 200.963C134.688 199.93 135.874 198.526 137.43 197.741C139.18 196.859 140.769 197.501 142.507 198.068ZM211.026 204.868C205.284 202.936 199.938 200.089 194.345 197.798C193.38 197.402 185.829 194.923 185.983 193.743C191.274 192.776 196.723 191.118 202.027 192.926C206.852 194.571 210.776 198.517 214.511 201.82C215.486 202.682 221.513 206.606 220.974 207.856C220.6 208.723 217.696 208.486 217.01 208.309C216.124 208.079 215.614 207.543 214.919 206.954C213.758 205.969 212.472 205.354 211.026 204.868ZM200.426 172.591C201.298 171.791 201.82 170.577 202.653 169.838C203.724 168.889 205.451 169.351 206.621 169.844C210.132 171.324 213.133 173.811 216.623 175.354C220.49 177.065 223.838 179.351 227.326 181.707C230.514 183.861 233.961 185.644 237.216 187.699C240.532 189.794 244.244 191.155 247.606 193.175C251.027 195.232 254.435 197.296 257.722 199.562C263.585 203.603 269.689 207.752 274.026 213.496C276.256 216.449 278.342 219.799 279.978 223.115C281.465 226.129 283.078 230.313 281.151 233.448C279.3 236.46 276.146 238.832 273.476 241.079C272.465 241.929 271.503 242.963 270.193 243.332C268.599 243.78 266.739 243.656 265.1 243.789C256.334 244.497 248.168 243.828 239.53 242.265C231.201 240.758 222.837 239.914 214.444 238.867C209.709 238.276 204.976 237.587 200.305 236.603C198.308 236.182 196.277 235.697 194.323 235.124C192.617 234.623 191.182 233.521 189.428 233.085C181.983 231.231 173.465 230.522 166.094 227.404C172.616 224.701 179.548 223.068 186.233 220.822C193.269 218.458 200.141 216.475 207.557 215.803C211.373 215.458 214.788 214.486 218.459 213.469C221.957 212.499 225.609 212.203 229.203 211.768C230.801 211.575 235.361 211.864 235.89 209.781C236.679 206.68 232.198 206.323 230.288 206.6C227.579 206.994 225.344 207.669 223.27 205.452C221.153 203.189 219.095 200.871 216.939 198.636C212.942 194.492 208.822 189.699 203.172 187.84C196.278 185.572 188.285 187.725 181.406 189.015C174.142 190.377 166.889 191.681 159.76 193.662C156.808 194.481 153 196.288 149.937 195.998C146.917 195.711 143.497 195.219 140.579 194.35C139.259 193.958 138.173 193.23 136.992 192.551C135.456 191.668 133.772 191.102 132.142 190.416C128.846 189.028 125.632 187.75 122.075 187.205C119.079 186.746 115.899 186.473 112.996 187.52C110.148 188.547 107.625 190.639 105.638 192.873C103.48 195.301 101.696 198.021 99.9274 200.733C99.0781 202.034 98.0416 203.17 97.1618 204.443C96.4235 205.511 95.9925 206.699 95.2111 207.737C93.4624 210.061 92.275 213.034 91.2155 215.737C90.0378 218.739 88.73 222.31 89.0112 225.576C89.1172 226.81 89.2282 228.446 89.7072 229.59C90.3164 231.046 91.1849 231.009 92.4369 231.558C94.588 232.502 95.1911 235.11 97.971 234.601C100.578 234.124 102.84 231.982 104.742 230.274C107.222 228.049 109.595 225.702 111.967 223.365C114.402 220.965 116.801 218.304 118.738 215.481C119.5 214.37 120.094 213.115 120.995 212.104C122.143 210.814 123.431 210.66 124.99 210.146C138.615 205.658 152.306 201.327 166.357 198.364C169.723 197.653 173.117 196.737 176.423 195.792C179.931 194.79 181.747 195.849 184.642 197.757C190.689 201.744 197.836 204.552 204.57 207.154C206.691 207.973 210.066 208.024 211.724 209.64C201.899 211.133 192.536 214.006 183.06 216.868C178.388 218.278 173.662 219.501 168.973 220.85C164.281 222.2 159.768 223.949 155.141 225.47C150.536 226.984 145.669 227.602 141.02 228.998C136.273 230.424 131.547 231.405 126.675 232.271C121.756 233.147 116.871 234.156 111.934 234.94C109.674 235.299 107.414 235.671 105.18 236.164C102.993 236.648 100.88 237.804 98.6818 238.072C88.8662 239.27 79.2432 241.938 69.4658 243.446C62.1655 244.572 49.4647 246.143 44.7308 238.84C39.9704 231.495 45.8107 222.927 51.0217 217.676C54.2602 214.412 57.8992 211.54 61.7171 208.984C65.8034 206.25 69.7349 203.297 73.8219 200.566C83.0709 194.386 93.1001 189.345 103.037 184.38C107.806 181.996 112.414 179.44 117.054 176.824C119.357 175.526 120.631 177.62 122.452 179.044C123.883 180.165 126.512 182.925 128.515 181.649C128.592 182.109 128.67 182.568 128.747 183.028C129.333 182.762 129.921 182.495 130.507 182.228C130.901 183.259 130.855 183.899 131.956 184.44C132.632 184.773 134.075 185.173 134.72 184.587C134.851 184.995 134.983 185.401 135.114 185.808C135.678 185.765 135.786 184.158 135.893 183.781C136.858 185.188 138.194 186.363 139.892 186.76C139.9 186.669 139.616 185.513 139.628 185.506C140.165 185.178 140.842 186.582 141.127 186.883C142.071 187.879 142.634 187.724 143.677 186.92C143.753 187.003 144.106 187.921 144.157 187.904C144.383 187.833 144.811 187.019 144.858 186.945C144.793 188.015 146.866 188.231 147.598 188.001C147.433 187.688 147.269 187.374 147.105 187.06C149.655 186.721 150.656 189.422 153.103 189.285C154.912 189.183 153.461 188.789 154.485 188.016C155.379 187.341 155.538 188.818 155.626 188.771C155.797 188.593 155.929 188.388 156.023 188.156C156.354 189.421 158.989 190.555 158.717 188.476C159.754 188.89 160.49 189.576 161.637 189.721C163.032 189.897 164.521 189.602 165.913 189.487C168.91 189.238 171.736 188.628 174.438 187.259C176.041 186.447 177.746 185.71 179.252 184.731C180.512 183.911 182.903 181.422 184.582 182.494C184.152 181.23 186.175 182.401 186.239 180.773C186.564 181.017 186.889 181.261 187.214 181.506C187.409 181.08 187.355 180.408 187.616 180.037C187.974 179.527 188.149 179.827 188.455 179.54C188.797 179.219 189.095 178.36 189.505 178.115C189.927 177.863 190.424 178.164 190.879 177.943C191.571 177.608 194.548 174.335 194.044 177.139C195.325 176.706 194.337 176.309 194.497 175.459C194.818 173.754 195.6 174.981 196.379 175.129C197.654 175.373 197.628 174.322 198.339 173.558C198.988 172.861 200.209 172.548 199.788 171.337C200.268 171.595 200.37 172.1 200.426 172.591ZM123.571 136.185C122.567 137.301 121.814 136.824 120.698 136.66C120.578 136.261 120.374 136.206 120.086 136.494C119.755 136.684 119.399 136.809 119.018 136.868C118.102 137.094 117.151 136.998 116.255 137.339C116.281 137.04 116.596 136.508 116.394 136.204C115.452 136.854 114.868 137.267 113.711 137.279C112.774 137.289 111.129 136.575 110.351 137.429C110.326 137.097 110.302 136.765 110.279 136.432C109.898 136.622 109.566 136.875 109.284 137.193C109.23 136.7 109.201 136.328 108.874 135.93C108.255 137.2 107.577 137.23 106.374 136.745C106.543 136.813 105.17 136.01 105.222 136.233C104.788 134.409 111.639 134.56 112.359 134.488C114.155 134.307 115.951 134.202 117.75 134.037C119.456 133.881 120.729 133.615 121.91 135.034C121.384 132.984 126.362 133.086 123.571 136.185ZM45.0188 104.392C45.2075 107.491 45.8994 110.786 44.6908 113.769C43.7192 116.166 41.781 118.874 39.693 120.439C35.4176 123.643 31.7941 119.723 31.1989 115.414C30.5787 110.92 31.8081 105.429 35.689 102.658C38.008 101.002 40.2535 101.117 42.9232 101.661C43.5501 101.789 44.5681 101.74 44.9267 102.361C45.0108 102.507 44.9354 104.389 45.0188 104.392ZM101.801 145.687C101.062 146.059 100.29 146.276 99.6386 146.782C99.4125 146.957 99.3355 147.358 99.0955 147.505C98.6588 147.775 98.0345 147.596 97.5793 147.819C96.8259 148.185 96.2857 148.711 95.3904 149.049C94.0607 149.552 92.8947 150.241 91.6378 150.894C89.5438 151.983 87.2961 152.918 85.1068 153.804C84.0017 154.251 80.9455 155.123 81.0512 156.737C80.8039 156.803 80.5514 156.264 80.0351 156.307C79.3266 156.366 78.3905 157.183 77.6549 157.384C76.2787 157.76 75.2135 157.793 75.2135 159.542C74.7757 159.245 74.6644 158.519 74.0816 158.423C73.4256 158.315 73.1497 159.02 72.625 159.24C72.0071 159.498 71.2386 159.25 70.6268 159.525C70.3592 159.808 70.0617 160.054 69.7345 160.264C69.4016 160.302 69.0702 160.292 68.7407 160.233C67.4415 160.508 66.2461 160.996 64.9439 161.248C63.6749 161.496 62.8057 161.585 63.3394 163.082C61.9817 163.347 61.6503 161.91 60.1186 162.436C58.2412 163.079 56.4864 163.544 54.5267 163.936C53.5272 164.136 52.4828 164.583 51.4762 164.688C50.7579 164.763 50.0875 164.507 49.3802 164.586C48.5279 164.682 47.8428 165.075 46.9607 165.09C46.1239 165.105 45.2456 164.955 44.4239 164.808C44.5402 165.138 44.6855 165.454 44.8599 165.757C44.2918 165.639 44.0295 164.958 43.5478 164.857C43.0424 164.751 42.5895 165.271 42.1687 165.156C41.9894 165.107 42.1086 164.556 41.7882 164.45C41.4957 164.355 41.3726 164.468 41.0827 164.422C40.9861 164.407 39.7741 164.342 39.5809 164.444C39.2434 164.622 39.585 164.956 39.5178 165.006C38.3779 165.847 38.364 165.393 37.8559 164.515C37.1097 163.225 36.2099 164.039 34.8537 163.813C33.342 163.562 32.1512 164.227 30.6636 164.132C29.0591 164.03 27.1734 162.833 25.7545 162.133C22.6912 160.624 19.7037 159.195 17.131 156.908C12.1015 152.438 8.00992 146.941 5.5975 140.648C3.00544 133.887 2.51427 126.835 2.72232 119.662C2.84748 115.349 3.19375 111.037 3.87565 106.774C4.34508 103.842 4.44341 98.63 7.7593 97.2946C8.32924 104.161 6.53051 111.158 7.66493 117.98C8.00653 120.035 8.83956 122.773 10.4162 124.295C12.7503 126.547 13.2965 123.291 13.5075 121.492C13.9004 118.151 14.6304 114.829 15.1475 111.504C15.6638 108.181 16.0288 104.82 16.7467 101.531C17.0087 100.332 19.1201 91.5509 20.6699 91.9668C20.3563 98.3548 19.5236 104.633 19.4908 111.044C19.4779 113.616 19.2469 116.332 19.6191 118.887C19.8109 120.202 21.0115 124.06 23.0765 123.738C24.9876 123.44 22.8867 120.723 22.7082 119.675C22.2356 116.901 22.838 113.45 23.2785 110.697C24.1126 105.487 25.9731 100.151 29.0138 95.7963C31.7375 91.8975 35.9309 88.1858 40.9831 88.8734C43.1413 89.1674 44.8255 89.7018 45.9099 91.6672C46.7611 93.2095 50.1132 94.9623 48.1705 96.8934C46.4021 98.6514 43.5418 97.2442 41.5761 96.8249C39.1691 96.3119 36.5896 96.9292 34.5767 98.3356C31.123 100.748 29.155 105.061 28.5126 109.106C27.6467 114.56 29.9612 128.836 38.4859 125.637C44.1491 123.511 48.4147 115.865 47.9391 110.011C47.7485 107.668 46.8298 103.219 50.0811 102.586C54.2466 101.776 54.8351 106.355 54.4131 109.33C53.8001 113.658 51.506 117.682 48.8816 121.104C46.5942 124.087 43.934 125.952 41.1816 128.415C40.3667 129.144 38.2881 130.783 38.6372 132.14C39.02 133.626 42.2864 134.049 43.5943 134.293C50.0649 135.501 57.3617 134.39 63.8214 133.547C77.0978 131.813 90.1994 127.543 101.086 119.693C101.525 124.55 102.08 129.391 102.284 134.266C102.383 136.632 102.408 139.033 102.68 141.386C102.847 142.834 103.45 144.856 101.801 145.687ZM64.9881 162.611C64.4668 162.883 65.0303 161.239 64.8854 161.783C65.6641 162.061 65.6984 162.337 64.9881 162.611ZM120.062 103.831C120.889 102.922 123.15 100.759 123.867 102.811C124.134 101.936 124.169 100.64 125.199 101.822C125.61 100.37 130.136 100.506 131.257 100.442C134.846 100.237 138.45 100.128 142.027 99.7722C149.377 99.0417 156.855 99.4188 164.232 99.3947C165.829 99.3895 167.422 99.3033 169.008 99.5344C170.538 99.7572 172.147 100.383 173.706 100.154C175.093 99.951 176.002 99.5698 177.429 99.7327C179.137 99.9281 180.795 100.067 182.518 100.061C190.14 100.033 197.758 100.341 205.38 100.353C206.866 100.355 208.646 100.065 210.04 100.695C210.556 100.928 211.121 101.704 211.515 101.789C211.967 101.887 211.699 101.184 212.304 101.501C213.114 101.926 212.487 103.233 211.951 103.44C212.272 103.317 211.373 103.194 211.462 103.189C211.036 103.212 210.672 103.539 210.213 103.518C209.515 103.488 208.931 103.063 208.368 102.689C208.359 102.842 208.668 103.86 208.315 103.911C208.011 103.955 207.727 102.952 207.696 102.719C205.991 104.219 204.184 103.383 202.068 103.572C200.567 103.708 197.437 104.706 196.39 103.143C196.347 103.476 196.213 103.767 195.989 104.016C195.69 104.47 195.431 104.432 195.213 103.899C195.139 103.903 194.41 104.061 194.395 104.059C193.882 104.019 193.217 103.835 192.695 103.791C191.887 103.722 192.036 104.308 191.392 104.318C191.041 104.323 190.145 103.817 189.532 103.785C188.47 103.73 187.386 104.179 186.339 104.043C185.618 103.95 184.967 103.364 184.26 103.342C183.378 103.312 183.093 103.983 182.394 103.041C182.251 103.003 182.163 103.556 182.106 103.566C182.119 103.563 181.441 103.664 181.361 103.695C181.222 103.748 180.68 103.995 180.515 103.998C180.158 104.005 179.965 103.75 179.587 103.744C178.962 103.734 176.966 104.283 177.022 103.129C174.791 103.954 172.888 103.633 170.598 103.827C169.548 103.917 168.888 103.777 167.889 103.584C166.637 103.344 165.806 103.646 164.558 103.708C163.358 103.766 162.98 103.26 161.967 102.803C161.568 102.623 161.304 102.385 160.814 102.485C160.535 102.543 160.734 103.012 160.651 103.044C160.221 103.209 159.92 103.034 159.33 103.074C158.241 103.148 157.807 104.056 156.688 103.204C157.06 103.159 157.432 103.113 157.804 103.068C156.733 102.615 155.32 102.385 155.58 104.033C154.666 103.905 155.457 103.285 155.008 103.063C154.559 102.842 154.057 103.212 153.491 103.396C151.998 103.878 150.753 103.639 149.197 103.552C147.427 103.453 143.289 104.893 142.023 103.024C141.985 103.418 141.561 104.515 140.996 104.463C140.813 104.446 141.325 103.282 141.383 103.159C141.093 103.776 139.767 103.893 139.113 104.213C139.187 103.881 139.26 103.55 139.333 103.219C138.726 103.863 138.432 103.47 137.718 103.685C137.406 103.779 136.954 104.421 136.687 104.46C136.376 104.1 135.985 103.945 135.515 103.995C135.202 103.918 134.889 103.902 134.576 103.95C133.323 104.041 132.181 104.735 130.935 104.262C129.856 103.852 129.439 102.798 128.796 104.475C128.626 104.177 128.457 103.879 128.288 103.581C128.079 103.904 127.871 104.228 127.662 104.551C126.845 104.018 126.795 103.709 125.856 103.905C125.636 103.993 125.41 103.98 125.178 103.868C125.123 104.033 125.068 104.196 125.012 104.361C124.99 104.773 124.867 104.91 124.644 104.769C124.456 104.702 124.286 104.6 124.135 104.463C123.514 104.51 122.72 104.673 122.053 104.583C121.796 104.549 120.182 103.699 120.062 103.831ZM139.077 92.7346C139.15 92.8467 139.224 92.9585 139.297 93.0707C138.288 93.6017 138.05 93.2969 137.946 92.2302C138.439 92.2396 138.523 93.1041 139.077 92.7346ZM139.702 92.1087C140.188 92.3224 140.745 92.7421 141.202 92.1798C141.51 93.0725 139.223 94.2908 139.702 92.1087ZM142.84 92.5031C143.859 93.1903 141.413 92.6378 141.417 92.639C141.857 92.234 142.331 92.1888 142.84 92.5031ZM151.611 88.6702C151.961 90.4301 152.926 90.38 154.483 89.5618C156.754 88.3687 157.137 86.415 157.295 84.0819C157.448 81.8448 157.722 80.9787 160.035 81.4458C161.65 81.7717 163.016 81.4977 164.644 81.4529C166.381 81.4052 166.993 81.6697 167.133 83.4522C167.273 85.2369 167.591 86.5922 168.89 87.9506C170.211 89.3314 171.972 90.1561 173.688 90.9287C174.57 91.3254 175.399 91.7526 176.375 91.8388C176.754 91.8723 178.723 91.6239 178.764 92.2453C178.795 92.7123 176.068 94.0296 175.779 94.1866C174.514 94.8723 173.253 95.4877 171.871 95.9032C168.693 96.8592 165.323 96.9156 162.032 96.8577C156.724 96.7647 149.389 94.5261 146.215 89.8309C148.014 89.444 149.813 89.0571 151.611 88.6702ZM151.135 73.4311C150.296 72.7284 149.752 71.6666 149.054 70.8345C148.702 70.4149 148.445 70.2812 148.11 70.0712C147.757 69.8499 147.559 70.1631 147.264 69.6429C146.505 68.2993 148.85 66.4084 146.362 65.8913C145.521 65.7159 143.496 66.381 143.25 65.1785C142.902 63.4784 146.157 63.3674 146.922 62.5044C148.445 60.7889 147.411 57.8807 148.339 55.9018C149.216 54.0271 151.482 53.694 153.27 53.1306C155.762 52.3462 158.284 51.8912 160.814 51.2634C162.583 50.8246 165.522 49.0617 167.163 50.6194C164.631 51.1799 166.103 52.0598 167.79 52.5562C169.702 53.1193 171.728 53.3387 173.708 53.4956C175.747 53.6567 177.824 53.6876 179.839 53.2822C181.702 52.9074 183.782 51.2928 185.736 51.7064C184.652 53.5856 181.423 54.6119 179.461 55.1042C178.462 55.3549 177.822 55.2766 177.956 56.5194C178.086 57.7237 179.136 58.9315 179.374 60.1863C179.687 61.8469 179.413 63.373 178.82 64.9346C178.237 66.4713 178.101 66.6719 178.611 68.1401C179.405 70.4261 177.698 72.9531 176.121 74.6132C169.741 81.3261 157.532 78.7834 151.135 73.4311ZM167.346 33.3111C167.371 33.3796 167.35 33.3536 167.346 33.3111V33.3111ZM169.333 50.2521C169.068 50.4489 167.545 50.8622 167.608 50.2687C167.693 49.473 169.067 49.7606 169.333 50.2521ZM172.805 34.1835C172.447 33.9178 171.446 34.0269 172.178 33.0198C172.416 33.4627 172.611 33.8229 172.805 34.1835ZM148.778 27.8169C149.233 26.6366 149.738 25.5383 149.943 24.2816C150.07 23.5075 149.818 22.6234 150.903 22.5018C149.52 21.9004 149.506 19.5262 149.424 18.2955C149.312 16.6007 148.775 14.3314 149.522 12.7539C150.289 11.1335 151.323 11.1603 151.636 13.0902C151.758 13.8458 151.29 14.0902 151.202 14.6164C151.028 15.6574 151.374 15.4292 152.048 14.6361C152.326 15.4422 152.432 16.6535 153.564 16.6023C153.488 16.3843 153.055 15.9034 153.2 15.6326C153.422 15.2168 154.509 15.8521 154.647 15.9483C155.64 16.6405 155.855 17.2724 155.147 18.1453C156.127 18.2507 155.304 19.1062 155.937 19.329C156.902 19.6693 156.255 18.0577 156.15 17.7743C156.738 18.0027 156.935 18.2639 157.307 18.7265C157.525 19.0456 157.724 19.3772 157.903 19.7201C158.103 20.3463 158.515 20.5029 159.138 20.1909C160.388 20.582 162.114 20.5206 163.234 21.2045C163.746 21.5165 163.931 22.1996 164.358 22.4589C164.839 22.751 165.484 22.6185 166.001 22.8018C165.811 23.2301 165.965 23.4619 166.459 23.498C166.843 23.533 167.215 23.6192 167.575 23.7566C167.844 23.5545 168.136 23.3945 168.452 23.2786C168.665 23.6516 168.965 23.7438 169.353 23.556C170.506 23.7713 171.06 24.206 171.792 24.856C172.45 25.4393 171.915 25.4868 172.635 25.4348C172.925 25.4141 173.432 24.9245 174.094 25.0201C174.475 25.0938 174.843 25.2113 175.197 25.3712C175.579 25.6975 175.986 25.7386 176.415 25.4947C177.113 25.8345 177.182 26.4375 178.033 26.5199C178.974 26.6114 178.671 25.4412 179.317 27.0912C180.188 25.3419 180.507 28.1289 181.405 28.3539C182.336 28.5873 182.437 27.8345 183.233 28.6569C183.472 28.9034 183.459 29.3107 183.727 29.5719C184.166 29.9994 184.76 29.914 185.142 30.4973C184.93 30.1718 185.193 31.6513 185.188 31.6024C185.247 32.255 184.666 32.9863 185.858 32.9306C185.845 32.9991 185.272 33.8312 185.16 33.7371C185.133 33.6423 185.11 33.5459 185.091 33.4484C184.964 33.5034 184.907 34.296 184.93 34.436C185.031 34.4518 185.073 34.3769 185.054 34.2113C184.859 34.8226 185.154 35.211 184.777 35.7913C184.537 36.1621 183.878 36.4409 183.527 36.6698C182.682 37.2223 181.855 37.7767 181.031 38.3649C179.108 39.7364 176.956 41.3905 174.535 41.6766C175.75 40.4861 182.746 35.981 179.237 34.6878C178.587 34.4481 177.402 34.2211 176.721 34.1707C175.875 34.1082 174.999 34.5915 174.066 34.2896C172.939 33.9264 173.363 32.8703 172.675 32.4913C171.214 31.6878 171.559 33.5779 171.099 34.0728C170.616 33.5674 170.719 33.3212 169.956 33.2757C169.182 33.229 168.997 33.943 168.093 33.4981C166.848 32.8854 167.507 31.6645 165.741 31.6359C165.77 31.3679 166.027 30.6189 165.689 30.41C165.235 30.9975 165.587 31.6547 165.165 32.2204C164.954 32.5041 164.496 32.7303 164.161 32.8222C163.378 33.0367 163.267 33.4473 163.394 32.2715C162.814 33.3141 161.034 32.8854 159.975 32.7804C158.254 32.6099 156.425 32.2851 154.775 31.7348C153.249 31.2256 152.434 30.3509 151.175 29.5549C150.699 29.2538 150.472 29.369 149.79 29.1819C149.116 28.9975 148.46 28.64 148.778 27.8169ZM152.409 9.35653C152.669 9.20042 152.855 11.5296 152.541 11.9648C151.964 11.0554 150.942 9.72153 152.409 9.35653ZM153.239 8.42743C154.075 7.67338 153.494 9.62101 153.341 9.94777C153.031 9.74991 152.722 9.55202 152.412 9.35417C152.807 9.11254 152.906 8.72819 153.239 8.42743ZM184.763 5.28861C192.483 6.90398 200.132 9.92334 206.324 14.8923C211.964 19.4182 215.944 25.8398 218.176 32.6705C220.492 39.7605 219.714 47.6266 214.203 53.053C211.299 55.9112 207.466 57.6357 203.812 59.3184C202.061 60.1246 200.258 60.796 198.501 61.5838C197.239 62.1495 195.697 63.0542 194.257 62.8977C194.992 62.1265 196.058 62.1107 196.948 61.6395C198.022 61.0693 198.9 59.9756 199.826 59.1942C200.745 58.4185 202.785 55.9759 204.198 56.5672C204.002 55.2657 205.489 54.6616 206.159 53.8035C206.868 52.8957 206.919 51.834 208.225 51.537C206.822 50.4426 207.252 48.3789 207.557 46.8893C207.947 44.9841 208.127 43.2351 208.281 41.2965C208.559 37.8015 208.782 33.3491 206.845 30.2768C206.217 29.279 205.417 28.3622 204.856 27.3257C204.18 26.0769 204.329 24.9779 204.329 23.6087C203.094 24.4367 202.833 22.7487 202.311 21.926C201.92 21.3087 201.405 20.964 201.279 20.1871C201.187 19.6222 201.802 19.5266 201.465 18.9342C201.052 19.2455 200.887 19.728 200.677 20.1758C200.296 20.0238 200.745 19.4939 200.527 19.3219C200.52 19.317 199.784 18.9982 199.821 19.0441C199.347 18.4453 199.195 17.4517 198.962 16.7391C198.095 17.1774 198.257 17.1257 197.289 16.3934C197.118 16.2645 196.266 15.6724 196.186 15.4789C195.811 14.5738 196.468 15.1099 196.284 14.5482C195.757 12.9348 192.799 13.24 192.564 10.8224C191.122 11.7358 190.571 10.4417 189.719 9.52127C188.844 8.57843 187.378 8.21576 187.457 6.72027C187.003 6.87518 186.549 7.02968 186.095 7.1838C186.331 5.80382 184.275 5.8917 183.53 5.19166C183.944 5.19677 184.355 5.2291 184.763 5.28861ZM185.939 90.7613C186.654 90.1233 186.437 90.9724 186.898 90.8753C187.292 90.7921 187.369 90.4955 187.747 90.4045C189.302 90.0296 191.628 90.5004 193.263 90.4195C195.158 90.3262 198.405 90.7184 199.308 92.9288C199.852 94.2596 199.022 93.8068 198.107 93.7078C197.399 93.6314 196.768 93.7745 196.067 93.7673C195.72 93.8207 195.374 93.8155 195.03 93.7511C194.862 93.6408 194.762 93.4854 194.732 93.2852C193.756 93.138 192.719 93.7139 191.638 93.7425C190.195 93.7809 188.913 93.505 187.817 92.5336C187.381 93.1813 187.084 93.5027 186.3 93.575C186.28 93.5769 185.514 93.2698 185.396 93.2389C185.239 93.1982 184.842 93.5264 184.54 93.4327C185.076 92.5806 185.154 91.4609 185.939 90.7613ZM284.478 98.4531C284.733 97.5697 284.946 96.6747 285.178 95.7858C288.739 99.8283 291.855 105.24 293.258 110.425C294.169 113.793 295.587 119.898 291.244 121.636C287.706 123.051 285.733 117.978 284.838 115.478C282.862 109.962 282.862 104.066 284.478 98.4531ZM125.143 35.1082C125.188 35.0988 122.837 36.4624 123.612 35.3585C123.923 34.9144 125.103 34.6024 125.627 34.6024L125.143 35.1082ZM122.881 35.6859C122.609 35.914 122.334 36.1395 122.057 36.3619C121.791 35.9426 121.524 35.523 121.258 35.1037C121.783 34.8832 124.011 34.7175 122.881 35.6859ZM121.224 78.0788C120.732 77.7465 120.342 77.923 120.194 78.4808C120.194 77.926 120.484 76.6366 120.929 76.4864C121.217 76.3889 119.973 74.9207 120.322 74.5364C121.212 75.0445 120.679 75.5312 120.94 76.1872C121.058 76.483 121.411 76.763 121.488 76.9904C121.62 77.3765 122.151 78.7036 121.224 78.0788ZM118.814 74.7747C118.31 74.9034 119.192 75.7325 119.191 76.0991C119.19 76.3765 118.857 76.5891 118.719 76.9685C118.42 77.7901 118.934 78.3453 118.089 78.9723C118.089 77.1718 116.877 72.4006 119.206 71.5233C118.069 70.6313 119.002 69.6015 119.893 70.6693C120.749 71.6956 120.204 74.4202 118.814 74.7747ZM117.601 67.6693C117.143 66.0509 115.765 65.4848 114.19 65.5808C114.25 64.752 114.88 63.5574 115.335 65.0509C115.522 64.6094 115.651 64.0335 116.078 63.7411C116.796 65.9861 120.377 67.2266 118.148 69.6595C117.965 68.9963 117.788 68.3317 117.601 67.6693ZM113.44 65.7012C105.148 66.3008 93.5077 68.0163 86.8726 61.679C82.5462 57.5469 82.7772 51.1121 86.2735 46.5212C88.2687 43.9013 90.9924 42.0567 93.7278 40.2995C94.7831 39.6209 95.6773 39.1734 96.8361 38.7834C97.0236 38.7631 97.2003 38.8049 97.3652 38.9088C97.4305 38.6295 97.5879 38.4233 97.8389 38.2881C98.2866 38.0495 98.9241 37.9641 99.1819 37.4684C98.9067 38.3996 98.7652 39.3582 98.6644 40.3213C98.441 40.062 98.2179 39.8027 97.9948 39.5433C97.8084 41.298 95.9751 40.2358 94.8805 40.4549C95.6014 41.45 96.117 41.8113 96.1793 43.1264C95.6422 42.1376 94.5193 41.4876 93.4753 41.1692C94.0422 42.8414 94.443 43.8339 93.8723 45.6676C93.1827 45.275 93.1363 44.3322 92.2999 44.1064C92.0791 45.1998 92.0402 46.4132 91.7575 47.4741C89.6158 46.5001 89.8246 49.1234 90.6848 50.4215C91.1419 51.1121 91.3665 51.9115 91.7745 52.5743C92.7755 54.2006 92.0149 51.7689 93.1276 51.884C92.8778 53.5991 92.7906 53.77 94.0494 55.0259C95.2779 56.2506 95.9151 57.9499 97.229 59.1005C97.6095 58.6157 97.0112 58.1084 96.9587 57.6443C98.1813 57.8487 98.7539 59.0711 99.9292 57.9883C100.442 58.9846 100.997 60.0817 102.224 60.2861C101.413 58.7478 103.783 59.7911 104.39 60.0094C104.851 60.175 105.677 60.3068 105.855 60.3704C106.856 60.7309 106.17 60.0839 106.777 61.2661C107.67 60.9974 108.006 60.2593 109.074 60.883C109.941 61.3903 109.943 62.259 110.142 63.1491C110.349 62.5668 110.557 61.985 110.786 61.4106C111.019 61.5085 111.996 62.5808 111.889 62.5857C114.176 62.4739 114.096 63.8898 113.44 65.7012ZM101.798 36.6762C102.257 36.3548 102.818 36.7827 103.333 36.6675C104.048 36.5087 104.453 35.899 105.251 35.8335C105.029 36.5407 104.612 36.4744 104.26 37.0296C104.14 37.2189 104.202 37.6728 104.096 37.7819C103.202 38.6946 102.893 37.9498 101.981 37.2588C102.06 38.0921 102.221 38.3551 101.433 38.5787C100.721 38.7816 99.5443 38.0352 99.1849 37.4628C99.488 36.8583 101.248 37.0608 101.798 36.6762ZM107.487 35.3736C108.261 35.4473 107.329 37.7251 106.219 35.5158C106.637 35.4251 107.06 35.3777 107.487 35.3736ZM111.468 34.9336C112.689 34.6852 116.762 33.5279 117.215 35.4229C117.296 35.3758 117.6 34.3058 117.74 34.4364C118.304 34.9596 118.367 35.6528 118.324 36.3792C117.643 34.9633 117.885 36.2072 117.423 36.1101C117.302 36.0845 117.118 36.3092 116.813 36.2166C116.412 36.0947 116.125 35.2452 115.872 34.9577C115.451 35.5565 114.93 36.328 114.087 36.2761C113.49 36.2392 112.529 34.7078 113.301 36.3845C112.848 36.2351 112.323 35.8967 111.817 35.9645C111.252 36.0409 110.958 36.5975 110.427 36.6875C109.251 36.8862 109.074 35.7582 108.311 35.1455C109.364 35.0845 110.429 35.1447 111.468 34.9336ZM118.855 34.9151C118.941 34.5267 120.01 34.3698 120.282 34.4932C120.946 34.794 120.7 35.191 120.578 35.8515C120.086 35.6189 119.593 35.3867 119.1 35.1541C119.836 36.3352 118.503 36.5064 118.855 34.9151ZM325.674 104.09C325.587 101.26 325.504 98.3808 324.785 95.6254C324.281 93.6973 323.044 90.2396 320.704 89.905C317.176 89.3999 315.222 96.3541 314.233 98.741C314.035 95.9307 314.208 92.9393 313.144 90.272C312.291 88.1342 310.138 86.1097 308.283 88.5102C306.633 90.6469 306.316 93.8004 305.882 96.371C305.319 99.7019 304.981 103.058 304.569 106.409C302.958 103.303 302.676 99.7482 301.402 96.5204C300.2 93.4745 298.309 90.5656 296.486 87.8565C294.999 85.6434 293.188 83.5629 290.858 82.2102C288.828 81.0329 285.28 79.7593 283.346 81.7145C281.733 83.3461 281.986 85.5294 282.069 87.5885C282.107 88.5053 282.251 89.1339 281.442 89.596C281.045 89.823 280.424 89.7056 279.987 89.8267C279.284 90.0228 278.744 90.3548 278.149 90.7959C273.976 93.8885 272.053 99.4617 271.457 104.431C270.704 110.726 273.165 116.124 275.283 121.884C275.621 122.802 276.693 124.75 276.545 125.775C276.382 126.897 274.969 126.927 274.015 126.95C271.134 127.021 268.123 126.807 265.257 126.539C258.433 125.903 251.614 122.627 245.504 119.702C244.389 119.168 242.812 118.863 241.902 118.022C241.046 117.232 240.821 115.966 240.082 115.06C238.27 112.836 237.116 110.939 234.447 109.595C231.73 108.228 228.957 106.963 226.305 105.466C223.027 103.612 219.998 101.264 216.856 99.1889C211.017 95.333 205.217 91.106 199.027 87.8271C196.15 86.3032 192.935 86.0567 189.949 84.809C187.04 83.5941 183.47 83.5926 180.435 84.3596C178.957 84.7337 177.951 85.6197 176.591 86.1982C174.998 86.876 173.698 86.1278 172.296 85.3186C170.153 84.0826 168.03 82.0683 171.081 80.7348C172.115 80.2821 173.412 80.1108 174.316 79.3995C175.28 78.6415 176.053 77.2429 176.837 76.2933C178.579 74.1823 179.62 71.7525 182.169 70.4397C184.989 68.988 188.331 68.5929 191.338 67.644C194.595 66.6166 197.784 65.3945 200.981 64.1946C206.74 62.0332 212.728 59.6993 216.867 54.9405C220.436 50.8355 221.992 45.5362 221.848 40.1542C221.553 29.1518 215.643 17.9854 207.162 11.1063C196.763 2.6709 183.533 -0.141957 170.398 0.00546587C164.233 0.074868 156.876 0.879353 151.732 4.6142C147.289 7.84011 146.55 13.4824 147.211 18.5755C147.479 20.6425 148.396 23.3705 146.934 25.1917C146.115 26.2109 144.647 26.4631 143.545 27.0984C142.16 27.8966 140.938 28.6618 139.37 29.0837C132.707 30.8782 125.688 30.2535 118.875 30.1541C107.526 29.9885 95.8928 33.0525 87.4266 41.0266C80.5895 47.4655 78.5392 59.6075 86.8778 65.8845C93.6149 70.9557 104.182 70.3979 112.126 69.5135C114.589 69.2387 116.283 68.8398 116.289 71.845C116.295 75.1277 115.75 78.5587 116.589 81.7811C117.912 86.8568 122.803 86.9776 127.127 85.8847C129.409 85.3081 131.615 84.4409 133.781 83.5328C136.96 82.2008 139.873 80.2422 143.011 78.9125C145.139 78.0114 146.732 80.9257 148.619 78.9053C148.968 78.532 149.033 77.9757 149.558 77.7845C150.383 77.4853 151.765 78.5346 152.489 78.8665C153.571 79.3634 154.662 79.7288 155.095 80.9257C155.5 82.045 155.322 83.8252 154.934 84.9295C154.092 87.3303 151.825 86.8557 149.754 86.695C146.143 86.415 142.557 85.8207 138.947 85.5712C135.709 85.3476 132.676 86.3122 129.883 87.905C124.016 91.2494 119.216 96.5694 114.129 100.944C111.511 103.196 108.98 105.628 106.133 107.588C104.895 108.441 103.554 109.225 102.478 110.284C101.41 111.335 101.293 112.291 100.928 113.689C100.278 116.179 97.0482 117.396 95.0296 118.71C92.1749 120.568 89.1486 121.879 85.9482 123.019C79.1711 125.433 72.3404 127.118 65.2549 128.364C61.7858 128.974 58.3457 129.375 54.843 129.704C51.8234 129.988 48.6128 130.916 45.597 130.175C46.4655 128.77 48.0048 127.926 49.2035 126.841C50.7488 125.441 52.0631 123.782 53.2328 122.063C55.5092 118.717 57.1062 115.126 57.4727 111.067C57.8033 107.413 57.4244 103.043 55.2137 99.957C54.4501 98.8908 52.9392 98.601 52.256 97.6405C51.5762 96.686 51.8355 95.0424 51.4633 93.9295C50.5163 91.0985 47.7055 87.5904 45.2317 85.946C42.548 84.1617 38.6221 83.5064 35.5222 84.436C29.7789 86.1587 26.2509 92.2788 23.6227 97.225C22.1873 94.2129 24.5912 89.7439 21.7868 87.2772C19.4213 85.1963 17.5439 89.2272 16.7528 90.9517C13.0391 99.047 12.1955 107.633 10.6396 116.295C10.0055 115.672 10.3305 114.072 10.3901 113.329C10.5011 111.944 10.4905 110.587 10.4935 109.197C10.5011 105.686 11.1556 102.159 10.8555 98.6514C10.6823 96.6236 10.0338 92.348 7.07932 93.0217C4.57371 93.5931 3.00424 97.1064 2.21695 99.2544C1.0814 102.353 0.819223 105.42 0.889919 108.693C0.968089 112.309 0.27713 115.866 0.109732 119.477C-0.215629 126.491 0.105771 133.445 2.12418 140.214C5.42931 151.3 13.0289 160.51 23.1713 166.072C28.7594 169.137 34.9586 171.076 41.3322 171.493C44.7863 171.719 48.1206 171.309 51.5452 170.953C54.9245 170.602 58.3216 170.439 61.6952 170.027C69.2079 169.108 76.5286 166.736 83.3574 163.545C86.9518 161.865 90.3322 159.802 93.8678 158.011C95.2866 157.293 96.245 156.394 97.4558 155.395C98.6561 154.405 98.9883 154.327 100.353 154.327C99.953 153.259 101.122 152.93 101.642 152.254C101.613 152.582 101.583 152.909 101.554 153.237C101.95 152.379 102.32 152.388 102.661 153.262C102.999 152.283 103.249 151.277 103.656 150.323C105.215 151.109 105.083 152.979 107.168 151.613C108.884 150.49 110.462 149.165 112.211 148.064C116.197 145.555 119.633 142.292 123.63 139.812C123.63 142.227 123.801 144.663 123.477 147.066C123.169 149.351 122.314 151.486 121.633 153.674C120.379 157.709 120.292 162.022 118.901 166.017C118.326 167.671 116.828 169.055 116.398 170.665C115.96 172.308 116.972 173.625 115.276 174.704C114.081 175.464 112.586 175.785 111.262 176.245C109.243 176.947 107.325 177.938 105.36 178.778C96.1385 182.718 87.1443 186.73 78.6011 192.027C70.4935 197.054 62.2621 202.246 54.8143 208.216C48.3505 213.397 41.8165 220.097 40.2429 228.549C38.7161 236.748 42.7843 245.548 50.9526 248.248C55.1997 249.652 60.0012 249.478 64.4242 249.539C69.1834 249.604 74.2269 248.461 78.9061 247.633C83.8477 246.759 88.7047 245.391 93.6606 244.611C98.4157 243.862 102.777 242.188 107.454 241.157C112.436 240.058 117.545 239.462 122.554 238.474C124.81 238.029 127.019 237.372 129.28 236.961C131.756 236.51 134.259 236.34 136.71 235.744C141.465 234.585 146.018 232.716 150.794 231.639C152.941 231.154 155.055 230.505 157.203 230.051C159.181 229.634 160.722 228.526 162.703 229.436C164.305 230.172 165.582 231.433 167.097 232.311C169.063 233.45 171.135 234.471 173.184 235.451C177.301 237.421 181.571 238.783 185.877 240.262C190.398 241.816 194.839 243.587 199.524 244.614C204.327 245.665 209.226 245.958 214.062 246.79C223.966 248.494 233.786 249.259 243.839 249.321C248.921 249.352 254.002 248.752 259.071 248.823C263.559 248.886 267.461 249.894 271.565 247.515C278.122 243.714 285.728 237.987 285.567 229.67C285.421 222.137 280.889 214.94 276.639 208.999C271.477 201.783 264.117 196.702 256.904 191.725C249.216 186.421 240.581 182.756 232.501 178.126C228.369 175.758 224.558 173.211 220.071 171.528C217.929 170.725 215.839 169.794 213.723 168.929C212.019 168.233 209.56 167.849 208.102 166.694C207.192 165.974 207.105 164.883 206.865 163.813C206.333 161.443 205.497 159.195 204.687 156.91C203.123 152.496 202.083 148.002 201.41 143.373C200.77 138.961 199.347 134.372 200.084 129.888C204.93 134.562 209.91 139.056 214.868 143.606C216.726 145.311 218.55 147.052 220.418 148.747C221.82 150.02 223.574 151.91 225.528 152.287C228.025 152.77 227.113 150.016 228.827 149.589C229.874 149.329 233.034 151.983 233.862 152.507C239.112 155.831 244.925 157.936 250.699 160.199C256.754 162.571 262.981 164.678 269.496 165.274C275.514 165.827 281.668 165.118 287.476 163.483C299.041 160.227 307.552 152.502 313.798 142.489C320.915 131.078 326.093 117.711 325.674 104.09Z" fill="black"/>
<path fill-rule="evenodd" clip-rule="evenodd" d="M148.911 79.2147C148.91 79.2181 148.892 79.2556 148.892 79.2556C148.914 79.2406 148.92 79.2271 148.911 79.2147Z" fill="black"/>
<path fill-rule="evenodd" clip-rule="evenodd" d="M149.47 79.3622C149.426 78.9987 149.333 78.643 149.189 78.2945C148.807 78.8997 148.464 79.159 148.967 79.8C149.134 79.6539 149.302 79.5083 149.47 79.3622Z" fill="black"/>
<path fill-rule="evenodd" clip-rule="evenodd" d="M176.14 165.867C176.568 165.413 175.819 165.241 175.534 165.235C175.562 165.723 175.32 166.891 175.989 167.117C175.829 166.676 175.879 166.259 176.14 165.867Z" fill="black"/>
<path fill-rule="evenodd" clip-rule="evenodd" d="M164.842 70.7833C164.106 72.2007 165.732 72.6403 166.673 71.9557C167.381 71.4408 167.8 70.1284 167.916 69.2865C168.293 66.5624 166.381 63.9692 165.428 61.5518C165.181 60.927 164.844 58.784 164.051 58.7253C163.139 58.6575 163.072 60.6312 163.06 61.1404C163.025 62.676 163.433 64.2402 163.911 65.6896C164.425 67.2523 165.702 69.1281 164.842 70.7833Z" fill="black"/>
<path fill-rule="evenodd" clip-rule="evenodd" d="M168.343 65.099C171.172 67.6109 173.435 63.4272 173.237 60.9526C173.188 60.3395 172.773 58.0787 171.606 58.9014C171.021 59.3146 171.52 60.6579 171.241 61.2477C169.888 64.1066 168.585 59.6718 167.673 59.3237C166.565 58.8995 166.453 60.3519 166.455 61.1284C166.458 62.6696 167.193 64.0783 168.343 65.099Z" fill="black"/>
<path fill-rule="evenodd" clip-rule="evenodd" d="M158.073 65.4893C158.739 64.443 159.559 63.0395 159.649 61.7859C159.79 59.8374 158.651 60 157.714 61.3594C157.052 62.3199 156.555 63.9488 155.094 63.5439C153.29 63.0448 153.841 60.6255 152.831 59.4761C150.281 62.892 155.107 70.145 158.073 65.4893Z" fill="black"/>
<path fill-rule="evenodd" clip-rule="evenodd" d="M161.895 75.9429C162.95 76.1703 165.701 76.0867 164.748 74.4759C163.546 72.4472 159.55 75.4371 161.895 75.9429Z" fill="black"/>
<path fill-rule="evenodd" clip-rule="evenodd" d="M198.852 15.4412C199.045 14.8678 198.78 14.7636 198.319 14.3121C197.883 14.7134 198.441 15.1355 198.852 15.4412Z" fill="black"/>
<path fill-rule="evenodd" clip-rule="evenodd" d="M218.528 119.299C219.224 119.41 219.448 119.043 219.2 118.198C218.102 118.127 217.878 118.494 218.528 119.299Z" fill="black"/>
<path fill-rule="evenodd" clip-rule="evenodd" d="M180.525 30.7029C181.292 31.0529 180.998 31.771 180.985 32.3777C181.381 31.9494 182.179 31.1658 181.854 30.5504C181.353 29.6016 180.044 30.4838 180.525 30.7029Z" fill="black"/>
<path fill-rule="evenodd" clip-rule="evenodd" d="M154.377 18.7589C154.26 18.5311 154.143 18.3034 154.026 18.0757C153.549 18.4574 152.813 19.466 153.57 19.9576C153.881 19.5816 154.15 19.1823 154.377 18.7589Z" fill="black"/>
<path fill-rule="evenodd" clip-rule="evenodd" d="M163.587 25.454C164.542 26.2008 164.084 23.9083 164.056 23.7213C163.914 23.99 163.105 25.0766 163.587 25.454Z" fill="black"/>
<path fill-rule="evenodd" clip-rule="evenodd" d="M163.058 24.2899C162.985 24.1006 162.911 23.9109 162.839 23.7213C162.451 24.0788 161.977 24.8086 162.617 25.2267C162.792 24.9339 162.939 24.6215 163.058 24.2899Z" fill="black"/>
<path fill-rule="evenodd" clip-rule="evenodd" d="M169.124 32.162C169.202 32.2335 169.28 32.3054 169.358 32.3777C169.673 31.7439 169.315 31.2682 168.72 31.2486C168.762 31.6043 168.897 31.9087 169.124 32.162Z" fill="black"/>
<path fill-rule="evenodd" clip-rule="evenodd" d="M143.531 103.449C143.91 103.192 144.253 102.898 144.563 102.569C143.441 101.885 144.113 103.367 142.764 102.457C142.473 102.858 142.948 103.755 143.531 103.449Z" fill="black"/>
<path fill-rule="evenodd" clip-rule="evenodd" d="M190.65 165.612C191.077 164.959 191.154 164.978 190.571 164.483C190.086 165.289 190.136 165.082 190.65 165.612Z" fill="black"/>
<path fill-rule="evenodd" clip-rule="evenodd" d="M101.534 61.7633C101.766 62.0046 101.998 62.2462 102.23 62.4871C102.338 62.1713 102.93 61.2786 102.528 60.9816C102.197 61.242 101.865 61.5025 101.534 61.7633Z" fill="black"/>
<path fill-rule="evenodd" clip-rule="evenodd" d="M109.79 64.1513C109.419 64.0896 108.533 63.8201 108.328 64.1638C108.87 64.6068 110.094 64.2022 109.79 64.1513Z" fill="black"/>
</svg>
