<svg xmlns="http://www.w3.org/2000/svg" viewBox="0 0 485.05 456.01"><path d="M449.72,195.55s-6-99.13-85-147.31C327.79,25.71,282.3,11.5,237.33,11.37,192.72,11.25,145.8,27,123.77,65.13c-14.18,24.52-16.33,51.94-23.56,78.37C83,206.45-7.28,245.43,15.72,318.94c6.79,21.68,24.08,39.56,44.4,52,46,28.19,105.21,36.56,159.24,38.4,43.21,1.47,89.82-4.09,129.46-20.61,38.46-16,67.69-46.13,84.68-81.54,17.5-36.59,18.56-72.51,16.22-111.64Z" style="fill:#b5eaea"/><path d="M449.72,195.55s-6-99.13-85-147.31C327.79,25.71,282.3,11.5,237.33,11.37,192.72,11.25,145.8,27,123.77,65.13c-14.18,24.52-16.33,51.94-23.56,78.37C83,206.45-7.28,245.43,15.72,318.94c6.79,21.68,24.08,39.56,44.4,52,46,28.19,105.21,36.56,159.24,38.4,43.21,1.47,89.82-4.09,129.46-20.61,38.46-16,67.69-46.13,84.68-81.54,17.5-36.59,18.56-72.51,16.22-111.64Z" style="fill:#fff"/><path d="M71.08,344.84c1.76.77,6.07.67,6.07.67l-1-3c-.94-2-3.93-5.23-6.36-4.91a2.9,2.9,0,0,0-2.39,3.34.54.54,0,0,0,.06.3C67.86,342.94,69.58,344.19,71.08,344.84Z" style="fill:#263238"/><path d="M72.57,357.31c1.82.27,5.67-.85,6-.94a55.15,55.15,0,0,0,2.33,6.45l1.69,3.65a7,7,0,0,0-.72-1c-1.43-1.66-5.18-4-7.43-3.05a2.86,2.86,0,0,0-1.44,3.8v0c0,.1.1.2.15.3.83,1.52,2.83,2.27,4.45,2.5s4.94-.64,5.8-.89l.69,1.39,3.26,6.62,1,2.32-.62-.89c-1.44-1.65-5.18-4-7.43-3a2.86,2.86,0,0,0-1.44,3.8v0c0,.1.1.2.15.3.83,1.52,2.83,2.27,4.45,2.5s4.61-.56,5.65-.84l.9,2.4.52,1.61L91,386l.74,3.15.43,2.09L91,388.86c-1.16-1.85-4.51-4.75-6.88-4.14a2.89,2.89,0,0,0-2,3.56v0a.88.88,0,0,0,.1.3c.6,1.62,2.46,2.67,4,3.15,1.72.52,5.53,0,6,0l.62,3.3,1,6.16h1.6l-1.13-6.43-.78-3.65a34.29,34.29,0,0,0,3.36-1.58,22,22,0,0,0,4.88,3.15l-1.3,3.1L98,401.21h1.72l2.08-4.84,1.37-3.48c.46.09,4.23.86,6,.46,1.6-.36,3.53-1.26,4.25-2.84a2.91,2.91,0,0,0-1.34-3.89h0l-.26-.11c-2.32-.78-5.87,1.86-7.17,3.62-.08.11-.78,1.33-1.22,2.11l.56-1.49,1.08-3.13.49-1.62c.17-.54.28-1.13.43-1.7l.8-4.06c.89.32,4,1.42,5.69,1.3s3.68-.71,4.62-2.16a2.88,2.88,0,0,0-.72-4,1.61,1.61,0,0,0-.28-.17c-2.18-1.12-6.09,1-7.64,2.49-.1.1-1.09,1.33-1.62,2l.37-2.5.77-7.36.24-2.26c.31.12,4,1.51,5.88,1.38,1.63-.11,3.68-.71,4.62-2.17a2.89,2.89,0,0,0-.71-4l-.29-.17c-2.18-1.13-6.09,1-7.64,2.49-.64.77-1.27,1.56-1.88,2.36l.62-4.92a55,55,0,0,1,1.41-6.48c.15.06,4,1.53,5.92,1.39,1.63-.11,3.68-.71,4.62-2.16a2.88,2.88,0,0,0-.72-4,1.61,1.61,0,0,0-.28-.17c-2.18-1.12-6.09.95-7.64,2.49-.12.13-1.65,2-1.9,2.41l.09-.38a38.36,38.36,0,0,1,2.57-6.13l1.75-3.08c.7.35,3.9,1.91,5.6,2s3.74-.3,4.84-1.64a2.92,2.92,0,0,0-.26-4.11h0l-.24-.18c-2-1.36-6.16.28-7.87,1.64-.09.07-1,.93-1.57,1.57l.83-1.3c1-1.55,2.06-2.9,3-4.09l1.5-1.82c.86,0,4.33-.12,5.85-.83s3.17-2,3.53-3.69a2.89,2.89,0,0,0-2.1-3.51h0a1.55,1.55,0,0,0-.31-.06c-2.44-.26-5.33,3.08-6.23,5.08-.07.17-1,3-.92,3h0l-1.47,1.72-3.08,4a52.42,52.42,0,0,0-3.2,5.09,38,38,0,0,0-2.73,6.15v-2.8c-.28-2.18-2.1-6.21-4.51-6.65a2.9,2.9,0,0,0-3.31,2.4h0v.32c-.14,1.72,1.11,3.45,2.33,4.54,1.38,1.23,5.2,2.42,5.5,2.51a52.1,52.1,0,0,0-1.61,6.66l-.61,4V365c-.28-2.18-2.1-6.21-4.51-6.65a2.9,2.9,0,0,0-3.31,2.4h0v.32c-.14,1.72,1.11,3.45,2.33,4.54s4.47,2.18,5.33,2.46l-.19,1.54-.93,7.32-.43,2.5v-1.09c-.28-2.17-2.1-6.2-4.51-6.64A2.89,2.89,0,0,0,98,374.08a.25.25,0,0,1,0,.08v.32c-.14,1.72,1.11,3.45,2.33,4.54s4.16,2.08,5.18,2.41l-.57,2.5-.45,1.64-.52,1.61-1.13,3-.79,2,.36-2.64a11.09,11.09,0,0,0-1.51-5.48,2.29,2.29,0,0,0,0-.64,2.89,2.89,0,0,0-3.23-2.52h0l-.31.06c-2.37.63-3.87,4.79-4,7,0,.12.08,1.53.14,2.42l-.35-1.55-.83-3.2L91.82,384l-.57-1.66-1.58-3.83c.92-.22,4.17-1,5.47-2s2.67-2.62,2.66-4.36a2.9,2.9,0,0,0-2.79-3,1.93,1.93,0,0,0-.34,0c-2.44.27-4.56,4.15-5,6.3,0,.13-.17,1.7-.23,2.57l-1.07-2.28L85,369.18l-1-2c.32-.07,4.2-1,5.66-2.09,1.3-1,2.68-2.63,2.66-4.36a2.9,2.9,0,0,0-2.79-3h-.34c-2.44.27-4.55,4.15-5,6.29,0,.17-.23,2.43-.26,3l-2.2-4.45a52.92,52.92,0,0,1-2.52-6.15c.15,0,4.2-1,5.7-2.1,1.3-1,2.67-2.63,2.66-4.36a2.9,2.9,0,0,0-2.79-3h-.34c-2.44.27-4.56,4.15-5,6.29,0,.17-.25,2.61-.26,3.06a1,1,0,0,0-.13-.37,39.26,39.26,0,0,1-1.24-6.52l-.23-3.53c.77-.1,4.29-.56,5.75-1.45s3-2.31,3.13-4a2.9,2.9,0,0,0-2.47-3.27h-.32c-2.45,0-5,3.62-5.66,5.7,0,.12-.28,1.31-.45,2.18v-1.54l.23-5.06.25-2.34c.71-.49,3.54-2.49,4.41-3.92s1.55-3.41.92-5a2.9,2.9,0,0,0-3.69-1.78h0a1.78,1.78,0,0,0-.29.12c-2.18,1.13-2.75,5.52-2.39,7.68,0,.18.85,3,.89,3h0l-.27,2.25-.35,5.06a52.26,52.26,0,0,0,.14,6,39.25,39.25,0,0,0,1.12,6.63v.08l-1.62-2.38c-1.43-1.66-5.18-4-7.43-3.06A2.9,2.9,0,0,0,68,354.64l.15.29c.88,1.44,2.88,2.14,4.45,2.38Z" style="fill:#263238"/><path d="M114.62,345.79l.81-3.05c.3-2.17-.39-6.54-2.6-7.6a2.88,2.88,0,0,0-3.81,1.42v0l-.12.3c-.6,1.63.15,3.63,1,5C111,343.49,114.62,345.79,114.62,345.79ZM25.28,388.05a13.09,13.09,0,0,0,3.63.4l-.61-1.78c-.56-1.19-2.35-3.14-3.8-2.94a1.74,1.74,0,0,0-1.43,2v.18A3.71,3.71,0,0,0,25.28,388.05Z" style="fill:#263238"/><path d="M26.17,395.5a12.33,12.33,0,0,0,3.57-.56,33.53,33.53,0,0,0,1.39,3.86l1,2.18-.43-.61c-.86-1-3.09-2.4-4.44-1.83a1.73,1.73,0,0,0-.87,2.27l.1.19a3.69,3.69,0,0,0,2.66,1.5,11.63,11.63,0,0,0,3.47-.53l.41.83,2,3.95.61,1.39-.37-.53c-.86-1-3.09-2.4-4.44-1.82a1.73,1.73,0,0,0-.87,2.27l.1.19a3.69,3.69,0,0,0,2.66,1.5,11.28,11.28,0,0,0,3.37-.51l.55,1.44a6.54,6.54,0,0,1,.31,1l.27,1,.44,1.89.26,1.24-.69-1.43c-.69-1.11-2.69-2.84-4.11-2.48a1.74,1.74,0,0,0-1.2,2.14h0l.06.17a3.67,3.67,0,0,0,2.41,1.88,12,12,0,0,0,3.59,0l.37,2,.57,3.68h1l-.67-3.84-.47-2.19a20.27,20.27,0,0,0,2-.94,13.6,13.6,0,0,0,2.92,1.88l-.78,1.85-1.48,3.24h1l1.24-2.9.82-2.08a12.33,12.33,0,0,0,3.58.28,3.63,3.63,0,0,0,2.54-1.7,1.73,1.73,0,0,0-.78-2.31h0l-.2-.08c-1.39-.47-3.51,1.11-4.29,2.16,0,.06-.47.79-.73,1.26l.33-.89.65-1.87.29-1,.26-1q.28-1.18.48-2.43A11.69,11.69,0,0,0,50,410a3.64,3.64,0,0,0,2.77-1.3,1.73,1.73,0,0,0-.42-2.41l-.17-.1c-1.3-.68-3.64.56-4.56,1.49-.06.05-.65.79-1,1.2l.22-1.49.46-4.4a11.86,11.86,0,0,1,.14-1.35,12.61,12.61,0,0,0,3.52.82,3.66,3.66,0,0,0,2.76-1.29,1.74,1.74,0,0,0-.42-2.43l-.16-.09c-1.3-.67-3.64.57-4.57,1.49-.07.07-.92,1.13-1.12,1.42l.37-2.95a30.94,30.94,0,0,1,.89-3.95,13.13,13.13,0,0,0,3.54.83A3.66,3.66,0,0,0,55,394.21a1.73,1.73,0,0,0-.4-2.42h0a.59.59,0,0,0-.17-.1c-1.3-.67-3.64.57-4.57,1.49-.07.07-1,1.22-1.13,1.44l.06-.23a21.76,21.76,0,0,1,1.53-3.66l1-1.84a12.09,12.09,0,0,0,3.39,1.18,3.66,3.66,0,0,0,2.89-1,1.73,1.73,0,0,0-.16-2.44.35.35,0,0,0-.15-.12c-1.22-.81-3.68.16-4.7,1a10.42,10.42,0,0,0-.94.94l.49-.78,1.79-2.44.89-1.09a11.8,11.8,0,0,0,3.5-.5,3.59,3.59,0,0,0,2.11-2.2,1.73,1.73,0,0,0-1.26-2.11H59c-1.46-.16-3.19,1.84-3.72,3,0,.1-.58,1.8-.56,1.8h0l-.88,1L52,387.54a30.64,30.64,0,0,0-1.91,3,23.16,23.16,0,0,0-1.63,3.67v-1.67c-.17-1.3-1.26-3.71-2.7-4a1.72,1.72,0,0,0-2,1.41v.22a3.73,3.73,0,0,0,1.39,2.72,13.23,13.23,0,0,0,3.29,1.5,30.38,30.38,0,0,0-1,4L47,400.82V400c-.16-1.3-1.25-3.71-2.69-4a1.74,1.74,0,0,0-2,1.46v.18a3.7,3.7,0,0,0,1.4,2.71A12.18,12.18,0,0,0,47,401.86a5.77,5.77,0,0,1-.11.92l-.56,4.38-.25,1.5V408c-.17-1.3-1.25-3.71-2.7-4a1.72,1.72,0,0,0-2,1.41v.22a3.69,3.69,0,0,0,1.4,2.72,11.45,11.45,0,0,0,3.09,1.44l-.34,1.5-.27,1-.31,1-.68,1.81-.47,1.19.22-1.58a6.59,6.59,0,0,0-.9-3.27,2.54,2.54,0,0,0,0-.39,1.72,1.72,0,0,0-1.92-1.51H41c-1.42.38-2.31,2.86-2.38,4.17a11.76,11.76,0,0,0,.09,1.45l-.22-.92L38,412.32l-.29-1c-.09-.36-.23-.66-.35-1L36.42,408a11.52,11.52,0,0,0,3.27-1.22,3.63,3.63,0,0,0,1.54-2.49,1.74,1.74,0,0,0-1.69-1.79h-.18c-1.46.16-2.73,2.49-3,3.77,0,.08-.1,1-.14,1.54l-.64-1.37-2-3.93-.63-1.2a12.34,12.34,0,0,0,3.39-1.25,3.64,3.64,0,0,0,1.59-2.61,1.74,1.74,0,0,0-1.7-1.78H36c-1.45.16-2.72,2.48-3,3.76,0,.1-.15,1.45-.16,1.8l-1.32-2.66a35.32,35.32,0,0,1-1.43-3.7,12.06,12.06,0,0,0,3.41-1.26,3.57,3.57,0,0,0,1.59-2.6,1.74,1.74,0,0,0-1.69-1.79h-.18c-1.46.16-2.72,2.48-3,3.77,0,.1-.15,1.55-.16,1.82L30,394.7a22.55,22.55,0,0,1-.74-3.9l-.14-2.11a11.92,11.92,0,0,0,3.44-.87,3.61,3.61,0,0,0,1.87-2.45,1.72,1.72,0,0,0-1.39-2h-.31c-1.47,0-3,2.16-3.38,3.41,0,.07-.17.78-.27,1.3v-.92c0-1.11.08-2.12.15-3a13,13,0,0,1,.14-1.4A11.79,11.79,0,0,0,32,380.41a3.6,3.6,0,0,0,.55-3,1.73,1.73,0,0,0-2.21-1.08l-.18.08c-1.3.67-1.65,3.29-1.43,4.58,0,.11.51,1.83.53,1.81h0l-.17,1.35-.21,3a30.8,30.8,0,0,0,.09,3.59,23.53,23.53,0,0,0,.67,4h0l-1-1.42c-.86-1-3.09-2.4-4.44-1.83a1.72,1.72,0,0,0-.85,2.29h0s0,.11.08.17a3.65,3.65,0,0,0,2.74,1.54Z" style="fill:#263238"/><path d="M51.31,388.62l.48-1.83c.18-1.29-.23-3.9-1.55-4.54a1.71,1.71,0,0,0-2.28.83h0a.77.77,0,0,0-.07.16,3.65,3.65,0,0,0,.62,3A13.29,13.29,0,0,0,51.31,388.62ZM397.72,285c-1.76.77-6.07.67-6.07.67l1-3c.94-2,3.93-5.24,6.36-4.91a2.9,2.9,0,0,1,2.4,3.34.48.48,0,0,1-.07.3c-.44,1.69-2.16,3-3.62,3.6Z" style="fill:#263238"/><path d="M396.19,297.47c-1.82.26-5.67-.85-6-.94a51.6,51.6,0,0,1-2.33,6.44l-1.69,3.66a7.26,7.26,0,0,1,.72-1c1.43-1.66,5.18-4,7.43-3.06a2.89,2.89,0,0,1,1.44,3.84c-.05.09-.09.19-.15.28-.83,1.52-2.83,2.27-4.45,2.51s-4.94-.65-5.8-.89l-.64,1.36-3.26,6.61-1,2.33.62-.89c1.44-1.66,5.18-4,7.43-3.06a2.89,2.89,0,0,1,1.5,3.81v0l-.16.29c-.83,1.51-2.83,2.26-4.45,2.5s-4.61-.56-5.65-.85l-.9,2.4-.52,1.62-.46,1.63-.74,3.16-.43,2.08,1.15-2.39c1.16-1.86,4.51-4.75,6.88-4.15a2.9,2.9,0,0,1,2,3.59h0a.86.86,0,0,1-.1.28c-.6,1.63-2.46,2.67-4,3.15-1.72.53-5.53.05-6,0l-.62,3.3-1,6.16h-1.6l1.13-6.42.78-3.66a34.21,34.21,0,0,1-3.36-1.57,20.9,20.9,0,0,1-4.88,3.15l1.3,3.1,2.48,5.4h-1.74L367,336.44,365.66,333c-.46.1-4.23.87-6,.47-1.6-.36-3.53-1.26-4.25-2.84a2.91,2.91,0,0,1,1.35-3.89h0l.26-.11c2.32-.78,5.87,1.86,7.17,3.62.08.1.78,1.32,1.22,2.1l-.56-1.49-1.08-3.12-.49-1.63c-.17-.55-.28-1.13-.43-1.69l-.8-4.07c-.89.32-4.05,1.42-5.69,1.31s-3.68-.72-4.62-2.17a2.9,2.9,0,0,1,.72-4,2.09,2.09,0,0,1,.28-.17c2.18-1.13,6.09.94,7.64,2.49.1.1,1.09,1.33,1.62,2l-.37-2.5-.77-7.37-.24-2.25c-.31.11-4,1.5-5.88,1.38-1.63-.12-3.68-.72-4.62-2.17a2.92,2.92,0,0,1,.72-4l.28-.17c2.18-1.12,6.09.95,7.64,2.5.12.11,1.54,1.89,1.88,2.36l-.62-4.93a50.72,50.72,0,0,0-1.41-6.47c-.15.05-4,1.52-5.92,1.39-1.63-.12-3.68-.71-4.62-2.17a2.9,2.9,0,0,1,.72-4,2.09,2.09,0,0,1,.28-.17c2.18-1.13,6.09.95,7.64,2.49.12.12,1.65,2,1.9,2.4l-.09-.38a36.16,36.16,0,0,0-2.57-6.12l-1.75-3.08c-.7.35-3.9,1.9-5.6,2s-3.74-.31-4.84-1.64a2.92,2.92,0,0,1,.28-4.11,1.3,1.3,0,0,1,.23-.18c2-1.36,6.15.27,7.87,1.64.09.07.95.93,1.57,1.56l-.83-1.29c-1-1.55-2.06-2.9-3-4.09l-1.5-1.82c-.86,0-4.33-.12-5.85-.84s-3.17-2-3.53-3.68a2.94,2.94,0,0,1,2.13-3.53l.3,0c2.44-.26,5.33,3.08,6.23,5.08.07.18,1,3,.92,3h-.05l1.47,1.72c1,1.17,2,2.5,3.08,4a46.39,46.39,0,0,1,3.2,5.1,35.55,35.55,0,0,1,2.73,6.15v-2.81c.28-2.17,2.1-6.2,4.51-6.65a2.89,2.89,0,0,1,3.32,2.4h0a1.71,1.71,0,0,1,0,.32c.14,1.73-1.11,3.46-2.33,4.55-1.38,1.22-5.2,2.41-5.5,2.51a50.47,50.47,0,0,1,1.61,6.66l.61,4v-1.26c.28-2.17,2.1-6.2,4.51-6.65a2.89,2.89,0,0,1,3.32,2.4h0a1.71,1.71,0,0,1,0,.32c.14,1.73-1.11,3.45-2.33,4.54s-4.47,2.19-5.33,2.46l.19,1.54.93,7.32.43,2.51v-1.09c.28-2.17,2.1-6.2,4.51-6.65a2.89,2.89,0,0,1,3.32,2.4h0a1.71,1.71,0,0,1,0,.32c.14,1.73-1.11,3.45-2.33,4.54s-4.16,2.08-5.18,2.41l.57,2.51.45,1.63.52,1.61,1.13,3,.79,2-.36-2.63a11.3,11.3,0,0,1,1.51-5.48,3.42,3.42,0,0,1,0-.64,2.91,2.91,0,0,1,3.25-2.53h0l.3.06c2.37.63,3.87,4.79,4,7,0,.13-.08,1.54-.14,2.43l.35-1.55.83-3.21.49-1.62.57-1.66,1.58-3.83c-.92-.22-4.17-1-5.47-2S371,314,371,312.28a2.9,2.9,0,0,1,2.79-3h.34c2.44.26,4.56,4.15,5,6.29,0,.14.17,1.71.23,2.58l1.07-2.29,3.42-6.57,1-2c-.32-.08-4.2-1-5.66-2.1-1.3-1-2.68-2.62-2.66-4.35a2.9,2.9,0,0,1,2.77-3h.36c2.44.26,4.55,4.15,5,6.29,0,.16.23,2.43.26,3l2.2-4.45a50.89,50.89,0,0,0,2.39-6.18c-.15,0-4.2-1-5.7-2.11-1.3-1-2.67-2.62-2.66-4.35a2.9,2.9,0,0,1,2.79-3,1.93,1.93,0,0,1,.34,0c2.44.26,4.56,4.15,5,6.29,0,.17.25,2.61.26,3.05a1.47,1.47,0,0,1,.13-.37,37.31,37.31,0,0,0,1.24-6.52l.23-3.54c-.77-.09-4.29-.56-5.75-1.44s-3-2.32-3.13-4a2.92,2.92,0,0,1,2.5-3.28h.29c2.45,0,5,3.63,5.66,5.71,0,.11.28,1.31.45,2.18v-1.54l-.23-5.06-.25-2.35c-.71-.48-3.54-2.49-4.41-3.92s-1.55-3.41-.92-5a2.91,2.91,0,0,1,3.72-1.76,1.39,1.39,0,0,1,.28.12c2.18,1.13,2.75,5.51,2.39,7.67a29.39,29.39,0,0,1-.89,3h0l.27,2.24.35,5.07a48.09,48.09,0,0,1-.14,6,36.56,36.56,0,0,1-1.12,6.64.11.11,0,0,1,0,.08l1.62-2.39c1.43-1.65,5.18-4,7.43-3a2.89,2.89,0,0,1,1.44,3.84,1.91,1.91,0,0,1-.15.28c-.79,1.44-2.79,2.19-4.41,2.43Z" style="fill:#263238"/><path d="M354.14,285.94l-.81-3c-.3-2.17.39-6.54,2.6-7.61a2.89,2.89,0,0,1,3.83,1.44,1.63,1.63,0,0,1,.11.31c.6,1.63-.15,3.62-1,5-1.09,1.57-4.73,3.86-4.73,3.86Zm70,25.29a12.65,12.65,0,0,1-3.63.41l.6-1.79c.56-1.18,2.35-3.13,3.8-2.94a1.73,1.73,0,0,1,1.44,2h0a.48.48,0,0,1,0,.17A3.7,3.7,0,0,1,424.12,311.23Z" style="fill:#263238"/><path d="M423.23,318.69a12.38,12.38,0,0,1-3.57-.56,31.07,31.07,0,0,1-1.4,3.85l-1,2.18.43-.61c.85-1,3.09-2.4,4.44-1.83A1.73,1.73,0,0,1,423,324l-.09.17a3.66,3.66,0,0,1-2.66,1.49,11.73,11.73,0,0,1-3.47-.53l-.41.83-1.95,4-.62,1.39.37-.54c.86-1,3.1-2.39,4.45-1.82a1.71,1.71,0,0,1,.87,2.27v0a.7.7,0,0,1-.09.17,3.65,3.65,0,0,1-2.66,1.5,11.78,11.78,0,0,1-3.38-.51l-.54,1.44c-.12.32-.22.66-.31,1l-.28,1-.44,1.89-.26,1.24.69-1.43c.7-1.11,2.7-2.84,4.12-2.48a1.73,1.73,0,0,1,1.2,2.13v0l-.06.17a3.64,3.64,0,0,1-2.4,1.89,12.7,12.7,0,0,1-3.59,0l-.38,2-.57,3.68h-1l.68-3.84.46-2.19a21.4,21.4,0,0,1-2-.94,12.82,12.82,0,0,1-2.92,1.89l.78,1.85L408,345h-1l-1.25-2.89-.81-2.08a13.08,13.08,0,0,1-3.59.28,3.74,3.74,0,0,1-2.53-1.7,1.74,1.74,0,0,1,.8-2.32l.2-.08c1.39-.47,3.51,1.11,4.28,2.16,0,.07.47.8.73,1.26l-.33-.89-.65-1.87-.29-1-.26-1-.48-2.43a11.6,11.6,0,0,1-3.4.78,3.69,3.69,0,0,1-2.76-1.3,1.73,1.73,0,0,1,.42-2.41l.16-.1c1.31-.67,3.64.57,4.57,1.49.06.06.65.79,1,1.21l-.23-1.5-.46-4.4a11.86,11.86,0,0,0-.14-1.35,12.38,12.38,0,0,1-3.51.82,3.61,3.61,0,0,1-2.77-1.29,1.74,1.74,0,0,1,.43-2.41l.16-.1c1.3-.68,3.63.56,4.56,1.49.39.46.76.93,1.12,1.41l-.36-3a28.42,28.42,0,0,0-.85-3.87,12.26,12.26,0,0,1-3.54.83,3.64,3.64,0,0,1-2.76-1.29,1.76,1.76,0,0,1,.43-2.43H395c1.31-.67,3.64.57,4.57,1.5.4.46.78.94,1.14,1.43l-.06-.23a20.26,20.26,0,0,0-1.54-3.66l-1-1.84a11.73,11.73,0,0,1-3.35,1.18,3.67,3.67,0,0,1-2.89-1,1.75,1.75,0,0,1,.16-2.46l.14-.11c1.22-.81,3.68.17,4.71,1l.94.94-.5-.78-1.78-2.44-.9-1.09a11.79,11.79,0,0,1-3.49-.5,3.69,3.69,0,0,1-2.12-2.2,1.76,1.76,0,0,1,1.3-2.11h.16c1.45-.15,3.19,1.84,3.72,3,0,.1.58,1.8.55,1.8h0l.88,1,1.84,2.41a26,26,0,0,1,1.92,3.05,21.48,21.48,0,0,1,1.63,3.67h0V315.8c.16-1.3,1.25-3.71,2.69-4a1.73,1.73,0,0,1,2,1.41v0a.6.6,0,0,1,0,.19,3.59,3.59,0,0,1-1.39,2.71,12,12,0,0,1-3.29,1.5,27.21,27.21,0,0,1,1,4q.21,1.17.36,2.37v-.75c.17-1.3,1.26-3.71,2.7-4a1.72,1.72,0,0,1,2,1.39v0a.67.67,0,0,1,0,.2,3.59,3.59,0,0,1-1.39,2.71,11.59,11.59,0,0,1-3.19,1.48l.12.91.55,4.38.25,1.5v-.65c.17-1.3,1.26-3.71,2.7-4a1.73,1.73,0,0,1,2,1.41v0a.6.6,0,0,1,0,.19,3.59,3.59,0,0,1-1.39,2.71,11.37,11.37,0,0,1-3.1,1.44l.34,1.5.28,1,.31,1,.67,1.82.47,1.18-.21-1.57a6.6,6.6,0,0,1,.9-3.28,2.41,2.41,0,0,1,0-.38,1.73,1.73,0,0,1,1.92-1.52h.2c1.42.38,2.32,2.87,2.39,4.17,0,.08-.05.92-.09,1.45l.21-.92.5-1.92.29-1c.1-.36.23-.65.34-1l.94-2.29a11.57,11.57,0,0,1-3.26-1.22,3.72,3.72,0,0,1-1.6-2.61,1.75,1.75,0,0,1,1.71-1.78h.17c1.46.16,2.72,2.48,3,3.76,0,.08.1,1,.14,1.54l.64-1.37,2-3.92.63-1.21a12.46,12.46,0,0,1-3.39-1.25,3.6,3.6,0,0,1-1.59-2.6,1.73,1.73,0,0,1,1.67-1.79h.2c1.46.16,2.72,2.48,3,3.76,0,.1.14,1.45.16,1.8l1.31-2.66a29.14,29.14,0,0,0,1.43-3.7,12.59,12.59,0,0,1-3.41-1.25,3.72,3.72,0,0,1-1.59-2.61,1.75,1.75,0,0,1,1.71-1.78h.17c1.45.16,2.72,2.48,3,3.76,0,.1.16,1.56.16,1.82a.83.83,0,0,1,.08-.22,22.55,22.55,0,0,0,.74-3.9l.14-2.11a12.41,12.41,0,0,1-3.44-.86,3.66,3.66,0,0,1-1.87-2.42,1.73,1.73,0,0,1,1.42-2h.24c1.47,0,3,2.17,3.39,3.41,0,.07.17.78.27,1.3v-.92l-.14-3a8.21,8.21,0,0,0-.15-1.4,12.06,12.06,0,0,1-2.64-2.35,3.64,3.64,0,0,1-.54-3,1.75,1.75,0,0,1,2.22-1.08l.17.08c1.3.67,1.64,3.3,1.43,4.59-.15.61-.33,1.21-.54,1.81h0l.16,1.34.21,3a28.73,28.73,0,0,1-.08,3.59,21.7,21.7,0,0,1-.67,4v.05l1-1.43c.86-1,3.1-2.4,4.45-1.82a1.73,1.73,0,0,1,.85,2.31h0a1.09,1.09,0,0,1-.08.15,3.68,3.68,0,0,1-2.76,1.62Z" style="fill:#263238"/><path d="M398.09,311.8,397.6,310c-.18-1.3.24-3.91,1.56-4.55a1.71,1.71,0,0,1,2.28.84v0a.62.62,0,0,1,.07.19,3.58,3.58,0,0,1-.63,3,12,12,0,0,1-2.8,2.32Zm54.79,53c-1.76.77-6.06.67-6.07.67s.93-2.82,1-3c.94-2,3.93-5.24,6.36-4.91a2.88,2.88,0,0,1,2.4,3.3v0a.54.54,0,0,1-.07.32c-.39,1.69-2.12,2.94-3.62,3.6Zm-1.48,12.47c-1.83.26-5.67-.85-6-.94a48.22,48.22,0,0,1-2.33,6.45l-1.68,3.65a6.51,6.51,0,0,1,.72-1c1.43-1.66,5.17-4,7.43-3.06a2.89,2.89,0,0,1,1.43,3.84v0c0,.09-.09.18-.14.27-.83,1.51-2.83,2.27-4.44,2.5s-4.94-.64-5.81-.89l-.69,1.39-3.26,6.62-1,2.32.63-.89c1.43-1.66,5.17-4,7.43-3.05a2.88,2.88,0,0,1,1.44,3.82v0a1.91,1.91,0,0,1-.15.28c-.83,1.52-2.83,2.27-4.44,2.5s-4.62-.56-5.65-.85L434,402.7l-.52,1.61L433,406l-.73,3.15-.44,2.09,1.15-2.4c1.17-1.85,4.51-4.75,6.89-4.14a2.89,2.89,0,0,1,2,3.56v0a1.18,1.18,0,0,1-.1.3c-.59,1.62-2.45,2.67-4,3.14-1.72.53-5.53.05-6,0l-.62,3.3-.95,6.15h-1.65l1.13-6.42.78-3.65-3.35-1.58a21,21,0,0,1-4.89,3.15l1.3,3.1,2.48,5.4h-1.74l-2.08-4.84-1.36-3.47c-.47.09-4.24.86-6,.46-1.59-.36-3.53-1.26-4.24-2.84a2.92,2.92,0,0,1,1.33-3.89l.27-.11c2.32-.78,5.87,1.86,7.17,3.62.08.11.79,1.33,1.22,2.1l-.55-1.48-1.09-3.13-.48-1.62c-.18-.54-.29-1.13-.44-1.7l-.8-4.07c-.88.33-4,1.43-5.69,1.31s-3.68-.71-4.62-2.16a2.92,2.92,0,0,1,.72-4l.28-.17c2.18-1.13,6.09,1,7.64,2.49.1.1,1.09,1.33,1.62,2l-.37-2.5-.77-7.36-.23-2.26c-.32.12-4,1.51-5.89,1.38-1.63-.12-3.68-.72-4.62-2.17a2.91,2.91,0,0,1,.7-4l.3-.18c2.17-1.13,6.08.94,7.63,2.49.12.11,1.54,1.89,1.88,2.36l-.62-4.92a47.65,47.65,0,0,0-1.41-6.48c-.15.06-4,1.52-5.92,1.39-1.63-.11-3.67-.71-4.62-2.16a2.93,2.93,0,0,1,.74-4l.26-.16c2.18-1.12,6.08.95,7.64,2.49.66.78,1.29,1.58,1.9,2.4a1.13,1.13,0,0,0-.1-.37,34.7,34.7,0,0,0-2.57-6.13l-1.75-3.08c-.69.35-3.89,1.9-5.6,2s-3.73-.3-4.83-1.64a2.91,2.91,0,0,1,.25-4.1l.25-.19c2.05-1.36,6.16.27,7.87,1.64.09.07,1,.93,1.58,1.57l-.83-1.3c-1-1.55-2.06-2.9-3-4.09l-1.49-1.82c-.87,0-4.34-.12-5.85-.83s-3.18-2-3.53-3.69a2.92,2.92,0,0,1,2.12-3.52h.3c2.44-.27,5.34,3.08,6.23,5.08.08.17,1,3,.92,3h0l1.47,1.72,3.09,4a48.83,48.83,0,0,1,3.2,5.09,37.14,37.14,0,0,1,2.73,6.15v-2.81c.28-2.17,2.1-6.2,4.51-6.64a2.89,2.89,0,0,1,3.32,2.4h0a1.71,1.71,0,0,1,0,.32c.14,1.72-1.11,3.45-2.33,4.54-1.38,1.23-5.19,2.42-5.5,2.51a49,49,0,0,1,1.61,6.66l.61,4V385c.29-2.17,2.11-6.2,4.52-6.64a2.89,2.89,0,0,1,3.32,2.4h0a1.6,1.6,0,0,1,0,.31c.14,1.73-1.11,3.46-2.33,4.55s-4.48,2.18-5.34,2.46l.2,1.53.92,7.32.43,2.51v-1.09c.28-2.17,2.1-6.2,4.51-6.65a2.89,2.89,0,0,1,3.32,2.4h0a1.71,1.71,0,0,1,0,.32c.14,1.73-1.11,3.46-2.33,4.55s-4.16,2.07-5.18,2.41l.57,2.5.46,1.64.52,1.61,1.12,3,.79,2-.36-2.64A11.36,11.36,0,0,1,423.1,404v-.64a2.89,2.89,0,0,1,3.22-2.52h0l.33.06c2.37.63,3.87,4.79,4,7,0,.13-.08,1.54-.15,2.43l.36-1.55.82-3.2.49-1.63c.16-.55.38-1.1.58-1.65l1.57-3.83c-.92-.22-4.16-1-5.47-2s-2.67-2.63-2.66-4.36a2.91,2.91,0,0,1,2.81-3h.33c2.43.27,4.55,4.15,5,6.29,0,.14.18,1.71.24,2.58l1.07-2.29,3.42-6.57,1.05-2c-.33-.07-4.21-1-5.67-2.09-1.3-1-2.67-2.63-2.66-4.36a2.9,2.9,0,0,1,2.79-3h.34c2.44.26,4.56,4.15,5,6.29,0,.16.24,2.43.26,3l2.2-4.45a49.35,49.35,0,0,0,2.4-6.18c-.16,0-4.21-1-5.7-2.1-1.3-1-2.68-2.63-2.67-4.36a2.91,2.91,0,0,1,2.81-3h.33c2.44.26,4.55,4.15,5,6.29,0,.17.26,2.61.27,3a1.9,1.9,0,0,1,.12-.36,36.34,36.34,0,0,0,1.24-6.53l.24-3.53c-.77-.1-4.3-.57-5.76-1.45s-2.95-2.32-3.12-4A2.9,2.9,0,0,1,440,357.1h.32c2.46,0,5,3.62,5.66,5.7,0,.12.29,1.31.45,2.18v-1.54l-.24-5.06L446,356c-.71-.49-3.55-2.49-4.42-3.92s-1.55-3.42-.91-5a2.92,2.92,0,0,1,3.71-1.77l.29.13c2.18,1.13,2.75,5.51,2.39,7.67a29.39,29.39,0,0,1-.89,3h0l.28,2.25.34,5.06a48.09,48.09,0,0,1-.14,6,37.32,37.32,0,0,1-1.11,6.63v.08l1.63-2.38c1.43-1.66,5.17-4,7.43-3.06a2.88,2.88,0,0,1,1.44,3.82v0a1.91,1.91,0,0,1-.15.28c-.83,1.45-2.83,2.2-4.43,2.44Z" style="fill:#263238"/><path d="M409.34,365.77l-.81-3c-.3-2.17.39-6.54,2.6-7.61a2.91,2.91,0,0,1,3.85,1.46h0a1.33,1.33,0,0,1,.1.28c.59,1.63-.16,3.63-1.05,5-1,1.56-4.69,3.85-4.69,3.86Zm70,25.29a13,13,0,0,1-3.63.4l.6-1.79c.57-1.18,2.35-3.13,3.81-2.93a1.71,1.71,0,0,1,1.44,1.94v.06a.6.6,0,0,1,0,.19A3.61,3.61,0,0,1,479.32,391.06Z" style="fill:#263238"/><path d="M478.43,398.51a12.38,12.38,0,0,1-3.57-.56,29.48,29.48,0,0,1-1.39,3.85l-1,2.19.43-.62c.86-1,3.09-2.4,4.44-1.83a1.73,1.73,0,0,1,.87,2.28v0l-.09.17a3.65,3.65,0,0,1-2.66,1.5A11.86,11.86,0,0,1,472,405l-.41.83-1.95,4-.61,1.39.37-.53c.86-1,3.09-2.4,4.44-1.83a1.73,1.73,0,0,1,.87,2.28v0l-.09.17a3.66,3.66,0,0,1-2.66,1.49,11.44,11.44,0,0,1-3.38-.5l-.54,1.43a8.29,8.29,0,0,0-.31,1l-.27,1-.44,1.89-.26,1.25.69-1.43c.69-1.11,2.69-2.85,4.11-2.48a1.72,1.72,0,0,1,1.2,2.13c0,.06,0,.12-.07.19a3.62,3.62,0,0,1-2.4,1.88,12,12,0,0,1-3.59,0l-.37,2-.57,3.68h-1l.67-3.84.47-2.18c-.68-.29-1.35-.6-2-.95a12.49,12.49,0,0,1-2.92,1.89l.78,1.85,1.48,3.23h-1L461,422l-.82-2.08a12.3,12.3,0,0,1-3.58.28,3.67,3.67,0,0,1-2.54-1.7,1.75,1.75,0,0,1,.82-2.33L455,416c1.39-.46,3.51,1.11,4.29,2.17,0,.06.47.79.72,1.25l-.33-.89-.64-1.86-.29-1-.26-1-.48-2.43a11.6,11.6,0,0,1-3.4.78,3.71,3.71,0,0,1-2.77-1.29,1.76,1.76,0,0,1,.44-2.43l.15-.09c1.3-.67,3.64.57,4.56,1.49.06.06.65.8,1,1.21l-.22-1.49-.46-4.41c0-.45-.1-.9-.14-1.35a12.9,12.9,0,0,1-3.52.83,3.69,3.69,0,0,1-2.76-1.3,1.72,1.72,0,0,1,.4-2.4h0l.18-.11c1.3-.67,3.64.56,4.57,1.49.07.07.92,1.13,1.12,1.41l-.37-2.94a27,27,0,0,0-.85-3.87,12.28,12.28,0,0,1-3.53.83,3.69,3.69,0,0,1-2.77-1.3,1.74,1.74,0,0,1,.43-2.41l.16-.1c1.3-.67,3.64.56,4.56,1.49.08.07,1,1.21,1.14,1.43l-.06-.22a21.06,21.06,0,0,0-1.53-3.67c-.33-.65-.69-1.25-1-1.83A12.74,12.74,0,0,1,450,393.2a3.71,3.71,0,0,1-2.89-1,1.74,1.74,0,0,1,.16-2.44l.15-.12c1.22-.81,3.68.16,4.7,1a10.31,10.31,0,0,1,.94.93l-.49-.77-1.79-2.45-.89-1.09a12.23,12.23,0,0,1-3.5-.49,3.69,3.69,0,0,1-2.11-2.21,1.74,1.74,0,0,1,1.27-2.1h.18c1.46-.16,3.19,1.84,3.72,3,.05.11.58,1.81.56,1.81h0l.88,1,1.85,2.42a27.65,27.65,0,0,1,1.91,3,21.24,21.24,0,0,1,1.63,3.68h0v-1.72c.17-1.3,1.26-3.71,2.7-4a1.72,1.72,0,0,1,2,1.39v0a.67.67,0,0,1,0,.2,3.62,3.62,0,0,1-1.39,2.71,12.28,12.28,0,0,1-3.29,1.51,27.21,27.21,0,0,1,1,4l.37,2.38v-.75c.16-1.3,1.25-3.71,2.69-4a1.72,1.72,0,0,1,2,1.39v0a.67.67,0,0,1,0,.2,3.61,3.61,0,0,1-1.39,2.72,12,12,0,0,1-3.19,1.47l.12.92.55,4.37.26,1.5v-.65c.16-1.3,1.25-3.71,2.69-4a1.73,1.73,0,0,1,2,1.43v.2a3.64,3.64,0,0,1-1.4,2.71,11,11,0,0,1-3.09,1.44l.34,1.5.27,1,.31,1,.67,1.82.48,1.18-.22-1.57a6.84,6.84,0,0,1,.9-3.28,2.41,2.41,0,0,1,0-.38,1.73,1.73,0,0,1,1.93-1.51h.19c1.42.37,2.31,2.86,2.38,4.17,0,.07-.05.92-.09,1.45l.22-.93.49-1.91.29-1c.1-.35.23-.66.35-1l.94-2.28a12.43,12.43,0,0,1-3.27-1.23,3.6,3.6,0,0,1-1.59-2.6,1.73,1.73,0,0,1,1.67-1.79h.2c1.46.16,2.72,2.48,3,3.76,0,.08.1,1,.14,1.54l.64-1.36,2-3.93.63-1.2a13.32,13.32,0,0,1-3.39-1.26,3.7,3.7,0,0,1-1.59-2.6,1.75,1.75,0,0,1,1.71-1.79h.17c1.45.16,2.72,2.48,3,3.76,0,.1.15,1.46.16,1.8l1.32-2.66a33.08,33.08,0,0,0,1.43-3.69,12.61,12.61,0,0,1-3.41-1.26,3.68,3.68,0,0,1-1.59-2.6,1.73,1.73,0,0,1,1.67-1.79h.2c1.46.16,2.72,2.48,3,3.76,0,.1.15,1.56.15,1.83,0-.08.06-.15.08-.22a22.66,22.66,0,0,0,.74-3.91l.14-2.11a11.74,11.74,0,0,1-3.44-.86,3.72,3.72,0,0,1-1.87-2.42,1.74,1.74,0,0,1,1.44-2h.23c1.47,0,3,2.17,3.38,3.41,0,.07.17.79.27,1.31v-.92l-.14-3a9.35,9.35,0,0,0-.14-1.4,12.28,12.28,0,0,1-2.64-2.34,3.68,3.68,0,0,1-.55-3,1.75,1.75,0,0,1,2.22-1.08l.17.08c1.3.68,1.64,3.3,1.43,4.59,0,.11-.51,1.82-.53,1.81h0l.17,1.34.2,3a28.85,28.85,0,0,1-.08,3.6,21.7,21.7,0,0,1-.67,4v.05l1-1.42c.86-1,3.09-2.4,4.44-1.83a1.71,1.71,0,0,1,.87,2.27v0a.7.7,0,0,1-.09.17A3.64,3.64,0,0,1,478.43,398.51Z" style="fill:#263238"/><path d="M453.29,391.62l-.48-1.82c-.18-1.3.23-3.91,1.55-4.55a1.74,1.74,0,0,1,2.3.87h0l.06.17a3.58,3.58,0,0,1-.63,3,12.28,12.28,0,0,1-2.8,2.32Z" style="fill:#263238"/><path d="M440.72,56.75c-1.48-7.46-9.15-10.32-14.84-12.82-7.13-3.12-11.13-5.94-14.78-11a70.37,70.37,0,0,1-5.22-8.81C400,12.66,389.94,4.25,378.8,1.41c-9-2.3-19.54-.43-25.36,8-4.87,7-7,18.59-14.63,19.82-3.69.6-7.22-1.73-10.46-3.9-4.58-3-9.35-6-14.55-7s-10.93-.08-14.91,4c-5.87,6-7.72,18-15.37,19.74-6.56,1.47-12.8-6.28-19.31-4.55-5.39,1.43-8,8.4-11.56,13.34a22.86,22.86,0,0,1-6.3,5.94Zm-6.5,33.33c-.58-3-3.61-4.08-5.86-5.07a12.8,12.8,0,0,1-5.85-4.33,32.13,32.13,0,0,1-2.06-3.48,17.2,17.2,0,0,0-10.7-9c-3.56-.91-7.73-.17-10,3.15-1.92,2.78-2.77,7.35-5.78,7.84-1.46.23-2.85-.69-4.14-1.55a16.7,16.7,0,0,0-5.75-2.79,6.33,6.33,0,0,0-5.89,1.58c-2.32,2.38-3.06,7.13-6.08,7.81-2.59.58-5.06-2.49-7.63-1.8-2.13.56-3.16,3.32-4.57,5.27a9,9,0,0,1-2.49,2.35ZM174.49,85.25c-.58-3-3.62-4.07-5.87-5.06a12.85,12.85,0,0,1-5.84-4.34,27.68,27.68,0,0,1-2.06-3.48,17.19,17.19,0,0,0-10.71-9c-3.56-.91-7.72-.17-10,3.15-1.93,2.78-2.77,7.35-5.79,7.84-1.45.24-2.85-.69-4.13-1.54A16.5,16.5,0,0,0,124.34,70a6.27,6.27,0,0,0-5.89,1.58c-2.33,2.37-3.06,7.12-6.08,7.8-2.59.58-5.06-2.48-7.64-1.8-2.12.57-3.15,3.32-4.56,5.28a9.45,9.45,0,0,1-2.5,2.34ZM153.28,223.51c-1-5-6.12-6.91-9.93-8.58-4.78-2.09-7.45-4-9.9-7.34a48.64,48.64,0,0,1-3.49-5.9c-4-7.67-10.67-13.3-18.12-15.2-6-1.54-13.08-.28-17,5.34-3.26,4.7-4.68,12.44-9.79,13.26-2.47.4-4.83-1.16-7-2.6-3.07-2.05-6.26-4-9.74-4.73a10.68,10.68,0,0,0-10,2.68c-3.93,4-5.17,12.06-10.28,13.21-4.39,1-8.58-4.21-12.93-3.05-3.61,1-5.34,5.63-7.74,8.93a15.28,15.28,0,0,1-4.21,4Zm9.09,30.74c-.4-2-2.42-2.73-3.93-3.39a8.43,8.43,0,0,1-3.91-2.9,17.62,17.62,0,0,1-1.38-2.33,11.56,11.56,0,0,0-7.17-6,6.12,6.12,0,0,0-6.71,2.11c-1.29,1.86-1.85,4.92-3.87,5.25a4.27,4.27,0,0,1-2.77-1,11.22,11.22,0,0,0-3.84-1.86,4.2,4.2,0,0,0-3.95,1.05c-1.55,1.59-2,4.77-4.07,5.23-1.73.38-3.38-1.67-5.11-1.21-1.42.38-2.11,2.23-3,3.53A6.06,6.06,0,0,1,111,254.3Z" style="fill:none;stroke:#263238;stroke-linejoin:round"/><path d="M349.26,309.28s-41.54-47.66-47-55.91-29.28,0-39.92.89-20.4,16-24.84,19.51-8,22.18-8,22.18-6.21,6.21-8.87,8-3.55,22.18-2.67,25.73,54.12,27.5,60.33,29.27,48.79-2.66,55.88-2.66,29.28-13.3,27.5-25.72-12.41-21.29-12.41-21.29Z" style="fill:#fff;stroke:#263238;stroke-linejoin:round"/><path d="M360.06,338.23a124,124,0,0,0-1.23-16.56,42.18,42.18,0,0,0-9.57-12.39s-41.54-47.66-47-55.91c-1.17-1.78-3.2-2.78-5.76-3.26-2.18,1.41-4.51,3.35-4.55,5.24-.09,3.58-1.76,27.93-1.76,31.29s1.67,21,1.67,21,5,14.27,8.4,15.11,38.62,21.83,44.5,21.83c2.85,0,6.06,1.32,8.82,1.56a30.1,30.1,0,0,0,6.48-7.91ZM484.55,455l-11.83-23.67-15-24-12-14s-28-16-32-16-35-8-35-8l-35,29-112.44-19.9s-25.56,9.9-28.56,11.9-47,14-52,15-70,49-70,49l54.13.67Z" style="fill:#263238;stroke:#263238;stroke-linejoin:round"/><path d="M430.59,410.32l-6,8.37-18,3.32,16.59,13.27,8.52,4.74-19-1.65-36-27.73,25.59-4.74" style="fill:#263238;stroke:#263238;stroke-linejoin:round"/><path d="M163.62,328.47S151.44,314.6,147,314.6s-17.75,3.55-21.29,5.32-12.42,23.95-15.08,25.73-26.62,23.06-31,27.5S62.72,384.68,62.72,390s8,10.65,8,10.65H155s25.73-24.84,27.5-33.71S163.62,328.47,163.62,328.47Z" style="fill:#fff;stroke:#263238;stroke-linejoin:round"/><path d="M280,339.19s-62.84-22.44-68.18-24.82-41.72,6.47-41.72,6.47-30.16,14.19-34.6,20.4-3.54,10.65-.88,14.19,107.34,36.38,118,37.26,39-5.32,46.13-19.51S280,339.19,280,339.19Z" style="fill:#fff;stroke:#263238;stroke-linejoin:round"/><path d="M224.31,357l-4.42,3.09s-19.42-7.94-18.09-4.41,29.57,26,30,30,.77,7.39,6.57,9.65,12.41,4.92,16.83,2.27,9.27-3.09,9.27-8.39-2.21-16.77-2.21-16.77S227.4,355.66,224.31,357Z" style="fill:#263238;stroke:#263238;stroke-linejoin:round"/><path d="M225.61,365.63,253.09,386l2.85,2.37,9.47-6.16Z" style="fill:#263238;stroke:#263238;stroke-linejoin:round"/><path d="M372.33,363.37c-3,8.34-5.32,17.74-13.31,23.06s-30.16,16-37.26,16-57.66-14.19-63.87-18.63-27.5-12.42-33.71-19.51.89-23.07.89-23.07,20.4-15.08,26.51-14.88,52.44-4.64,59.54-2.86,59.43,22.18,59.43,22.18a21,21,0,0,1,1.78,17.71Zm-141,15.1-28.39-26.61c-5.33-4.43-31.89-2.67-37.25-.86s-20.41,12.4-23.92,16.85-13.3,26.62-13.3,26.62l9.76,14.19s36.37,3.55,49.67,3.55,37.26-.89,37.26-.89,9.76-8,13.31-16-7.14-16.85-7.14-16.85Z" style="fill:#fff;stroke:#263238;stroke-linejoin:round"/><path d="M202.65,370.57c9,12.57,18.07,16.5,15.71,20s-9.43,1.57-13.75,1.17-8.25,7.47-10.61,11a102.36,102.36,0,0,0-5.48,9.4c13.43,0,36.55-.89,36.55-.89s9.76-8,13.31-16-7.1-16.85-7.1-16.85l-28.39-26.61c0,.07-9.28,6.21-.24,18.78Z" style="fill:#263238;stroke:#263238;stroke-linejoin:round"/><path d="M115.72,400.37l22-19,18-3s37-4,41,1,15,20,15,20l-8,19s-1,11-8,15-39,16-39,16h-25s-17-11-17-17S115.72,400.37,115.72,400.37Z" style="fill:#fff;stroke:#263238;stroke-linejoin:round"/><path d="M211.72,399.37l-15-20a3.54,3.54,0,0,0-1.47-1l-.1.57-.39,2s.79,18.41,2.35,22.33,5.09,10.18,2.35,12.92-8.22,8.62-12.14,12.14-14.1,6.66-18,7.05-7.44-2-14.49-2.35-9.4-.39-12.53.79a63.1,63.1,0,0,0-8.62,4.7s-5.48-3.14-6.66-7.45-4.31-8.22-5.48-8.22-2.35,9.79-2.74,14.49a9.51,9.51,0,0,1-.27,1.49c5,5.23,13.19,10.54,13.19,10.54h25s32-12,39-16,8-15,8-15Z" style="fill:#263238;stroke:#263238;stroke-linejoin:round"/><path d="M120,454.53l.72-4.16v-11c0-3,8-23,8-29s-13-21-16-23-15-9-18-9-17,2-25,6-22,17-29,23S.39,455.7.39,455.7m373.33-48.33c-2.09-2.09-6.47-5.77-10.84-9.33a94.48,94.48,0,0,0-8-6.39l-4.16-3.28h-.46l-5.43-3.67c-5.32-3.55-23.95-16-31.05-15.08s-39.92,1.77-42.58,6.21-56.77,35.48-56.77,35.48h.76l-6.47,3.06-13,19s13,9,16,9S231.41,441,238.41,440c6.29-.9,49.11,8.62,57.72,10.55a22.74,22.74,0,0,0,3.07.46l53.43,4.11a21.26,21.26,0,0,0,12.33-2.8l13.76-8s7-4,11-7,4-10,4-13-15-11.95-20-16.95Z" style="fill:#fff;stroke:#263238;stroke-linejoin:round"/><path d="M373.72,407.37l-3.05-2.8-3.86,2.8s4.27,9,7.11,10.43,7.11,7.1,7.11,7.1,1.89,6.64-1.43,10.43-22.27,9.95-28.42,10.9a128.17,128.17,0,0,1-15.17.94s8.53-1.89,16.59-3.31,14.69-3.32,16.58-5.22,3.79-5.21,2.37-4.73a106.42,106.42,0,0,1-11.37,3.31c-6.16,1.42-14.69,2.85-20.38,2.85s-16.58.94-19.9.94-44.54-6.16-46.91-6.63a19.93,19.93,0,0,1-4.26-1.42s-2.84,2.84,4.26,4.26,6.64,3.32,21.33,5.22,29.37,4.73,27,5.21-9,.94-19-1-16.11-1.42-21.79-3.79a129.32,129.32,0,0,0-16.59-5.69c-8-2.37-11.84-3.31-20.85-3.79s-12.32-.47-16.11-.47-7.58,5.21-12.79,6.16c-2,.37-4.87.81-7.56,1.21,2.19,1.21,4.1,2.09,5,2.09,3,0,19.69-1.35,26.69-2.35,6.29-.9,49.11,8.62,57.72,10.55a22.74,22.74,0,0,0,3.07.46l53.43,4.11a21.26,21.26,0,0,0,12.33-2.8l13.85-8s7-4,11-7,4-10,4-13-15-12-20-17Z" style="fill:#263238;stroke:#263238;stroke-linejoin:round"/><path d="M336.72,285.18s-10,9-10,13,6,21,6,24,15,43,18,53,7,20,9,23,7,11,7,11l8.55,6.24a38.78,38.78,0,0,0,20.56,7.37l13.48.78a24.05,24.05,0,0,0,21.51-10.81L438,401.88a23.8,23.8,0,0,0,4-14.13c-.22-4.57-1.8-8.07-8.26-16.57-4.23-5.58-56-59-62-65s-29-25-35-21Z" style="fill:#fff;stroke:#263238;stroke-linejoin:round"/><path d="M393.72,424.37c8,6,14,15,25,15,10,0,25,0,26.47,13.18m-88.19-24-4.9,2c-2.84.95-12.32,2.37-26.53,2.37H291m75.34-8.54-4.43,2m-18.19-4.17a119.46,119.46,0,0,0,12.19-5.83l-4.73-4.26m-92.41,14.26,9.49-.1c6.63,0,47.38,1.42,59.22.47a47.64,47.64,0,0,0,11-2.54m-99.13,2.55,8.53-.17M374.2,400.43l-6.44-5.9m53.78-25q2.26,4.79,5,9.33c2.4,3.79,4.63,13,2.43,17.52s-6.69,12.33-13.33,14.7S401,415.85,397.17,414s-18-8.06-19.43-9.95" style="fill:none;stroke:#263238;stroke-linejoin:round"/><path d="M432.84,402.29c-2.54,3.14-2.83,5-5.76,7.14s-18.57,5.47-18.57,5.47l-14.22,2.85L381,411.59l-17-9.48s9.47,9,12.32,11.37,8.53,5.21,10.42,6.16,11.37,2.84,14.22,2.84c2.54,0,10.36.38,15.38.46a24,24,0,0,0,14.52-10.18L438,401.88a23.8,23.8,0,0,0,4-14.13c-.22-4.57-1.8-8.07-8.26-16.57l.36,10.08s1.27,17.89-1.26,21Z" style="fill:#263238;stroke:#263238;stroke-linejoin:round"/><path d="M230,356.24s-1.17,2.35,2.35,5.49,13.71,7.83,13.71,7.83m3.54,1.57,6.66,3.13m-20-5.09,22.33,10.57" style="fill:none;stroke:#263238;stroke-linejoin:round"/><path d="M416,389.69s-42.24,40-42.24,42,5,12.68,5,12.68,19.67,4.67,23,4.67,13.33-2,17.33-5.34,16-4,18-13.33,8-12.42,4.68-21.87S434.2,382.37,416,389.69Z" style="fill:#fff;stroke:#263238;stroke-linejoin:round"/><path d="M435.72,405c-.48,6.3,2.1,13.64-.39,19.69-3,7.19-11.61,9.64-17.61,13.64m12.41-17.25c-5,6.08-10.34,11.67-17.74,14.62m-30.67,6.67L398.39,445c4.67.67,15.33-2,15.33-2" style="fill:none;stroke:#263238;stroke-linejoin:round"/><path d="M120,454.53l.72-4.16v-11c0-3,8-23,8-29,0-3.19-3.68-8.93-7.57-13.9.3,2.48,1.24,10.33,1.24,12.57,0,2.66-6.67,16-10.67,16.66s-20.67-2-20.67-2-18-1.33-22,5.34-11.33,18-11.33,18l-11,8Z" style="fill:#263238;stroke:#263238;stroke-linejoin:round"/><path d="M143.24,425.37l-6.33,4.41m53.41-15.41L174,422.32l-14.13.44c-1.92,0-6.16-.93-10.19-.26m-31-15.86a38.37,38.37,0,0,0,.55-4.64M95.86,420.54s11,1.77,14.13,0,6.62-7.94,7.5-9.27a5.28,5.28,0,0,0,.57-1.52m-28,6.74-6.16.08c-6.62,0-12.36.44-14.56,3.53s-4.42,11-4.86,13.69a43.81,43.81,0,0,0-.44,5.73m38.4-23.39-5.76.24" style="fill:none;stroke:#263238;stroke-linejoin:round"/><path d="M159.06,339.5l38.83,3.87c4.75,0,14.23.43,16.39-.43s9.06-6,9.06-6L235,335.21a36.46,36.46,0,0,1,5.61-2.58c1.72-.44,12.08.86,12.08.86l18.12,1.72s15.1-12.08,17.25-14.66-3-33.66-3-35.81,4.32-15.53,5.18-19S292,255.37,292,255.37l-38.4,4.75s-9.06,15.1-10.79,19a17.45,17.45,0,0,0-1.72,8.2,78.66,78.66,0,0,1-.86,9.06c-.43,3-4.75,6.47-6.47,7.33S223.34,308,223.34,308s-1.72,7.34-1.72,9.5a18.68,18.68,0,0,0,.86,4.74L213,327.42c-2.15,1.3-9.93,3.45-15.53,4.31s-18.56,1.73-23.3,3-15.1,4.77-15.1,4.77Z" style="fill:#263238"/><path d="M204,94.37a26.34,26.34,0,0,0-5.92,10.32c-1.72,6.11,1.91,8.78,4.77,11.07s2.49,3.63,1,6.11a3.65,3.65,0,0,0,1.1,5c.2.12.41.22.62.32,1.52.57,3.82.38,3,3.44s-1.33,4.77.57,5.35,5.54,1.71,4.59,4-.38,5.34,1,5.53,3.06-1.33,3.06.77-2.68,3.82.19,5.54,4.58,1.33,4.39,2.29-1.34,2.1-.76,3.63,2.67,1.33,2.86,2.29-1,1.72-.57,3.63,1.14,2.1,3,2.48,1.91.38,1.91,1.91-.38,1.72,1.72,1.91,4.2-.38,6.88-2.48S243,155.06,244,150.86s2.87-10.12.19-17.57-14.89-31.13-18.71-35.52a19.65,19.65,0,0,0-13.75-6.3c-3.83,0-7.68,2.9-7.68,2.9Z" style="fill:#263238;stroke:#263238;stroke-miterlimit:10"/><path d="M232.41,192.62s.32,1.29-2.09,2.74-3.22.64-3.38,2.73-.16,2.74-.48,3.22-4.35,2.58-6.12,3.22a11.35,11.35,0,0,0-3.22,1.93l-.32,6.44a32.45,32.45,0,0,0,7.73-1,46.25,46.25,0,0,1,6.76-1.45s1.6,1.13,3.37-6.27.17-13.33-2.25-11.56Z" style="fill:gray;stroke:#263238;stroke-linejoin:round"/><path d="M224.72,207.91c.2-2.85-.95-4-1.82-4.51-.82.42-1.67.79-2.53,1.13a11.35,11.35,0,0,0-3.22,1.93l-.32,6.44a35,35,0,0,0,7-.77,14.92,14.92,0,0,0,.89-4.22Z" style="fill:#a8a8a8;stroke:#263238;stroke-linejoin:round"/><path d="M230.57,184.49s2.1,11.65-1.14,17.19-1.53,12.41.19,14.7,3.82,1.91,5,.38,4-9.54,3.44-20.43-6.34-15.28-7.49-11.84Z" style="fill:gray;stroke:#263238;stroke-linejoin:round"/><path d="M238.59,144.2s-10.31,27.88-10.12,35.33,6.88,14.32,7.26,15.66-.38,11.26-1.53,14.51l-3.44,9.36a33.51,33.51,0,0,0,15.85,5.31,48.7,48.7,0,0,0,16.05-2.1l3.81-2.48s-5.53-14.13-9-25.78-5-36.86-4.58-45.64.76-11.84-2.49-12S240.12,141.52,238.59,144.2Z" style="fill:#b5eaea;stroke:#263238;stroke-miterlimit:10"/><path d="M233,219.88s-20.84.89-35.26,6.21-21.73,7.76-22,15.52,11.09,36.15,11.09,36.15l12.41,34.82a7.3,7.3,0,0,1-.22,4.66c-.44.66,1.56,5.54,6.21,5.54s8-3.55,8.65-8.43-2.44-8.87-4-16.85-4.44-25.95-4.44-32.38-2.21-14.64-2.21-14.64l26.39,8.65c9.32,2.88,36.81,2.22,41.91,1.33s4.66-7.54.23-17.3-18.41-16.41-23.29-18.62S233,219.88,233,219.88Z" style="fill:#a8a8a8;stroke:#263238;stroke-linejoin:round"/><path d="M248.48,224.54c-4.88-2.22-15.53-4.66-15.53-4.66s-20.84.89-35.26,6.21-21.73,7.76-21.95,15.52,11.09,36.15,11.09,36.15l9.81,27.2a23.81,23.81,0,0,0,13.3-7.25,1.6,1.6,0,0,1-.05-.21c-1.53-7.85-4.44-25.95-4.44-32.38s-2.21-14.64-2.21-14.64l26.39,8.65c9.32,2.88,36.81,2.22,41.91,1.33s4.66-7.54.23-17.3-18.41-16.41-23.29-18.62Z" style="fill:#263238;stroke:#263238;stroke-miterlimit:10"/><path d="M199.72,317.57s-.6-2-1.61-.4-1,4.23-1.82,5-2.62,4.44-7.06,6.66-8.47,3.43-8.88,5,2.43,3,6.86,3.23,13.32.4,17.15-.6,6.06-3.43,10.29-4.85,7.06-1.61,7.87-3.43-2.82-11.29-4.44-13.11-2.42-4.44-4-4.44-2,2-2.22,3.63-.41,3.84-4.44,4.84-7.7-1.53-7.7-1.53Z" style="fill:#fff;stroke:#263238;stroke-linejoin:round"/><path d="M199.48,334.92c-6.36,1.47-15.76-.36-19.12-1.11v.1c-.4,1.62,2.43,3,6.86,3.23s13.32.4,17.15-.6,6.06-3.43,10.29-4.85,7.06-1.61,7.87-3.43c.27-.6,0-2.05-.43-3.78-1.35.53-2.69,1.12-4,1.77-4.29,2-10.75,6.86-18.62,8.67Z" style="fill:#b5eaea;stroke:#263238;stroke-miterlimit:10"/><path d="M239.39,220.1l-29.06,7.32c-10.87,2.66-18.18,4.88-18.85,12.64s-8.2,61.87-9.53,65.64-4,14.42-4,17.08a6.25,6.25,0,0,0,6,6.21c4.22.44,6.43-1.55,7.1-3.55s2.66-7.54,5.1-15.52,12-22,14.42-33.49A81.55,81.55,0,0,0,211.9,254a130.64,130.64,0,0,1,18,4.22c9.09,2.88,34.37,3.54,48.57,2.43s18.18-9.09,18.41-15.52-6.21-17.52-10-21.29-10.65-4.66-23.29-4.88a203.8,203.8,0,0,0-24.2,1.14Z" style="fill:#a8a8a8;stroke:#263238;stroke-linejoin:round"/><path d="M296.83,245.16c.22-6.43-6.21-17.52-10-21.29s-10.65-4.66-23.29-4.88a203.28,203.28,0,0,0-24.17,1.11l-29.06,7.32c-10.87,2.66-18.18,4.88-18.85,12.64s-8.2,61.87-9.53,65.64c-.27.76-.59,1.79-.93,3a30.84,30.84,0,0,0,14.27,4l.85-2.75c2.44-8,12-22,14.42-33.49a81.73,81.73,0,0,0,1.33-22.4,130.64,130.64,0,0,1,18,4.22c9.09,2.88,34.37,3.54,48.57,2.43s18.16-9.12,18.39-15.55Z" style="fill:#263238;stroke:#263238;stroke-miterlimit:10"/><path d="M177.72,318.79s-.47-.69-2.34,1.39a34.34,34.34,0,0,1-11.71,8.29c-5.63,2.3-11.72,3-13.36,4.83s-.46,4.38,0,5.07,16.4,2.3,24.36,2.3,17.57-.23,19.21-.92,1.87-5.07,1.64-7.83-1.4-4.38-1.4-5.76.7-3.68,0-4.6-3.75,1.84-5.39,3-7.5.92-8.67-.23-1.45-5.54-2.34-5.54Z" style="fill:#fff;stroke:#263238;stroke-linejoin:round"/><path d="M176.26,337.68c-9.67,0-21.9-1.26-26.83-1.82a5.74,5.74,0,0,0,.83,2.51c.47.69,16.4,2.3,24.36,2.3s17.57-.23,19.21-.92c.89-.38,1.37-1.84,1.58-3.54a133.44,133.44,0,0,1-19.15,1.47Z" style="fill:#b5eaea;stroke:#263238;stroke-miterlimit:10"/><path d="M210.33,100.27s-4,5.73-3.63,10.13,1.91,5.53,3.06,6.87a7.64,7.64,0,0,1,1.91,6.68c-.58,3.25-1.53,3.82-1,5.16s4.39,1.72,4.39,1.72c2.11,2.4,4.35,4.69,6.69,6.87,2.1,1.72,4,2.68,6.11,1.34a39.56,39.56,0,0,0,4.77-3.44c.58-.57,5,5.73,5.73,9.74s-2.29,8.41-.57,9,4.58-4.39,6.49-9.36,3.82-5.92,3.82-5.92-10.88-22.34-17.95-31.7S216,96.86,213.54,97.62A5.14,5.14,0,0,0,210.33,100.27Z" style="fill:#a8a8a8;stroke:#263238;stroke-linejoin:round"/><path d="M220.45,130.45s3.63-1,4-3.82" style="fill:none;stroke:#263238;stroke-linecap:round;stroke-linejoin:round"/><path d="M211.48,117.27s2.48,4,4.39,4.39,5.15-.76,5.73-3.43-1.15-5.54-1.15-5.54S214.72,113.83,211.48,117.27Z" style="fill:none;stroke:#263238;stroke-linejoin:round"/><path d="M211.48,117.27l-3.06,2.29a4.52,4.52,0,0,0,2.87,2.68m9.16-9.55,10.31-4" style="fill:none;stroke:#263238;stroke-linecap:round;stroke-linejoin:round"/><path d="M217.91,118.61c.49,1,.6,1.87.24,2.06s-1.05-.43-1.54-1.38-.61-1.88-.25-2.06,1,.43,1.55,1.38Z" style="fill:#263238"/><path d="M211.86,114.6a4.46,4.46,0,0,1,4.39-2.49" style="fill:none;stroke:#263238;stroke-linecap:round;stroke-linejoin:round"/><path d="M210.33,98.75a2.55,2.55,0,0,0,1.9,3h0c2.48.77,5.16-.19,4.77,2.68s-2.1,4.2,1.34,4.77,4.78,0,4.78,3.82-2.49,5.16,1.52,6.11,6.11.38,5.54,4.58-2.86,5.73.19,6.88,5.35-.57,5.35,2.67,0,5.16,1.91,5.54,3.44-2.1,3.82.57.57,4,2.1,4.2,1.91-1.52,4-1,10.31-3.44,12.79-6.11,6.69-2.1,9.93,2.29,9.93,18.71,10.32,21.58,1,3.44,3.24.19,4.2-6.49,2.29-9.74-3.24-2.67-1.91-6.3,4-5.16,1.34-8.4-3.44-2.49-2.86-6.88,1.52-5-1.34-6.68-3.82-1.91-3.82-4.78,1.34-4.77-1.34-6.3-3.43-1.14-3.43-3.63.57-3.43-1.34-4.77-3.63-2.29-3.63-4.77,0-2.68-1.72-4A7.41,7.41,0,0,1,263,89.6c-.19-1.72-1.15-3.44-2.49-3.82s-2.29.77-3.24-1.53-1.53-3.43-3.25-3.62A7.27,7.27,0,0,1,249.28,78c-1.15-1.53-1.91-2.29-3.44-1.72s-5.16.77-6.68-.57-4-2.1-5.92-.57a5.77,5.77,0,0,1-5.52,1.28c-1.72-.57-3.44-.57-4.58.58s-1,1.91-3.25,1.33-4.39-.57-5.54,1.15a8.52,8.52,0,0,1-3.63,3.06c-1.14.57-3.82,1.14-4.2,3.24s-.19,3.06-1.14,3.82-2.49,2.67-2.49,4,2.29,3.82,4.59,4.2" style="fill:#263238;stroke:#263238;stroke-miterlimit:10"/><path d="M246.42,144.37s-.95,26.16-1.72,39.34,3.25,17.95,5.73,21.19,25.78,34,27.12,37.24,2.67,9,3.25,9.55,6.3-.19,10.5-1.34S298,245,298,245s1.15-5.16-1.71-13.37-6.5-13.56-6.88-19.29-3.25-25.4-4.2-34.56a173,173,0,0,0-5.54-26.55c-1.72-5.92-3.44-10.12-6.3-12.79a28,28,0,0,0-6.49-4.39Z" style="fill:gray;stroke:#263238;stroke-linejoin:round"/><path d="M283.85,231.85l-3.05,19.86-5.54-11.46S282.13,232,283.85,231.85Z" style="fill:#575757;stroke:#263238;stroke-linejoin:round"/><path d="M249.86,204.16s17.76,15.47,25.21,20.82,8.78,6.87,8.78,6.87-10.13,15.09-10.69,15.09-4-8.21-7.83-14.52-15.09-25.2-15.47-28.26Zm15.28-76-20.82,13,2.68,7.07,22.34-14.71-4.2-5.34Z" style="fill:gray;stroke:#263238;stroke-linejoin:round"/><path d="M187.35,225.13,209.56,233l32.83-13-20.8-6.23-34.24,11.38Z" style="fill:#fff;stroke:#263238;stroke-linejoin:round"/><path d="M219.68,224.86l-2.88-.92-3.45,1.39,3,1Zm-6.58-3.16,5.37-2-1.6-.46-5.37,1.94Zm-6.8,1.37,1.67.53,3.61-1.34-1.62-.52ZM203,222l1.73.56,3.67-1.33-1.71-.55L203,222Zm.2,1.11-1.94-.62-2.8.77,2.26.75,2.48-.9Zm13.55-.25,5.28-2.13-2-.57-5.44,2,2.12.68Zm-6.34,2.57-2.43-.78-2.52.94,2.5.83ZM199,226.94l3.49-1.29-1.72-.57-3.52,1.27Zm16.34-3.48-2.19-.7-3.61,1.34,2.35.76Zm-13.05,1.07,1.69.57,2.5-.93-1.69-.55-2.5.91Zm-3,0-2.47-.82-4,1.09,3,1,3.5-1.27ZM212.62,229l-3.25,1.42,1.35.45,3.54-1.32-1.64-.55Zm11-7.85-5.35,2.16,2.82.91,5.23-2.29-2.7-.78Zm-13.65-.51,5.3-1.91-1.74-.51-5.25,1.88Zm12.56,4,2.56.82,5.9-2.22-3.17-.91Zm-11.3,3.85L208,227.5l-3.36,1.36L208,230l3.24-1.41Zm3.79-1.66-3.09-1-2.47,1,3.14,1.05Zm-11-.75-3.49,1.29,2.71.92,3.35-1.36-2.57-.85ZM218.44,228l-2-.65L214,228.44l1.76.59,2.69-1Zm-.63-1.25,2.14.68,3.6-1.35-2.43-.78-3.31,1.45Z" style="fill:#fff;stroke:#263238;stroke-linejoin:round;stroke-width:0.5px"/><path d="M209.56,233l-15.45-35.4-24.46-3.7,13.66,30.51L209.56,233Z" style="fill:#fff;stroke:#263238;stroke-linejoin:round"/><path d="M254.83,156s-3.06,7.83-2.49,14.13,5.92,19.67,6.69,23.49a11.33,11.33,0,0,1-.19,6.11s-1-1.15-1.72,1-3.06,7.83-3.06,7.83l-1.91,1,7.83,14.7,2.48,4.2s5.73-2.86,7.83-4.77,7.64-3.44,9.93-6.3.77-2.87,2.49-7.07,2.67-13.75,1.52-16.61-2.29-3.63-2.29-6.5,2.68-7.82.58-15.46-3.63-19.67-7.07-22.92-6.3-2.67-8.21-2.67" style="fill:gray;stroke:#263238;stroke-linecap:round;stroke-linejoin:round"/><path d="M270.84,210.68a13.55,13.55,0,0,0,2.51,1.5m-12.8-9.36s4.48,3.61,8.19,6.35M265,203s11.65,3.44,11.07,4.59-5.53-1.15-6.49-1.53" style="fill:none;stroke:#263238;stroke-miterlimit:10"/><path d="M245.47,216s-17.95,10.31-19.29,10.31-5.54-3.05-6.87-2.67a51.58,51.58,0,0,0-5.16,2.29c-1.72.76-5-.19-5.16,1.15s1.34,2.29,1.34,2.29-3.82.76-4.58.76-1.72,1.53,0,2.87,4.77,1.52,5.34,1.72,3.82,1.91,6.5,1.91,8.21-2.87,11.84-3.82l22.34-6.12S248.33,216,245.47,216Z" style="fill:#a8a8a8;stroke:#263238;stroke-miterlimit:10"/><path d="M210.33,229.37a16.45,16.45,0,0,0,6.88-.19" style="fill:#fff;stroke:#263238;stroke-miterlimit:10"/><path d="M254.44,207.37s5.92,9.16,9.36,15.27,2.29,6.5,1.34,7.45-8,2.1-10.31,2.48a3.76,3.76,0,0,1-4.5-2.83q-.06-.3-.09-.6c0-2.29-2.86-8.21-4-10.31s-2.86-1.72-2.86-3.44,3.82-4,5.54-5.54,4.19-2.63,5.52-2.48Z" style="fill:gray;stroke:#263238;stroke-linejoin:round"/><path d="M211,201l7.08,3.54c1.77,1.13,4.51,2.25,4.34,3.54s-3.54,5.31-5,5.63-4.51-1.93-6.44-1.93-3.7-5.15-3.06-6.92S209.72,201.15,211,201Zm-6.91,6.91s-1.61,1.45-1.61,2.73.81,5.15,1.77,6,1.45-.32,1.45-1.29-1.45-1.77-.81-3.06,1.45-3.38,1.45-3.38S205.38,207.27,204.09,207.91Z" style="fill:#a8a8a8;stroke:#263238;stroke-linejoin:round"/><path d="M207.31,205.82a3.47,3.47,0,0,0-3.22,1.28c-1.13,1.61-.16,3.38.8,5.15a5,5,0,0,0,3.87,2.58c1.28.16,1.93-.32.8-1.77a17.28,17.28,0,0,1-2.09-4.51A19.23,19.23,0,0,1,207.31,205.82Z" style="fill:#a8a8a8;stroke:#263238;stroke-linejoin:round"/><path d="M209.56,201.79s-3.06,1.77-3.06,3.22a21.4,21.4,0,0,0,1.45,6.6c.81,1.77,3.22,4,3.54,3.22s-.32-2.9-.64-4.51-.81-7.56-.81-7.56a.6.6,0,0,0-.1-.85.53.53,0,0,0-.38-.12Z" style="fill:#a8a8a8;stroke:#263238;stroke-linejoin:round"/><path d="M213.1,203.24s-1.45-2.73-3.22-2.73-.64,1.93-.48,5.63,1,7.4,2.09,8.69,1.77.32,1.45-1.93-.48-5.63-.48-6.12v-1.12m5.15,2.25a7.78,7.78,0,0,1-1.29,3.22c-1,1.12-2.09,3.05-1.29,3.54s1.61,0,2.42-1,2.89-2.73,3.86-4.5a2.71,2.71,0,0,0-1-3.68,2.08,2.08,0,0,0-.43-.19,12.46,12.46,0,0,0-1.93-.16" style="fill:#a8a8a8;stroke:#263238;stroke-linejoin:round"/><path d="M255.35,333.87s10.48,13.24,20.55,13.24,19.31-1.68,26-1.68,23.51-2.52,28.55-5,2.52-5-1.68-7.55-25.19-12.6-25.19-12.6Z" style="fill:#263238;stroke:#263238;stroke-linejoin:round"/><path d="M249.14,276.43a256.1,256.1,0,0,1-14.63,21.07c-8,10.2-12.2,12.2-14,16.85s-.89,9.1.66,10.21,17.3,4.21,21.29,4.43a43.2,43.2,0,0,0,8.65-.66l.44-2s-7.09.22-8.87,0-8.87-5.32-11.31-6.88l-3.55-2.21a203,203,0,0,1,13.53-15.75,106.74,106.74,0,0,0,12.42-16s-1.3-11.28-4.63-9.06Z" style="fill:#a8a8a8;stroke:#263238;stroke-miterlimit:10"/><path d="M227.85,317.24s-2.88,4-2.88,5.54" style="fill:#fff;stroke:#263238;stroke-linejoin:round"/><path d="M284.63,254l-24.84,4.88c-4.66.88-6.65,2.22-9.09,7.76s-3.77,7.76-2.66,13.09,1.55,24.39,1.55,32.6-1.78,13.75-.45,16.41,5.1,4.21,6.21,5.1,10,4,12.64,4.66,6.44,3.55,9.76,3.55,10.87-2.67,16-4.88,12.64-1.78,16.41-3.55,5.55-3.11,4.66-7.76-4.44-7.77-5.1-13.09-.22-13.3-1.33-17.3S304.62,286.85,304,280s.45-16-2-19.3-1.56-2.66-5.77-4.21S288.4,252,284.63,254Z" style="fill:#a8a8a8;stroke:#263238;stroke-miterlimit:10"/><path d="M279.53,264c10-2.22,12.42-3.1,16-4.88s5.11.22,5.11.22l.25-.15c-1.21-1.67-1.26-1.47-4.69-2.73-4.21-1.55-7.76-4.43-11.53-2.44l-24.84,4.88c-4.66.88-6.65,2.22-9.09,7.76s-3.77,7.76-2.66,13.09,1.55,24.39,1.55,32.6-1.78,13.75-.45,16.41,5.1,4.21,6.21,5.1a32.38,32.38,0,0,0,5,2.13.48.48,0,0,0-.09-.58c-1.55-1.77.67-8.87,2-18.4s.89-25.07-.44-29.5-4-9.54-2.22-14.42,9.91-6.86,19.89-9.09Zm-10.65,35.5-1.55,31c-.66,5.5-1.55,6.43-.89,7.54s7.54,3.77,10,3.77,3.33.23,3.55-2.66-2-23.51-1.77-28.38,1.55-9.76-1.11-11.31S271.54,294.17,268.88,299.5Z" style="fill:#fff;stroke:#263238;stroke-miterlimit:10"/><path d="M301.43,285.52l-21.29,7.1c-8.21,2.66-11.09,2.44-11.53,5.1s0,2.66,1.11,3.11a9.06,9.06,0,0,1,4.43,5.54c1.11,3.33,2.22,6,3.77,6s24.4-3.55,28.17-5.1,5.32-2,4.88-4.44-.67-6.65-1.56-11.75-4.41-6.89-8-5.56Z" style="fill:#fff;stroke:#263238;stroke-linejoin:round"/><path d="M283.08,306.59l2,16.64,3.33-1.11L286,305.73l-2.89.86Zm20.24-3.83,3,15.59,2.88-.89-2.88-15.75-3,1.05Z" style="fill:#263238;stroke:#263238;stroke-linejoin:round"/><path d="M266.89,275.54s7.31-1.55,16.19-3.77,17.07-4.88,17.07-4.88v2.48s-10,3.11-15.3,4.22-10.42,1.77-11.31,2-3.55.89-4.88,1.33l-1.33.45Z" style="fill:#fff;stroke:#263238;stroke-linejoin:round"/></svg>