<svg xmlns="http://www.w3.org/2000/svg" xmlns:xlink="http://www.w3.org/1999/xlink" viewBox="0 0 410.76 407.38"><defs><clipPath id="a"><path d="M206.75,262.72c16.47-.65,21.64-16.5,23.26-25.71-6.87-1.9-10.42-5.25-11.47-7.76s-2.11-14.32-1.69-17.05l-23.57-.64s.63,13.9-2.74,19.79c-1.72,3-5.38,4.38-9.47,5,1.56,6.61,7.89,27.08,25.68,26.37Z" style="fill:none"/></clipPath><clipPath id="b"><path d="M204.36,372.88c-4.46-1.61-12.24-5.71-22.9-16.22-17.5-17.28-28.5-31.78-42-37.78s-26.5,7.25-25.75,21.5,11.25,34.25,42.5,45.75a126.76,126.76,0,0,0,36.26,7.49C203.83,388.88,204.89,378.88,204.36,372.88Z" style="fill:none"/></clipPath><clipPath id="c"><path d="M202,372.88c4.45-1.61,12.23-5.71,22.9-16.22,17.5-17.25,28.5-31.75,42-37.75s26.5,7.25,25.75,21.5-11.25,34.25-42.5,45.75a126.83,126.83,0,0,1-36.27,7.49C202.49,388.88,201.44,378.88,202,372.88Z" style="fill:none"/></clipPath></defs><path d="M338.19,25.11S292.3-12.37,232.61,4.25s-84.68,68-118.91,103.39C95.77,126.15,69.29,133,48,147.22c-68.1,45.56-58,148-5.5,186.64C88,367.31,144.75,370.81,218.68,346.14S345.5,306.64,391.34,236s3.38-160-53.15-210.86Z" style="fill:#f6eabe"/><path d="M338.19,25.11S292.3-12.37,232.61,4.25s-84.68,68-118.91,103.39C95.77,126.15,69.29,133,48,147.22c-68.1,45.56-58,148-5.5,186.64C88,367.31,144.75,370.81,218.68,346.14S345.5,306.64,391.34,236s3.38-160-53.15-210.86Z" style="fill:#fff"/><path d="M347,406.88H55l29.2-42h233.6Z" style="fill:#263238;stroke:#263238;stroke-linejoin:round"/><path d="M357.1,350.46s-29.54-45-25.14-55.39,20,7.39,20,7.39-22.9-60.56-7.39-73.86,20.68,54.66,20.68,54.66,14-39.15,25.11-24.38-17,45.79-17,45.79,19.2.74,14,13.3-19.2,25.85-19.2,25.85Z" style="fill:#f6eabe"/><path d="M349,340.12S331.24,315,340.1,309.84s13.29,10.34,13.29,10.34.74-67.94,14.78-62.77S377,303.93,377,303.93s17.72-11.81,17,5.17-24.38,31.78-24.38,31.78m-4.43.72-15.51-17M366,349.72l-.74-42.09m1.48,28.06,14-18.46" style="fill:none;stroke:#263238;stroke-linecap:round;stroke-linejoin:round"/><path d="M379.25,337.17H340.11L344,371.88h31.32l3.91-34.71Z" style="fill:#263238;stroke:#263238;stroke-linejoin:round"/><path d="M43.1,350.46s-29.54-45-25.14-55.39,20,7.39,20,7.39S15,241.88,30.54,228.6s20.68,54.66,20.68,54.66,14-39.15,25.11-24.38-17,45.79-17,45.79,19.2.74,14,13.3-19.2,25.85-19.2,25.85Z" style="fill:#f6eabe"/><path d="M37.11,340.68s-18.36-17.25-18.92-25,11.69,1.67,16.69,5S22.09,299,22.64,280.62s10.57-11.12,13.91-3.33,5,15,6.68,16.69,4.45-12.8,11.68-8.91c11.56,6.23-7.23,27.26-3.34,31.16s12.8-16.69,17.25-5.56-14.47,31.15-14.47,31.15m-5.56-2.26L34.88,297.84" style="fill:none;stroke:#263238;stroke-linecap:round;stroke-linejoin:round"/><path d="M41.56,318.42l5.56-12.79M30.43,326.77,46,330.66l7.79-5.56" style="fill:none;stroke:#263238;stroke-linecap:round;stroke-linejoin:round"/><path d="M65.25,337.17H26.11L30,371.88H61.34Zm112.38-95.29s-14.67,1.33-20-8,4-20.67-6-24.67-22,9.34-42-2-9.34-26-4-37.33,8-16.67-4.67-24S74.29,117.21,83,96.55s30.67-11.34,42-22,1.33-23.34.67-40.67S148.29,3.21,171,6.55s27.33,27.33,27.33,42.66,24,19.34,35.34,2,20.66-21.33,37.33-14,2.67,32,10.67,36,14.66-15.33,38.66-4S331,110.54,319,117.88c-17.46,10.69,3.13,31.42,6.44,44.11,4.85,18.55-10.08,33.39-28.44,32.56-29.33-1.34-36.67-6-42.67,2.66s12.67,10.67,10,24.67-8,19.33-20,19.33-19.33-10.66-32-5.33-28.66,9.33-34.66,6Z" style="fill:#263238;stroke:#263238;stroke-linejoin:round"/><path d="M154.46,337.38a72.05,72.05,0,0,0-2.25,24.5c1.25,12.75,7.75,19.5,36,23.75s47.75.75,63.5-6.75,12.18-34.41,8.09-40.58-19.84-7.42-45.34-5.17-41.25-1.75-50.5-.25S154.46,337.38,154.46,337.38Z" style="fill:#696969;stroke:#263238;stroke-linejoin:round"/><path d="M244.46,341.38l-23,6c-9.5,2.5-10.5,3.5-2,4.5s24.5,0,24.5,0-22.5,10.5-34.5,13-34-5.5-36.5-7.5,10.5-2,14-3.5,1.5-3.5-11-5.5-10,9.5,1,17.5,17.5,10.5,31.75,8,33.75-8.5,40.25-20.5S244.46,341.38,244.46,341.38Z" style="isolation:isolate;opacity:0.30000001192092896"/><path d="M148.09,261.33l-1.66,33.4s-3,7.76,2.4,12.74,12.36,3.51,16-3,3.14-21.41,4.06-27.32-6.27-12-12.18-14.21-8.62-1.66-8.62-1.66Zm116.94,0,1.66,33.4s2.95,7.76-2.4,12.74-12.37,3.51-16.06-3-3.14-21.41-4.06-27.32,6.28-12,12.18-14.21,8.68-1.66,8.68-1.66Z" style="fill:#fff;stroke:#263238;stroke-linejoin:round"/><path d="M193.28,211.56s.63,13.9-2.74,19.79-14.11,5.53-21,5.53-17.27,5.68-20.64,11.37a104.38,104.38,0,0,0-6.52,14.52l23.16,12.42s-2.53,4.85,0,12,6.31,9.9,5.26,13.48-14.74,29.05-16,33.05a37,37,0,0,0-1.47,5.68s29.26,5.69,54.73,4.85,51.79-5.9,51.79-5.9-7.79-13.68-12-21.47-8-15.79-7.16-18.53,5.69-10.1,5.48-23c0,0,18.73-4.84,25.68-12.63,0,0-8.21-20.42-16.63-23.79s-18.1,0-25-1.89-10.53-5.27-11.58-7.79-2.11-14.32-1.69-17.05Z" style="fill:#f6eabe;stroke:#263238;stroke-linejoin:round"/><path d="M172,292.88s-7-7.5,1-8.5,19.5,7,32,10,27.5-10.5,34-8.5,2.5,12-4.5,16.5-26.5,4-37.5,3.5S180.46,302.38,172,292.88Z" style="isolation:isolate;opacity:0.30000001192092896"/><path d="M181,297.52s3.81,3.05,14,3.05,18-4.57,25.14-3.3m-43.46,1s4.31,3.56,13.2,3.81m-24.35-26.95s.73-3.77,5.56-7.33m75.07,7.54s-1.69-7.28-6.26-8.81" style="fill:none;stroke:#263238;stroke-linecap:round;stroke-linejoin:round"/><path d="M206.75,262.72c16.47-.65,21.64-16.5,23.26-25.71-6.87-1.9-10.42-5.25-11.47-7.76s-2.11-14.32-1.69-17.05l-23.57-.64s.63,13.9-2.74,19.79c-1.72,3-5.38,4.38-9.47,5,1.56,6.61,7.89,27.08,25.68,26.37Z" style="fill:#fff"/><g style="clip-path:url(#a)"><path d="M217.26,221.94a55.65,55.65,0,0,1-.41-9.74l-23.57-.64a78.44,78.44,0,0,1-.37,10.73C197.05,225,205.44,228.24,217.26,221.94Z" style="isolation:isolate;opacity:0.30000001192092896"/></g><path d="M206.75,262.72c16.47-.65,21.64-16.5,23.26-25.71-6.87-1.9-10.42-5.25-11.47-7.76s-2.11-14.32-1.69-17.05l-23.57-.64s.63,13.9-2.74,19.79c-1.72,3-5.38,4.38-9.47,5,1.56,6.61,7.89,27.08,25.68,26.37Z" style="fill:none;stroke:#263238;stroke-linejoin:round"/><path d="M183.28,182.88s-3-4.89-5.95-1.91,0,8.92,1.91,11.68,5.52,4.88,6.37,3.82S183.28,182.88,183.28,182.88Zm46.08-.44s4.25-5.52,6.59-.21-4,13.38-7,14.87-1.49-3.4-1.28-5.1,1.69-9.56,1.69-9.56Z" style="fill:#fff;stroke:#263238;stroke-linejoin:round"/><path d="M181,164.18s1.49,20.18,2.55,30.37,4.86,19.33,16.54,22.33,21-1.06,24.43-7.86,5.31-19.75,5.31-30.37v-17S199.63,153.14,181,164.18Z" style="fill:#fff;stroke:#263238;stroke-linejoin:round"/><path d="M203.45,193.06a7.81,7.81,0,0,0,3.61,1.28,9.26,9.26,0,0,0,3.82-1.28m-10.19,6.59s5.31,3.4,13-.43" style="fill:none;stroke:#263238;stroke-linecap:round;stroke-linejoin:round"/><path d="M192.2,182.44s4.46-.63,7,1.07m13.81-.22s4.25-2.12,8.28-.21" style="fill:none;stroke:#263238;stroke-linecap:round;stroke-linejoin:round;stroke-width:2px"/><path d="M182.22,180.51a33.56,33.56,0,0,0,3.39-7.83,23.65,23.65,0,0,0,1.17-11.22,35.43,35.43,0,0,0-5.82,2.72l1.26,16.33Zm47.56-1.69v-17.2l-5.47-1.24C224.53,163.68,225.52,173.63,229.78,178.82Z" style="fill:#263238;stroke:#263238;stroke-linejoin:round"/><path d="M190.5,175s3.61-4.88,11.25-3.4m10.83.64A10.38,10.38,0,0,1,223,174.16" style="fill:none;stroke:#263238;stroke-linecap:round;stroke-linejoin:round"/><path d="M208.71,373.88s-9.75,0-27.25-17.25-28.5-31.75-42-37.75-26.5,7.25-25.75,21.5,11.25,34.25,42.5,45.75,58,6.75,60.75,6.75,16.25,6.75,24.25,7.5a62.43,62.43,0,0,0,13.25,0s2.25.25,3.5.25,2.75-1.5,2.75-1.5,2.53.66,3.53-1.09.22-2.41.22-2.41,4.28.37,5.78-2.38-.64-2.64-.64-2.64,2.93-.57,2.86-2.93a5.1,5.1,0,0,0-.5-2.55s1.75-2.75,1-5-3.5-3-6.25-1.75-16,.75-26.75,0-31.25-4.5-31.25-4.5Z" style="fill:#fff;stroke:#263238;stroke-linejoin:round"/><path d="M204.36,372.88c-4.46-1.61-12.24-5.71-22.9-16.22-17.5-17.28-28.5-31.78-42-37.78s-26.5,7.25-25.75,21.5,11.25,34.25,42.5,45.75a126.76,126.76,0,0,0,36.26,7.49C203.83,388.88,204.89,378.88,204.36,372.88Z" style="fill:#696969"/><g style="clip-path:url(#b)"><path d="M200.11,388.22c-4.93-1.87-10.69-3.87-17.15-5.84-23-7-40-15.5-51.5-28.5s-7.5-29.5-7.5-29.5l-2.65-2.4a23.35,23.35,0,0,0-7.6,18.4c.75,14.25,11.25,34.25,42.5,45.75a126.76,126.76,0,0,0,36.26,7.49A19.93,19.93,0,0,0,200.11,388.22Z" style="isolation:isolate;opacity:0.30000001192092896"/></g><path d="M204.36,372.88c-4.46-1.61-12.24-5.71-22.9-16.22-17.5-17.28-28.5-31.78-42-37.78s-26.5,7.25-25.75,21.5,11.25,34.25,42.5,45.75a126.76,126.76,0,0,0,36.26,7.49C203.83,388.88,204.89,378.88,204.36,372.88Z" style="fill:none;stroke:#263238;stroke-linejoin:round"/><path d="M272,385.13a5.63,5.63,0,0,0-4.86.12m2.5,5.36a5.85,5.85,0,0,0-4,0m-1.14,5a4.83,4.83,0,0,0-3.22-.95m-.79,4.2s-1.07-1.93-2.64-1.93" style="fill:#fff;stroke:#263238;stroke-linecap:round;stroke-linejoin:round"/><path d="M197.62,373.88s9.75,0,27.25-17.25,28.5-31.75,42-37.75,26.5,7.25,25.75,21.5-11.25,34.25-42.5,45.75-58,6.75-60.75,6.75-16.25,6.75-24.25,7.5a62.43,62.43,0,0,1-13.25,0s-2.25.25-3.5.25-2.75-1.5-2.75-1.5-2.53.66-3.53-1.09-.22-2.41-.22-2.41-4.29.37-5.79-2.38.64-2.64.64-2.64-2.93-.57-2.86-2.93a5,5,0,0,1,.51-2.55s-1.75-2.75-1-5,3.5-3,6.25-1.75,16,.75,26.75,0S197.62,373.88,197.62,373.88Z" style="fill:#fff;stroke:#263238;stroke-linejoin:round"/><path d="M202,372.88c4.45-1.61,12.23-5.71,22.9-16.22,17.5-17.25,28.5-31.75,42-37.75s26.5,7.25,25.75,21.5-11.25,34.25-42.5,45.75a126.83,126.83,0,0,1-36.27,7.49C202.49,388.88,201.44,378.88,202,372.88Z" style="fill:#696969"/><g style="clip-path:url(#c)"><path d="M292.62,340.38c.52-9.93-5.64-19.36-14-22.15L275,320.88s12.5,7.5,9.5,22-27.5,29.5-47,37.5a222,222,0,0,1-29.82,9.33,21,21,0,0,0,6.21,3.91,126.83,126.83,0,0,0,36.27-7.49c31.25-11.5,41.75-31.5,42.5-45.75Z" style="isolation:isolate;opacity:0.30000001192092896"/></g><path d="M202,372.88c4.45-1.61,12.23-5.71,22.9-16.22,17.5-17.25,28.5-31.75,42-37.75s26.5,7.25,25.75,21.5-11.25,34.25-42.5,45.75a126.83,126.83,0,0,1-36.27,7.49C202.49,388.88,201.44,378.88,202,372.88Z" style="fill:none;stroke:#263238;stroke-linejoin:round"/><path d="M134.37,385.13a5.63,5.63,0,0,1,4.86.12m-2.51,5.36a5.85,5.85,0,0,1,4,0m1.15,5a4.83,4.83,0,0,1,3.22-.95m.79,4.2s1.08-2,2.64-2M152.33,297s-3.69-.74-10.33,2.58-12.74,9.23-16.25,11.26-5.9,3.33-9,.19-9.78-11.82-16.06-11.63-8.49,8.86-7.38,10.7,2.77,2.22,4.06.74,2.95-4.43,4.61-3.32.74,6.28-1.84,7.2-9.6,5.35-7.94,7.94,11.08,6.09,18.09,6.64S126,325,131.7,324.08s21.23-2,28.42-7.93a15.09,15.09,0,0,0,5.36-14.22" style="fill:#fff;stroke:#263238;stroke-linecap:round;stroke-linejoin:round"/><path d="M93.08,318.73s-.73-8.12-3.13-8.68-2.77,5-2.4,10.34,3.32,6.83,5.16,5.35S93.08,318.73,93.08,318.73Z" style="fill:#fff;stroke:#263238;stroke-linejoin:round"/><path d="M98.85,321s.7-8.13-1.56-9.1-3.6,4.42-4.19,9.75,2.07,7.31,4.15,6.19S98.85,321,98.85,321Z" style="fill:#fff;stroke:#263238;stroke-linejoin:round"/><path d="M103.83,322.88s.71-8.12-1.56-9.09-3.6,4.42-4.18,9.75,2.06,7.31,4.14,6.18,1.6-6.84,1.6-6.84Z" style="fill:#fff;stroke:#263238;stroke-linejoin:round"/><path d="M116.89,328.88a24.08,24.08,0,0,1-10.7,2.22,39.59,39.59,0,0,1-.37-4.62c0-2,4.24-10.33,10.52-9.78" style="fill:#fff;stroke:#263238;stroke-linecap:round;stroke-linejoin:round"/><path d="M109.12,326.05s2.35-6.36.41-7.84-4.33,2.46-6,6.6.44,6.56,2.64,6.29,3-5.05,3-5.05Z" style="fill:#fff;stroke:#263238;stroke-linejoin:round"/><path d="M260.78,297s3.69-.74,10.34,2.58,12.73,9.23,16.24,11.26,5.91,3.33,9.05.19,9.78-11.82,16-11.63,8.49,8.86,7.39,10.7-2.77,2.22-4.06.74-3-4.43-4.62-3.32-.74,6.28,1.85,7.2,9.6,5.35,7.93,7.94-11.07,6.09-18.08,6.64-15.69-4.24-21.42-5.17-21.22-2-28.42-7.93a15.09,15.09,0,0,1-5.35-14.22" style="fill:#fff;stroke:#263238;stroke-linecap:round;stroke-linejoin:round"/><path d="M320,318.73s.74-8.12,3.14-8.68,2.77,5,2.4,10.34-3.32,6.83-5.17,5.35S320,318.73,320,318.73Z" style="fill:#fff;stroke:#263238;stroke-linejoin:round"/><path d="M314.27,321s-.71-8.13,1.55-9.1,3.61,4.42,4.19,9.75-2.05,7.31-4.14,6.21-1.6-6.86-1.6-6.86Z" style="fill:#fff;stroke:#263238;stroke-linejoin:round"/><path d="M309.28,322.88s-.7-8.12,1.56-9.09,3.61,4.42,4.19,9.75-2.07,7.31-4.14,6.18S309.28,322.88,309.28,322.88Z" style="fill:#fff;stroke:#263238;stroke-linejoin:round"/><path d="M296.22,328.88A24.25,24.25,0,0,0,307,331.1a37.53,37.53,0,0,0,.37-4.62c0-2-4.25-10.33-10.53-9.78" style="fill:#fff;stroke:#263238;stroke-linecap:round;stroke-linejoin:round"/><path d="M304,326.05s-2.35-6.36-.41-7.84,4.32,2.46,6,6.6-.44,6.56-2.64,6.29-3-5.05-3-5.05Z" style="fill:#fff;stroke:#263238;stroke-linejoin:round"/><path d="M225,151.88c-2.35-3.41-6-.09-6.94.93-1-1-4.59-4.34-6.93-.93-2.55,3.71,6.85,11.44,6.93,11.4S227.48,155.59,225,151.88Zm-23.35,3.06A27.16,27.16,0,0,0,190.17,146c-7.32-2.86-2.55-8.58.63-7a44.15,44.15,0,0,0,6.36,2.54s-8.27-6.68-8.58-12.4,8.58,1.59,8.58,1.59-10.81-14.88-7.31-17.48,6.67,2.23,8.9,6.36a80.53,80.53,0,0,1,4.13,9.54s-.63-10.49,2.87-7.31S207,141,207,141s4.77-13,7-6S202.57,154,201.61,154.94Z" style="fill:none;stroke:#f6eabe;stroke-linejoin:round"/><path d="M201.61,154.94s5.09-15.27-5.4-35" style="fill:none;stroke:#f6eabe;stroke-linecap:round;stroke-linejoin:round"/><path d="M184.16,53.57a20.12,20.12,0,0,0-10.37,2.79c-5,3-6.2-2.33-3.84-3.5a33.57,33.57,0,0,0,4.34-2.62s-7.64,1.9-11.16-.47,4.77-4.36,4.77-4.36-13.65-.28-13.59-3.48,4.29-3,7.73-2.42a59.92,59.92,0,0,1,7.48,1.81s-6.48-4.31-3.05-5,11.84,7.76,11.84,7.76-5.57-8.63-.45-6.83S184,52.58,184.16,53.57Z" style="fill:none;stroke:#f6eabe;stroke-linejoin:round"/><path d="M184.16,53.57s-6.74-9.82-23.07-12.42" style="fill:none;stroke:#f6eabe;stroke-linecap:round;stroke-linejoin:round"/><path d="M247.32,116.75a4,4,0,0,0-.84.11,3.65,3.65,0,1,0-5-5.28,3.72,3.72,0,0,0-1.1,2.18,3.65,3.65,0,1,0-6.59,3.13,3.58,3.58,0,0,0,1,1.25,3.65,3.65,0,1,0,3.27,6.53,3.61,3.61,0,0,0,.93-.67,3.64,3.64,0,0,0,7.26-.13,4,4,0,0,0,1.14.2,3.66,3.66,0,0,0,0-7.32Z" style="fill:none;stroke:#f6eabe;stroke-linejoin:round"/><circle cx="241.09" cy="119.63" r="2.53" style="fill:none;stroke:#f6eabe;stroke-linejoin:round"/><path d="M174.14,145.54a4,4,0,0,0-.85.11,3.65,3.65,0,1,0-6.13-3.1,3.65,3.65,0,1,0-5.62,4.38,3.65,3.65,0,1,0,3.27,6.53,3.61,3.61,0,0,0,.93-.67,3.64,3.64,0,0,0,7.25-.13,3.48,3.48,0,0,0,1.15.2,3.66,3.66,0,1,0,0-7.32Z" style="fill:none;stroke:#f6eabe;stroke-linejoin:round"/><circle cx="167.9" cy="148.42" r="2.53" style="fill:none;stroke:#f6eabe;stroke-linejoin:round"/><path d="M172.14,100.06a2.33,2.33,0,0,0-.53.07,2.22,2.22,0,0,0,.71-1.64,2.27,2.27,0,0,0-4.53-.29,2.27,2.27,0,0,0-4.1,2,2.33,2.33,0,0,0,.61.78,2.29,2.29,0,1,0,2.66,3.65,2.27,2.27,0,0,0,4.52-.09,2.17,2.17,0,0,0,.71.13,2.28,2.28,0,0,0,0-4.56Z" style="fill:none;stroke:#f6eabe;stroke-linejoin:round"/><circle cx="168.26" cy="101.85" r="1.58" style="fill:none;stroke:#f6eabe;stroke-linejoin:round"/><path d="M151.53,169.88a2.32,2.32,0,0,0-.52.07,2.27,2.27,0,1,0-3.82-1.93,2.27,2.27,0,0,0-4.08,2,2.23,2.23,0,0,0,.58.75,2.27,2.27,0,0,0,2.05,4.05,2,2,0,0,0,.56-.4,2.27,2.27,0,0,0,4.52-.09,2.17,2.17,0,0,0,.71.13,2.28,2.28,0,0,0,0-4.56Z" style="fill:none;stroke:#f6eabe;stroke-linejoin:round"/><circle cx="147.65" cy="171.67" r="1.58" style="fill:none;stroke:#f6eabe;stroke-linejoin:round"/><path d="M195.79,62.17a2.32,2.32,0,0,0-.52.07A2.27,2.27,0,0,0,192.13,59a2.31,2.31,0,0,0-.68,1.34,2.27,2.27,0,0,0-4.32,1A2.23,2.23,0,0,0,188,63a2.27,2.27,0,1,0,2.59,3.65,2.27,2.27,0,0,0,4.52-.08,2.47,2.47,0,0,0,.71.13,2.28,2.28,0,0,0,0-4.56h0Z" style="fill:none;stroke:#f6eabe;stroke-linejoin:round"/><circle cx="191.91" cy="63.96" r="1.58" style="fill:none;stroke:#f6eabe;stroke-linejoin:round"/><path d="M244.64,76.56a2.33,2.33,0,0,0-.53.07,2.22,2.22,0,0,0,.71-1.64,2.27,2.27,0,0,0-4.53-.29,2.27,2.27,0,0,0-4.1,2,2.33,2.33,0,0,0,.61.78,2.26,2.26,0,0,0-1.26,2,2.28,2.28,0,0,0,3.87,1.63,2.27,2.27,0,0,0,4.52-.09,1.94,1.94,0,0,0,.71.13,2.28,2.28,0,1,0,0-4.56Z" style="fill:none;stroke:#f6eabe;stroke-linejoin:round"/><circle cx="240.76" cy="78.35" r="1.58" style="fill:none;stroke:#f6eabe;stroke-linejoin:round"/><path d="M215,105.88a65.88,65.88,0,0,1,4.67-10c2.33-3.67,10.66-4.33,10.66-4.33L224,101.88C222,105.21,215,105.88,215,105.88Z" style="fill:none;stroke:#f6eabe;stroke-linejoin:round"/><path d="M215,105.88s6.33-9,13.67-13.33" style="fill:none;stroke:#f6eabe;stroke-linecap:round;stroke-linejoin:round"/><path d="M118.83,138.32a66.11,66.11,0,0,1,10.93-1.53c4.34,0,9.45,6.58,9.45,6.58l-12.12.32c-3.88.14-8.26-5.37-8.26-5.37Z" style="fill:none;stroke:#f6eabe;stroke-linejoin:round"/><path d="M118.83,138.32s11,.41,18.63,4.19" style="fill:none;stroke:#f6eabe;stroke-linecap:round;stroke-linejoin:round"/><path d="M267.19,130.71s-1.62-7.53-5.15-7.09-.68,9.3-.68,9.3-4.64,1.32-4.42,3.31,3.52.33,6.38-.11c0,0-1.15,5.17,1.94,6s2.5-6.82,2.5-6.82,6.9,1.41,8.84-1.68C278.85,130.07,270.06,130.26,267.19,130.71Z" style="fill:none;stroke:#f6eabe;stroke-linejoin:round"/><path d="M267.19,128.39s-6.44,9.79-6.06,10.82,7.35-8.5,8.51-9.66-.9-2.84-2.45-1.16Z" style="fill:#263238;stroke:#f6eabe;stroke-linejoin:round"/><path d="M269.64,129.55s4.25-3.87,6.31-2.32-.38,1.8-.64,1.29m-7.73-.91s1.16-5.67-.13-6.83-1.81.39-.9,1.29" style="fill:none;stroke:#f6eabe;stroke-linecap:round;stroke-linejoin:round"/><path d="M206,83.44c-3.44-5-8.76-.13-10.19,1.36-1.44-1.49-6.76-6.38-10.2-1.36-3.75,5.45,10.07,16.81,10.2,16.76S209.69,88.88,206,83.44Zm-47.73-19.5c-3.56-2.12-5.45,2.41-5.92,3.73-1.31-.51-6-2-6.69,2.06-.76,4.43,11,7.53,11.07,7.46S162.09,66.24,158.23,63.94ZM125,105.18c-4.13-.31-3.81,4.59-3.63,6-1.4.13-6.26.86-5.07,4.82,1.29,4.31,13.21,1.83,13.23,1.74s0-12.22-4.53-12.56ZM256.13,170c3.28-2.53-.23-6-1.29-6.88,1-1,4.09-4.82.56-7-3.84-2.35-11.06,7.45-11,7.53S252.57,172.7,256.13,170Z" style="fill:none;stroke:#f6eabe;stroke-linejoin:round"/><path d="M237,102.66a35.05,35.05,0,0,1,7.45-5.28m-26,45.5s2.34-19.91,13.3-34.41M188.9,151.33a41.43,41.43,0,0,1,2.56,4.55M151.67,127.7a16.74,16.74,0,0,0,4.79,2.68c7.91,3,18.95,6,27.54,14.82m-36-26.82a9.2,9.2,0,0,0,1,6.13m91.41-58.07a27.15,27.15,0,0,0,6.09-8.06M210.74,95.66a41.73,41.73,0,0,1,6.72-11.28c5.69-6.77,11.82-10,17.27-13.65m-27.27,41.15a38.23,38.23,0,0,1,.65-7m30.53,47.58c4.16-2.1,10-3.68,17.82-3.08,19.5,1.5,28.5,7.5,37-4M230,159.88a17.44,17.44,0,0,1,3.24-3.72m38.22-48.93h-2.67c-1.61,0-4.55-1.87-3.21-3.48s5.88,2.14,5.88,2.14l-4-12.57,8.56-4,3.48,11.77s-5.35-2.14-5.89.26,3.48,2.14,5.89,1.07" style="fill:none;stroke:#f6eabe;stroke-linecap:round;stroke-linejoin:round"/><path d="M268.21,96l8.29-4m13.31,11.25h-1.76c-1.07,0-3-1.24-2.13-2.3s3.89,1.41,3.89,1.41L287.16,94l5.66-2.65,2.3,7.78s-3.54-1.41-3.89.18,2.3,1.41,3.89.7" style="fill:none;stroke:#f6eabe;stroke-linecap:round;stroke-linejoin:round"/><path d="M287.69,95.8l5.48-2.65M134.31,94.23h-1.76c-1.07,0-3-1.24-2.13-2.3s3.89,1.41,3.89,1.41L131.66,85l5.66-2.65,2.3,7.78s-3.54-1.41-3.89.18,2.3,1.41,3.89.7" style="fill:none;stroke:#f6eabe;stroke-linecap:round;stroke-linejoin:round"/><path d="M132.19,86.8l5.48-2.65" style="fill:none;stroke:#f6eabe;stroke-linecap:round;stroke-linejoin:round"/><path d="M302,122.34s7.24-2.18,6.09-6.46c-1-3.62-4.38,0-4.38,0s2.1-3.4-1-5-4,2.78-4,2.78-.62-4.06-3.44-2.19,3.13,11.89,3.13,11.89Z" style="fill:none;stroke:#f6eabe;stroke-linejoin:round"/><path d="M292.68,137.79a38.47,38.47,0,0,0,5.63-14.4l3.08-9.52" style="fill:none;stroke:#f6eabe;stroke-linecap:round;stroke-linejoin:round"/><path d="M296.43,130.28a8,8,0,0,0-1.25-5.64,22.2,22.2,0,0,0-4.06-5s-.94,3.44-.32,5.63S296.43,130.28,296.43,130.28Zm-.93,2.5a6.51,6.51,0,0,1,4.38-1.56h5.94S298.31,137.16,295.5,132.78Z" style="fill:none;stroke:#f6eabe;stroke-linejoin:round"/><path d="M297.35,115.48l.94,7.4,5.25-3.9" style="fill:none;stroke:#f6eabe;stroke-linecap:round;stroke-linejoin:round"/><path d="M133.43,154.61s-4.74-5.88-8.27-3.21c-3,2.27,1.65,4.06,1.65,4.06s-4-.66-4.22,2.83,4.07,2.59,4.07,2.59-3.53,2.11-.73,4,9.84-7.38,9.84-7.38Z" style="fill:none;stroke:#f6eabe;stroke-linejoin:round"/><path d="M151.22,157.36a38.46,38.46,0,0,0-15.45.2l-10,.74" style="fill:none;stroke:#f6eabe;stroke-linecap:round;stroke-linejoin:round"/><path d="M142.85,156.71A8,8,0,0,0,138.1,160a22.53,22.53,0,0,0-3.1,5.65s3.54-.42,5.33-1.83,2.52-7.1,2.52-7.1Zm2.67-.07a6.47,6.47,0,0,1-3.1-3.47l-2.23-5.51S148.52,152.38,145.52,156.64Z" style="fill:none;stroke:#f6eabe;stroke-linejoin:round"/><path d="M128.8,161.43l6.5-3.66-5.59-3.39" style="fill:none;stroke:#f6eabe;stroke-linecap:round;stroke-linejoin:round"/><path d="M181.8,129.47a21.94,21.94,0,0,0-1-2c-1.79-3.29-4.42-6.18-8.55-5.59-7,1,6,12,8.34,12.33C183.47,134.62,182.73,131.69,181.8,129.47Zm-5.33-41.33a15.21,15.21,0,0,0-1-2c-1.8-3.3-4.42-6.18-8.55-5.59-7,1,6,12,8.34,12.33C178.14,93.29,177.4,90.35,176.47,88.14Zm70.36,45.39c-.89.26-1.67.56-2.1.73-3.48,1.4-6.65,3.68-6.54,7.85.19,7.07,12.61-4.58,13.21-6.87.73-2.77-2.27-2.36-4.57-1.71Zm9-37.33c-.71.21-1.41.45-2.1.73-3.48,1.4-6.65,3.67-6.54,7.84.19,7.07,12.61-4.58,13.21-6.86.73-2.78-2.27-2.38-4.57-1.71Zm51.25-2.32a19.14,19.14,0,0,0-2.09.73c-3.48,1.4-6.65,3.67-6.54,7.84.19,7.07,12.61-4.58,13.21-6.86.73-2.81-2.27-2.41-4.58-1.71Zm-140.53,34a10.07,10.07,0,0,0-.47-1c-.87-1.6-2.15-3-4.17-2.73-3.42.49,2.93,5.86,4.07,6,1.39.24,1-1.19.57-2.27Zm-24.41-25.94c-.34-.29-.68-.53-.86-.66-1.51-1-3.28-1.73-4.95-.57-2.84,2,5.24,3.92,6.33,3.56,1.3-.45.37-1.56-.52-2.33Zm36.08,12.27a10.07,10.07,0,0,0-.47-1c-.88-1.61-2.16-3-4.17-2.73-3.42.49,2.93,5.85,4.07,6,1.38.25,1-1.19.57-2.27ZM119.35,91.69a9.11,9.11,0,0,0-.47-1c-.87-1.61-2.15-3-4.17-2.73-3.42.49,2.93,5.86,4.07,6,1.39.24,1-1.19.57-2.27Zm15.91,35a9.56,9.56,0,0,0-1-.53c-1.64-.8-3.5-1.2-5,.2-2.5,2.39,5.79,3.07,6.81,2.54,1.32-.64.19-1.6-.81-2.21Zm40-51.84a10.07,10.07,0,0,0-.47-1c-.88-1.6-2.16-3-4.17-2.73-3.42.49,2.93,5.86,4.07,6,1.38.24,1-1.19.57-2.27Z" style="fill:#f6eabe"/><path d="M212.83,115.52l-.62.88c-1,1.54-1.61,3.35-.38,5,2.08,2.76,3.72-5.39,3.31-6.47C214.64,113.59,213.56,114.6,212.83,115.52Z" style="fill:#f6eabe"/><path d="M228.83,136.52l-.62.88c-1,1.54-1.61,3.35-.38,5,2.08,2.76,3.72-5.39,3.31-6.47C230.64,134.59,229.56,135.6,228.83,136.52Z" style="fill:#f6eabe"/><path d="M251.11,81.88a9,9,0,0,0-1,.33c-1.71.65-3.28,1.73-3.27,3.76,0,3.45,6.2-2.1,6.52-3.21.35-1.4-1.11-1.24-2.25-.88ZM212.49,69.31l-.75.78c-1.21,1.37-2.1,3.06-1.13,4.85,1.63,3,4.49-4.76,4.26-5.88C214.58,67.68,213.35,68.51,212.49,69.31Zm-69,70.57c.26.25.54.48.82.7,1.45,1.13,3.19,1.9,4.92.83,2.93-1.81-5-4.19-6.14-3.88C141.79,137.88,142.69,139.05,143.54,139.88ZM268.48,82.25H267.4c-1.83.11-3.65.67-4.25,2.61-1,3.3,6.55-.15,7.18-1.11C271.1,82.58,269.66,82.3,268.48,82.25Z" style="fill:#f6eabe"/></svg>