<svg xmlns="http://www.w3.org/2000/svg" viewBox="0 0 387.72 350.66"><defs><style>.cls-1{fill:#50bdba;}</style></defs><g id="Layer_2" data-name="Layer 2"><g id="Layer_1-2" data-name="Layer 1"><path class="cls-1" d="M193.28,350.6c-22.25,0-44.5.18-66.74-.06-21-.22-38-8.27-48.88-27-23.36-40.19-46.89-80.29-70-120.62-10.93-19.08-9.73-38.81.83-57.43C30.64,106.43,53.63,67.84,76.07,28.94,86.4,11,101.52.34,122.21.18,170.9-.2,219.6.07,268.28.62c19.14.22,33,10.78,42.38,26.65q34.72,58.67,68.53,117.87c10.89,19.18,11.72,39.06.34,58.82-22.7,39.36-45,78.94-67.92,118.19-11.37,19.47-29.16,28.46-51.58,28.49q-33.37,0-66.75,0Zm.48-15.21v.16c19.59,0,39.25-1,58.76.26,24.15,1.59,40.1-8.44,51.59-29.11C323.87,271.17,344.31,236,365,201c9.74-16.53,10.91-32.46,1.08-49.31-22.34-38.33-44.36-76.85-66.54-115.28-8.71-15.08-21.91-22.29-39.29-22.27-43.94.05-87.89-.06-131.84.05C112,14.2,98.3,20,89.74,34.77q-34.59,59.6-69,119.31c-8.47,14.67-7.62,29.43.62,43.73,22.15,38.44,44.69,76.65,66.79,115.11,9.45,16.45,23.34,23.18,42.06,22.62C151.39,334.91,172.58,335.39,193.76,335.39Z"/><path class="cls-1" d="M203.15,321.17C142.55,322.72,67,274.1,66.81,190.67c-.14-77.08,58.68-137.26,135.61-140.19C288,47.21,336.3,126,337.22,182.28,338.5,259.4,280.28,319.89,203.15,321.17Zm-1.37-18.94c64.23,0,115.13-51.62,117.07-115.57,1.67-55.33-58.86-119-114.72-117.52C139,70.89,87.75,121.89,85.44,187.56,83.49,242.84,145.33,306.13,201.78,302.23Z"/><path class="cls-1" d="M184.78,302.37C124.19,303.91,48.61,255.3,48.45,171.86,48.3,94.78,107.13,34.61,184.06,31.67c85.62-3.26,133.87,75.5,134.8,131.8C320.13,240.59,261.91,301.09,184.78,302.37Zm-1.11-9.71c70.36,4.6,132-58.46,129.55-125.67,4.53-60.9-70.39-134-129-128.33-70.51,6.88-126.93,65.41-127,133C57.15,238.51,123.86,305.12,183.67,292.66Z"/></g></g></svg>