<svg xmlns="http://www.w3.org/2000/svg" viewBox="0 0 387.72 350.48"><path d="M193.28,350.42c-22.25,0-44.5.18-66.74-.06-21-.22-38-8.27-48.88-27l-70-120.62c-10.93-19.08-9.73-38.81.83-57.43L76.07,28.76C86.4,10.82,101.52.16,122.21,0L268.28.44c19.14.22,33,10.78,42.38,26.65Q345.39,85.76,379.19,145c10.89,19.18,11.72,39.06.34,58.82L311.61,322c-11.37,19.47-29.16,28.46-51.58,28.49H193.28Zm.48-15.21v.16c19.59,0,39.25-1,58.76.26,24.15,1.59,40.1-8.44,51.59-29.11L365,200.82c9.74-16.53,10.91-32.46,1.08-49.31L299.54,36.23C290.83,21.15,277.63,13.94,260.25,14c-43.94,0-87.89-.06-131.84,0C112,14,98.3,19.82,89.74,34.59q-34.59,59.59-69,119.31c-8.47,14.67-7.62,29.43.62,43.73L88.15,312.74c9.45,16.45,23.34,23.18,42.06,22.62,21.18-.63,42.37-.15,63.55-.15ZM203.15,321C142.55,322.54,67,273.92,66.81,190.49,66.67,113.41,125.49,53.23,202.42,50.3,288,47,336.3,125.82,337.22,182.1,338.5,259.22,280.28,319.71,203.15,321Zm-1.37-18.94c64.23,0,115.13-51.62,117.07-115.57C320.52,131.15,260,67.48,204.13,69,139,70.71,87.75,121.71,85.44,187.38c-2,55.28,59.89,118.57,116.34,114.67Z" style="fill:#50bdba"/><path d="M184.78,302.19c-60.59,1.54-136.17-47.07-136.33-130.51C48.3,94.6,107.13,34.43,184.06,31.49c85.62-3.26,133.87,75.5,134.8,131.8,1.27,77.12-56.95,137.62-134.08,138.9Zm-1.11-9.71c70.36,4.6,132-58.46,129.55-125.67,4.53-60.9-70.39-134-129-128.33-70.51,6.88-126.93,65.41-127,133C57.15,238.33,123.86,304.94,183.67,292.48Z" style="fill:#50bdba"/></svg>