<svg xmlns="http://www.w3.org/2000/svg" viewBox="0 0 479.5 425.48"><path d="M465.74,261.15c-14.9,40.26-45.32,83.84-88.14,96.75-64.7,19.5-72.43,72.14-188.31,67.26a231.28,231.28,0,0,1-50.11-7.42,193.24,193.24,0,0,1-23.55-7.91c-67.7-27.68-103-88.6-105.95-152.34-3.87-83.84,54.08-123.8,91.74-147.2S184.5-3.77,298.42.12a224.72,224.72,0,0,1,51.5,7.6c38.35,10.47,77.33,33.65,100,67.52q2.55,3.83,4.87,7.8C485.08,135,486,206.25,465.74,261.15Z" style="fill:#d3e4cd"/><path d="M465.74,261.15c-14.9,40.26-45.32,83.84-88.14,96.75-64.7,19.5-72.43,72.14-188.31,67.26a231.28,231.28,0,0,1-50.11-7.42,193.24,193.24,0,0,1-23.55-7.91c-67.7-27.68-103-88.6-105.95-152.34-3.87-83.84,54.08-123.8,91.74-147.2S184.5-3.77,298.42.12a224.72,224.72,0,0,1,51.5,7.6c38.35,10.47,77.33,33.65,100,67.52q2.55,3.83,4.87,7.8C485.08,135,486,206.25,465.74,261.15Z" style="fill:#fff"/><path d="M463.5,8.48A5.16,5.16,0,0,0,458.63,12H206.07a5.17,5.17,0,1,0,0,3.31H458.58a5.16,5.16,0,1,0,4.92-6.82Z" style="isolation:isolate;opacity:0.30000001192092896"/><g style="opacity:0.30000001192092896"><path d="M265.79,16.27l10.52,263.14-.37,17.1s-16.19,0-24.71.85-21.72.85-31.09.85-14.48-3.4-14.48-3.4l.61-15.42,5.26-263.12" style="fill:none;stroke:#000;stroke-linecap:round;stroke-linejoin:round"/><path d="M225.45,264.94l0,10.31m.93-211.14-.84,191.68m1.06-241.46-.2,44.06M241.06,115l-1.92,127.62m3.43-227.16L241.19,107m13.43,43.47L255.16,269M254.24,66.4l.34,74.39M254,16.62l.19,40.63" style="fill:none;stroke:#000;stroke-linecap:round;stroke-linejoin:round"/></g><g style="opacity:0.30000001192092896"><path d="M396.43,16.27,385.25,294.78a154.92,154.92,0,0,0,18.11,1.7H439.5a103.53,103.53,0,0,0,16.75-1.73L450.66,16.3" style="fill:none;stroke:#000;stroke-linecap:round;stroke-linejoin:round"/><path d="M436.78,264.94l0,10.31M435.9,64.11l.84,191.68M435.68,14.33l.19,44.06M421.16,115l1.93,127.62M419.66,15.48,421,107m-13.43,43.47L407.07,269M408,66.4l-.34,74.39m.56-124.17L408,57.25" style="fill:none;stroke:#000;stroke-linecap:round;stroke-linejoin:round"/></g><g style="opacity:0.30000001192092896"><path d="M267.4,41.15h25.41V70.8H269.1" style="fill:none;stroke:#000;stroke-linecap:round;stroke-linejoin:round"/><path d="M297.25,41.22h26.56V71H297.25Z" style="fill:none;stroke:#000;stroke-linejoin:round"/></g><g style="opacity:0.30000001192092896"><path d="M395.17,41.15H369.75V70.8h23.72" style="fill:none;stroke:#000;stroke-linecap:round;stroke-linejoin:round"/><path d="M365.32,71H338.76V41.22h26.56Z" style="fill:none;stroke:#000;stroke-linejoin:round"/></g><path d="M271.6,175.87h52.89V87H269.27m123.22-.75H338.44v89.64h50M273.34,197h51.15v89.35H277.21M389,196.21H338.44v90.93h46.1M277,292.82H385.25m-118.06-262H395.1" style="fill:none;stroke:#000;stroke-linecap:round;stroke-linejoin:round;isolation:isolate;opacity:0.30000001192092896"/><path d="M331.45,31.47V291.59" style="fill:none;stroke:#000;stroke-linecap:round;stroke-linejoin:round;isolation:isolate;opacity:0.30000001192092896"/><path d="M268.81,80.11H393.24" style="fill:none;stroke:#000;stroke-linecap:round;stroke-linejoin:round;isolation:isolate;opacity:0.30000001192092896"/><path d="M409.62,235.67l13.45,128.81" style="fill:none;stroke:#263238;stroke-linecap:round;stroke-linejoin:round;stroke-width:2px"/><path d="M421.3,343.56,415,336.89" style="fill:none;stroke:#263238;stroke-linecap:round;stroke-linejoin:round;stroke-width:2px"/><path d="M416.91,338.89a7.13,7.13,0,0,0-2.51-5.35c-1.62-1.45-10.15-5-11-2C402.56,334.77,411.29,341.19,416.91,338.89Z" style="fill:#d3e4cd;stroke:#263238;stroke-linejoin:round"/><path d="M416.91,338.89l-8.12-5.06" style="fill:none;stroke:#263238;stroke-linecap:round;stroke-linejoin:round;stroke-width:0.5px"/><path d="M422.89,358.73l-6.31-6.66" style="fill:none;stroke:#263238;stroke-linecap:round;stroke-linejoin:round;stroke-width:2px"/><path d="M418.5,354.06a7.13,7.13,0,0,0-2.51-5.35c-1.62-1.45-10.15-5-11-2C404.14,349.94,412.87,356.36,418.5,354.06Z" style="fill:#d3e4cd;stroke:#263238;stroke-linejoin:round"/><path d="M418.49,354.06,410.37,349" style="fill:none;stroke:#263238;stroke-linecap:round;stroke-linejoin:round;stroke-width:0.5px"/><path d="M417.44,306.53l-6.31-6.67" style="fill:none;stroke:#263238;stroke-linecap:round;stroke-linejoin:round;stroke-width:2px"/><path d="M413.05,301.86a7.13,7.13,0,0,0-2.55-5.38c-1.62-1.45-10.14-5-10.95-2C398.7,297.74,407.42,304.16,413.05,301.86Z" style="fill:#d3e4cd;stroke:#263238;stroke-linejoin:round"/><path d="M413.05,301.86l-8.12-5.06" style="fill:none;stroke:#263238;stroke-linecap:round;stroke-linejoin:round;stroke-width:0.5px"/><path d="M419,321.71,412.71,315" style="fill:none;stroke:#263238;stroke-linecap:round;stroke-linejoin:round;stroke-width:2px"/><path d="M414.63,317a7.19,7.19,0,0,0-2.51-5.36c-1.62-1.45-10.15-5-11-2C400.28,312.92,409,319.33,414.63,317Z" style="fill:#d3e4cd;stroke:#263238;stroke-linejoin:round"/><path d="M414.63,317,406.51,312" style="fill:none;stroke:#263238;stroke-linecap:round;stroke-linejoin:round;stroke-width:0.5px"/><path d="M414.87,281.88l-6.32-6.66" style="fill:none;stroke:#263238;stroke-linecap:round;stroke-linejoin:round;stroke-width:2px"/><path d="M410.5,277.21a7.13,7.13,0,0,0-2.51-5.35c-1.62-1.45-10.15-5-11-2C396.12,273.09,404.85,279.48,410.5,277.21Z" style="fill:#d3e4cd;stroke:#263238;stroke-linejoin:round"/><path d="M410.47,277.21l-8.12-5.06" style="fill:none;stroke:#263238;stroke-linecap:round;stroke-linejoin:round;stroke-width:0.5px"/><path d="M412.28,257.13,406,250.46" style="fill:none;stroke:#263238;stroke-linecap:round;stroke-linejoin:round;stroke-width:2px"/><path d="M407.89,252.48a7.19,7.19,0,0,0-2.51-5.36c-1.62-1.45-10.15-5-11-2C393.5,248.34,402.27,254.75,407.89,252.48Z" style="fill:#d3e4cd;stroke:#263238;stroke-linejoin:round"/><path d="M407.89,252.46l-8.12-5.06" style="fill:none;stroke:#263238;stroke-linecap:round;stroke-linejoin:round;stroke-width:0.5px"/><path d="M420.24,334.58l4.8-7.83" style="fill:none;stroke:#263238;stroke-linecap:round;stroke-linejoin:round;stroke-width:2px"/><path d="M423.58,329.1a7.14,7.14,0,0,1,1.35-5.75c1.29-1.75,8.89-7,10.3-4.25C436.77,322.11,429.55,330.19,423.58,329.1Z" style="fill:#d3e4cd;stroke:#263238;stroke-linejoin:round"/><path d="M423.58,329.11l7.31-7" style="fill:none;stroke:#263238;stroke-linecap:round;stroke-linejoin:round;stroke-width:0.5px"/><path d="M416.08,294.65l4.8-7.83" style="fill:none;stroke:#263238;stroke-linecap:round;stroke-linejoin:round;stroke-width:2px"/><path d="M419.41,289.17a7.14,7.14,0,0,1,1.35-5.75c1.29-1.75,8.89-7,10.31-4.25C432.6,282.18,425.39,290.26,419.41,289.17Z" style="fill:#d3e4cd;stroke:#263238;stroke-linejoin:round"/><path d="M419.41,289.17l7.31-7" style="fill:none;stroke:#263238;stroke-linecap:round;stroke-linejoin:round;stroke-width:0.5px"/><path d="M414.24,277.1l4.8-7.82" style="fill:none;stroke:#263238;stroke-linecap:round;stroke-linejoin:round;stroke-width:2px"/><path d="M417.58,271.63a7.17,7.17,0,0,1,1.35-5.76c1.29-1.75,8.89-7,10.3-4.25C430.77,264.63,423.55,272.71,417.58,271.63Z" style="fill:#d3e4cd;stroke:#263238;stroke-linejoin:round"/><path d="M417.58,271.63l7.31-7" style="fill:none;stroke:#263238;stroke-linecap:round;stroke-linejoin:round;stroke-width:0.5px"/><path d="M411.56,251.38l4.8-7.83" style="fill:none;stroke:#263238;stroke-linecap:round;stroke-linejoin:round;stroke-width:2px"/><path d="M414.9,245.9a7.17,7.17,0,0,1,1.35-5.76c1.28-1.75,8.89-7,10.3-4.25C428.08,238.91,420.87,247,414.9,245.9Z" style="fill:#d3e4cd;stroke:#263238;stroke-linejoin:round"/><path d="M414.9,245.9l7.31-7" style="fill:none;stroke:#263238;stroke-linecap:round;stroke-linejoin:round;stroke-width:0.5px"/><path d="M409.5,234.93a7.17,7.17,0,0,1,1.35-5.76c1.29-1.75,8.89-7,10.3-4.25C422.7,227.94,415.5,236,409.5,234.93Z" style="fill:#d3e4cd;stroke:#263238;stroke-linejoin:round"/><path d="M409.51,234.93l7.31-7" style="fill:none;stroke:#263238;stroke-linecap:round;stroke-linejoin:round;stroke-width:0.5px"/><path d="M409.93,235.23a7.12,7.12,0,0,1-5.58-1.95c-1.61-1.46-6.05-9.58-3.15-10.69,3.16-1.21,10.44,6.81,8.73,12.64Z" style="fill:#d3e4cd;stroke:#263238;stroke-linejoin:round"/><path d="M409.93,235.23l-6.18-8" style="fill:none;stroke:#263238;stroke-linecap:round;stroke-linejoin:round;stroke-width:0.5px"/><path d="M446.35,254,434.84,365" style="fill:none;stroke:#263238;stroke-linecap:round;stroke-linejoin:round;stroke-width:2px"/><path d="M435.57,362l-4.81-7.83" style="fill:none;stroke:#263238;stroke-linecap:round;stroke-linejoin:round;stroke-width:2px"/><path d="M432.23,356.55a7.14,7.14,0,0,0-1.36-5.75c-1.29-1.75-8.89-7-10.3-4.25-1.54,3,5.68,11.09,11.66,10Z" style="fill:#d3e4cd;stroke:#263238;stroke-linejoin:round"/><path d="M432.23,356.55l-6.91-6.62" style="fill:none;stroke:#263238;stroke-linecap:round;stroke-linejoin:round;stroke-width:0.5px"/><path d="M439.41,325l-4.81-7.83" style="fill:none;stroke:#263238;stroke-linecap:round;stroke-linejoin:round;stroke-width:2px"/><path d="M436.07,319.48a7.14,7.14,0,0,0-1.36-5.75c-1.29-1.75-8.89-7-10.3-4.25-1.54,3.06,5.68,11.13,11.66,10Z" style="fill:#d3e4cd;stroke:#263238;stroke-linejoin:round"/><path d="M436.07,319.52l-6.9-6.62" style="fill:none;stroke:#263238;stroke-linecap:round;stroke-linejoin:round;stroke-width:0.5px"/><path d="M437.83,340.17l-4.8-7.82" style="fill:none;stroke:#263238;stroke-linecap:round;stroke-linejoin:round;stroke-width:2px"/><path d="M434.5,334.7a7.17,7.17,0,0,0-1.35-5.76c-1.29-1.75-8.9-7-10.31-4.24C421.3,327.71,428.5,335.79,434.5,334.7Z" style="fill:#d3e4cd;stroke:#263238;stroke-linejoin:round"/><path d="M434.49,334.7l-6.9-6.62" style="fill:none;stroke:#263238;stroke-linecap:round;stroke-linejoin:round;stroke-width:0.5px"/><path d="M442,300.35l-4.81-7.83" style="fill:none;stroke:#263238;stroke-linecap:round;stroke-linejoin:round;stroke-width:2px"/><path d="M438.63,294.87a7.14,7.14,0,0,0-1.36-5.75c-1.29-1.75-8.89-7-10.3-4.25-1.54,3,5.68,11.09,11.66,10Z" style="fill:#d3e4cd;stroke:#263238;stroke-linejoin:round"/><path d="M438.63,294.87l-6.91-6.62" style="fill:none;stroke:#263238;stroke-linecap:round;stroke-linejoin:round;stroke-width:0.5px"/><path d="M444.53,275.59l-4.8-7.83" style="fill:none;stroke:#263238;stroke-linecap:round;stroke-linejoin:round;stroke-width:2px"/><path d="M441.2,270.11a7.14,7.14,0,0,0-1.36-5.75c-1.29-1.75-8.89-7-10.3-4.25-1.54,3,5.68,11.09,11.66,10Z" style="fill:#d3e4cd;stroke:#263238;stroke-linejoin:round"/><path d="M441.2,270.11l-6.91-6.62" style="fill:none;stroke:#263238;stroke-linecap:round;stroke-linejoin:round;stroke-width:0.5px"/><path d="M436.38,353l6.3-6.67" style="fill:none;stroke:#263238;stroke-linecap:round;stroke-linejoin:round;stroke-width:2px"/><path d="M440.77,348.35a7.15,7.15,0,0,1,2.51-5.36c1.62-1.44,10.14-5,11-2C455.11,344.22,446.39,350.64,440.77,348.35Z" style="fill:#d3e4cd;stroke:#263238;stroke-linejoin:round"/><path d="M440.77,348.35l8.59-5.33" style="fill:none;stroke:#263238;stroke-linecap:round;stroke-linejoin:round;stroke-width:0.5px"/><path d="M440.52,313.09l6.31-6.67" style="fill:none;stroke:#263238;stroke-linecap:round;stroke-linejoin:round;stroke-width:2px"/><path d="M444.91,308.42a7.19,7.19,0,0,1,2.51-5.36c1.62-1.45,10.14-5,11-2C459.26,304.29,450.5,310.71,444.91,308.42Z" style="fill:#d3e4cd;stroke:#263238;stroke-linejoin:round"/><path d="M444.91,308.42l8.59-5.33" style="fill:none;stroke:#263238;stroke-linecap:round;stroke-linejoin:round;stroke-width:0.5px"/><path d="M442.34,295.54l6.31-6.67" style="fill:none;stroke:#263238;stroke-linecap:round;stroke-linejoin:round;stroke-width:2px"/><path d="M446.73,290.87a7.19,7.19,0,0,1,2.51-5.36c1.62-1.45,10.15-5,11-2C461.08,286.74,452.35,293.16,446.73,290.87Z" style="fill:#d3e4cd;stroke:#263238;stroke-linejoin:round"/><path d="M446.73,290.87l8.59-5.33" style="fill:none;stroke:#263238;stroke-linecap:round;stroke-linejoin:round;stroke-width:0.5px"/><path d="M445,269.81l6.31-6.67" style="fill:none;stroke:#263238;stroke-linecap:round;stroke-linejoin:round;stroke-width:2px"/><path d="M449.4,265.14a7.13,7.13,0,0,1,2.51-5.35c1.62-1.45,10.15-5,11-2C463.75,261,455,267.48,449.4,265.14Z" style="fill:#d3e4cd;stroke:#263238;stroke-linejoin:round"/><path d="M449.4,265.14l8.59-5.33" style="fill:none;stroke:#263238;stroke-linecap:round;stroke-linejoin:round;stroke-width:0.5px"/><path d="M446.39,253.3a7.19,7.19,0,0,1,2.51-5.36c1.62-1.45,10.14-5,11-2C460.73,249.17,452,255.59,446.39,253.3Z" style="fill:#d3e4cd;stroke:#263238;stroke-linejoin:round"/><path d="M446.39,253.3,455,248" style="fill:none;stroke:#263238;stroke-linecap:round;stroke-linejoin:round;stroke-width:0.5px"/><path d="M446.74,253.68a7.16,7.16,0,0,1-5.06-3.06c-1.27-1.76-3.95-10.62-.88-11.11,3.34-.53,8.81,8.82,5.94,14.17Z" style="fill:#d3e4cd;stroke:#263238;stroke-linejoin:round"/><path d="M446.74,253.68l-4.4-9.11" style="fill:none;stroke:#263238;stroke-linecap:round;stroke-linejoin:round;stroke-width:0.5px"/><path d="M430.48,199.71V365" style="fill:none;stroke:#263238;stroke-linecap:round;stroke-linejoin:round;stroke-width:2px"/><path d="M430.62,343.07,425,335.79" style="fill:none;stroke:#263238;stroke-linecap:round;stroke-linejoin:round;stroke-width:2px"/><path d="M426.73,338a7.14,7.14,0,0,0-1.94-5.58c-1.46-1.61-9.57-6.06-10.69-3.16C412.89,332.39,420.9,339.67,426.73,338Z" style="fill:#d3e4cd;stroke:#263238;stroke-linejoin:round"/><path d="M426.73,338l-7.55-5.87" style="fill:none;stroke:#263238;stroke-linecap:round;stroke-linejoin:round;stroke-width:0.5px"/><path d="M430.62,311.36,425,304.08" style="fill:none;stroke:#263238;stroke-linecap:round;stroke-linejoin:round;stroke-width:2px"/><path d="M426.73,306.26a7.14,7.14,0,0,0-1.94-5.58c-1.46-1.61-9.57-6.06-10.69-3.16C412.89,300.68,420.9,308,426.73,306.26Z" style="fill:#d3e4cd;stroke:#263238;stroke-linejoin:round"/><path d="M426.73,306.26l-7.55-5.87" style="fill:none;stroke:#263238;stroke-linecap:round;stroke-linejoin:round;stroke-width:0.5px"/><path d="M430.62,274.14,425,266.85" style="fill:none;stroke:#263238;stroke-linecap:round;stroke-linejoin:round;stroke-width:2px"/><path d="M426.73,269a7.14,7.14,0,0,0-1.94-5.58c-1.46-1.61-9.57-6.06-10.69-3.16C412.89,263.48,420.9,270.73,426.73,269Z" style="fill:#d3e4cd;stroke:#263238;stroke-linejoin:round"/><path d="M426.73,269l-7.55-5.87" style="fill:none;stroke:#263238;stroke-linecap:round;stroke-linejoin:round;stroke-width:0.5px"/><path d="M430.62,249.35,425,242.07" style="fill:none;stroke:#263238;stroke-linecap:round;stroke-linejoin:round;stroke-width:2px"/><path d="M426.73,244.25a7.14,7.14,0,0,0-1.94-5.58c-1.46-1.61-9.57-6.07-10.69-3.16C412.89,238.67,420.9,246,426.73,244.25Z" style="fill:#d3e4cd;stroke:#263238;stroke-linejoin:round"/><path d="M426.73,244.25l-7.55-5.87" style="fill:none;stroke:#263238;stroke-linecap:round;stroke-linejoin:round;stroke-width:0.5px"/><path d="M430.62,224.46,425,217.17" style="fill:none;stroke:#263238;stroke-linecap:round;stroke-linejoin:round;stroke-width:2px"/><path d="M426.73,219.36a7.18,7.18,0,0,0-1.94-5.59c-1.46-1.6-9.57-6.06-10.69-3.15C412.89,213.77,420.9,221.06,426.73,219.36Z" style="fill:#d3e4cd;stroke:#263238;stroke-linejoin:round"/><path d="M426.73,219.36l-7.55-5.87" style="fill:none;stroke:#263238;stroke-linecap:round;stroke-linejoin:round;stroke-width:0.5px"/><path d="M430.49,352.76l5.59-7.29" style="fill:none;stroke:#263238;stroke-linecap:round;stroke-linejoin:round;stroke-width:2px"/><path d="M434.38,347.66a7.18,7.18,0,0,1,1.94-5.59c1.46-1.61,9.57-6.06,10.69-3.16C448.22,342.07,440.21,349.36,434.38,347.66Z" style="fill:#d3e4cd;stroke:#263238;stroke-linejoin:round"/><path d="M434.38,347.66l8-6.19" style="fill:none;stroke:#263238;stroke-linecap:round;stroke-linejoin:round;stroke-width:0.5px"/><path d="M430.49,302.32l5.59-7.28" style="fill:none;stroke:#263238;stroke-linecap:round;stroke-linejoin:round;stroke-width:2px"/><path d="M434.38,297.22a7.14,7.14,0,0,1,1.94-5.58c1.46-1.61,9.57-6.06,10.69-3.16C448.22,291.64,440.21,298.92,434.38,297.22Z" style="fill:#d3e4cd;stroke:#263238;stroke-linejoin:round"/><path d="M434.38,297.22l8-6.19" style="fill:none;stroke:#263238;stroke-linecap:round;stroke-linejoin:round;stroke-width:0.5px"/><path d="M430.49,277.43l5.59-7.28" style="fill:none;stroke:#263238;stroke-linecap:round;stroke-linejoin:round;stroke-width:2px"/><path d="M434.38,272.33a7.14,7.14,0,0,1,1.94-5.58c1.46-1.61,9.57-6.06,10.69-3.16C448.22,266.75,440.21,274,434.38,272.33Z" style="fill:#d3e4cd;stroke:#263238;stroke-linejoin:round"/><path d="M434.38,272.33l8-6.19" style="fill:none;stroke:#263238;stroke-linecap:round;stroke-linejoin:round;stroke-width:0.5px"/><path d="M430.49,244.53l5.59-7.28" style="fill:none;stroke:#263238;stroke-linecap:round;stroke-linejoin:round;stroke-width:2px"/><path d="M434.38,239.48a7.14,7.14,0,0,1,1.94-5.58c1.46-1.61,9.57-6.06,10.69-3.16C448.22,233.85,440.21,241.13,434.38,239.48Z" style="fill:#d3e4cd;stroke:#263238;stroke-linejoin:round"/><path d="M434.38,239.43l8-6.19" style="fill:none;stroke:#263238;stroke-linecap:round;stroke-linejoin:round;stroke-width:0.5px"/><path d="M430.49,218.67l5.59-7.29" style="fill:none;stroke:#263238;stroke-linecap:round;stroke-linejoin:round;stroke-width:2px"/><path d="M434.38,213.57a7.18,7.18,0,0,1,1.94-5.59c1.46-1.61,9.57-6.06,10.69-3.16C448.22,208,440.21,215.27,434.38,213.57Z" style="fill:#d3e4cd;stroke:#263238;stroke-linejoin:round"/><path d="M434.38,213.57l8-6.19" style="fill:none;stroke:#263238;stroke-linecap:round;stroke-linejoin:round;stroke-width:0.5px"/><path d="M430.16,202.1a7.16,7.16,0,0,1,1.94-5.62c1.46-1.61,9.57-6.06,10.69-3.16C444,196.48,436,203.8,430.16,202.1Z" style="fill:#d3e4cd;stroke:#263238;stroke-linejoin:round"/><path d="M430.16,202.1l8-6.19" style="fill:none;stroke:#263238;stroke-linecap:round;stroke-linejoin:round;stroke-width:0.5px"/><path d="M430.55,202.48A7.09,7.09,0,0,1,425.2,200c-1.45-1.62-5-10.15-2-11C426.5,188.09,432.85,196.82,430.55,202.48Z" style="fill:#d3e4cd;stroke:#263238;stroke-linejoin:round"/><path d="M430.55,202.44l-5.32-8.6" style="fill:none;stroke:#263238;stroke-linecap:round;stroke-linejoin:round;stroke-width:0.5px"/><path d="M.5,365H469" style="fill:none;stroke:#263238;stroke-linecap:round;stroke-linejoin:round"/><path d="M157.19,365l-24.73,21.51,32.89,2,21.76-22Z" style="fill:#fff;stroke:#263238;stroke-linejoin:round"/><path d="M187.11,366.5,218.77,368,199,391l-33.63-2.47Z" style="fill:#fff;stroke:#263238;stroke-linejoin:round"/><path d="M155.56,371.6,174.5,373m-27,3.62,24,1.39m-27.58,2.79L167,382.47m8.36,1.11,24,1.68" style="fill:none;stroke:#263238;stroke-linecap:round;stroke-linejoin:round"/><path d="M132.46,386.53l-.49,2,33.38,2v-2Z" style="fill:#263238;stroke:#263238;stroke-linejoin:round"/><path d="M165.35,389.25v1.24L199.72,393l18.8-23.25-.74-1.23L199,391l-33.63-1.73Z" style="fill:#263238;stroke:#263238;stroke-linejoin:round"/><path d="M241.52,371.2,222,396.42,262,398.15l13.6-26-34.12-1Z" style="fill:#919191;stroke:#263238;stroke-linejoin:round"/><path d="M221.49,394.94,219,397.66l41.3,2,1.24-3.22-40.06-1.48Z" style="fill:#919191;stroke:#263238;stroke-linejoin:round"/><path d="M261.55,396.42l.49,1.73,13.6-26,.42,1.3-13.79,27.69-2-1.54Z" style="fill:#263238;stroke:#263238;stroke-linejoin:round"/><path d="M250.84,379.36l2.76-4.07-4.47-.15-3,4,4.75.24Zm-8.49,1.5-4.66-.24L236,382.69l4.86.12Zm-3.07,7.19-1.65,2.15,5.75.2,1.49-2.2-5.59-.15Zm.14-3.36-5-.11L233.31,386l5,.13,1.07-1.41Zm6.22,5.79,6.83.23,1.38-2.27-6.71-.18-1.5,2.22Zm13.61-7.24,7.85.18.72-1.29-7.66-.38-.91,1.49Zm2-3.36,7.58.38,2.44-4.39-7.44-.24Zm-4.08,6.73,8,.21.84-1.5-7.94-.19-.89,1.48Zm-16.5-.44,5.44.14,1-1.44-5.33-.12-1.08,1.42Zm18.4-6.4,2.56-4.22-5.81-.19-2.78,4.11,6,.3Zm-3.05,8.73-1.39,2.29,8.17.27,1.31-2.35Zm-12.3-9.5,3-3.94-4.4-.14-3.16,3.86,4.55.22Zm-6.85,9-5.13-.13-1.72,2.09,5.22.18,1.63-2.14Zm6.32-5.12,5.16.12,1.2-1.76-4.91-.25ZM258,381.64l-6.15-.31L250.67,383l6.37.15Zm-2.09,3.44-6.5-.15-1,1.44,6.58.18Z" style="fill:#fff;stroke:#263238;stroke-linejoin:round"/><path d="M219,397.66l2.57,1.46,40.69,2.06-2-1.54-41.3-2Z" style="fill:#263238;stroke:#263238;stroke-linejoin:round"/><path d="M225.74,395.06l1.92-2.72,33.74,1.28-2.24,2.88Z" style="fill:#fff;stroke:#263238;stroke-linejoin:round"/><ellipse cx="112.74" cy="351.76" rx="14.98" ry="4.8" style="fill:#fff;stroke:#263238;stroke-linejoin:round"/><path d="M114.19,333.75l2-4.2.87,4.51-3.74,35.33a1.42,1.42,0,0,1-1.56,1.28h0a1.44,1.44,0,0,1-1.28-1.58Z" style="fill:#fff;stroke:#263238;stroke-linejoin:round"/><path d="M110.5,369.09a1.44,1.44,0,0,0,2.86.3l.65-6.11-2.86-.27Z" style="fill:#fff;stroke:#263238;stroke-linejoin:round"/><path d="M111.73,370.67a1.43,1.43,0,0,0,1.58-1.26v0l.48-4.5-2.86-.33-.48,4.53A1.44,1.44,0,0,0,111.73,370.67Zm2.46-36.92,0,.23,2.86.33,0-.25-.87-4.51Z" style="fill:#fff;stroke:#263238;stroke-linejoin:round"/><path d="M123.12,336.83l3.14-3.43-.49,4.57-14,32.64a1.45,1.45,0,0,1-1.89.76h0a1.44,1.44,0,0,1-.76-1.89Z" style="fill:#263238;stroke:#263238;stroke-linejoin:round"/><path d="M109.09,369.48a1.44,1.44,0,0,0,2.65,1.13l2.42-5.64-2.66-1.11Z" style="fill:#fff;stroke:#263238;stroke-linejoin:round"/><path d="M109.85,371.37a1.45,1.45,0,0,0,1.89-.76l1.76-4.13-2.64-1.16-1.8,4.19a1.45,1.45,0,0,0,.79,1.86Zm13.27-34.54L123,337l2.64,1.16.1-.23.49-4.57-3.14,3.43Z" style="fill:#fff;stroke:#263238;stroke-linejoin:round"/><path d="M110.05,367.92l-2.88-.1,1.13-35.51a1.43,1.43,0,0,1,1.47-1.39h0a1.43,1.43,0,0,1,1.39,1.47h0Z" style="fill:#263238;stroke:#263238;stroke-linejoin:round"/><path d="M111.17,332.4a1.44,1.44,0,0,0-2.87-.09l-.2,6.14,2.88.06Z" style="fill:#fff;stroke:#263238;stroke-linejoin:round"/><path d="M109.78,330.92a1.43,1.43,0,0,0-1.48,1.38h0l-.15,4.53L111,337l.14-4.55a1.43,1.43,0,0,0-1.38-1.48Zm3,25.64c-8.28,0-15-2.15-15-4.8v33.91c0,2.65,6.7,4.8,15,4.8s15-2.15,15-4.8V351.76C127.71,354.41,121,356.56,112.74,356.56Z" style="fill:#fff;stroke:#263238;stroke-linejoin:round"/><path d="M263.62,310.94c-1.8,16.22-2.91,39-3,54.1h98.76c-.1-15.14-1.21-37.88-3-54.1-1.88-16.95,3.39-23,6.78-42.94s1.51-62.54-1.5-66.69c-1.37-1.88-4.6-2.44-7.73-2.49a42.86,42.86,0,0,1-12.53,19.81c-15.69,14.07-44.72,18.12-65-1.08a37.4,37.4,0,0,1-10.74-18.72c-3,.09-6,.68-7.34,2.48-3,4.15-4.9,46.72-1.51,66.69s8.69,26,6.81,42.94ZM351.5,174.56c3.41,17.67-1.51,32.78-12.44,42.58-14.5,13-41.35,16.74-60.05-1s-9.3-46.46-2.11-46.46,73.36-1.43,74.6,4.88Z" style="fill:#263238;stroke:#263238;stroke-linejoin:round"/><path d="M251.88,364.12l-11.75,1.2c-1.44,0-2.16,1.68-.24,3.36s8.4.72,8.4.72Z" style="fill:#fff;stroke:#263238;stroke-linejoin:round"/><path d="M250.84,231.65v10.83s-18.22,9.27-25.9,12.15-13.11,5.44-14.07,9.91L200,315.71c-.64,5.11-5.44,9.92-5.44,12.79a10.17,10.17,0,0,0,.64,4.16s2.24,10.55,9.91,14.71,14.07-1,17.59-3.84,7-10.23,7-10.23l-2.88,26.86a40.58,40.58,0,0,0-.32,4.8h91.78a480.09,480.09,0,0,1,2.88-57.24c1.26-11.77-1-48.61-4.48-54s-12.79-8.31-20.78-10.55S277.67,239,277.67,239l-.32-4.16Z" style="fill:#fff;stroke:#263238;stroke-linejoin:round"/><path d="M223.27,294l-1.21-7.37m7.68,46.69L224,298.62" style="fill:none;stroke:#263238;stroke-linecap:round;stroke-linejoin:round"/><path d="M263.32,268.42c22,2.75,44.82-17.8,47.68-19.68-4.32-2.45-9.95-4.15-15.06-5.58-8-2.24-18.23-4.16-18.23-4.16l-.32-4.16-26.55-3.19v10.83s-12,6.1-20.61,9.94A55.75,55.75,0,0,0,263.32,268.42Z" style="fill:#fff;stroke:#263238;stroke-linejoin:round"/><path d="M250.84,242.48a125.41,125.41,0,0,1-1.59,13.11M277.71,239s.64,9.27,1.6,12.47" style="fill:none;stroke:#263238;stroke-linecap:round;stroke-linejoin:round"/><path d="M286.85,162.15c-5.88-3.36-18.13-5.78-24.76-4.41-7.07,1.45-16.34,4.51-23.64,10.9-13.67,12-8.63,30.23-7.43,31.9l1.2,1.68a102.27,102.27,0,0,1-2.64,13.68c-2.16,8.63,8.39,17,21.34,19.42s33.82.48,47.49-3.59,16.09-14.88,11.28-30.95-10-30.62-17.91-35.65C290.16,164.1,288.52,163.1,286.85,162.15Z" style="fill:#d3e4cd;stroke:#263238;stroke-linejoin:round"/><path d="M261.11,177a16,16,0,0,1,3-.46m-28.78,24.7s-3.35-1.19-1.92-6c1.17-3.9,14.21-13.49,24.33-17.21m.55-9.4,3.43-.24M230.5,191.48s3.79-18.36,24.67-22.31m16-4.41c-1.88,3.48-4.12,8.2-4.66,11.8M274,160l-.76,1.23m14,11.79a64.49,64.49,0,0,1,16.77,25.12m-24.7-30.94a36.91,36.91,0,0,1,5.87,4m22.26,51.43a14.75,14.75,0,0,1-8.71,6.88m-10.79-46.29s21.83,20.86,21.35,32.38a17.68,17.68,0,0,1-.59,3.9m-16.68-6.08s6.71,3.83,3.84,10.79-7.44,5-7.44,5" style="fill:none;stroke:#263238;stroke-linecap:round;stroke-linejoin:round"/><path d="M265.84,181.1a82.67,82.67,0,0,1-18.16,13.84l-11.53,6.63s6.92,25.65,10.09,30.55,8.64,12.1,16.43,12.1S282,233,282.55,231s3.17-12.4,3.17-12.4a7.28,7.28,0,0,0,2.88-3.46,21.81,21.81,0,0,0,.58-4.9s-13-12.39-17.58-17.87a27.7,27.7,0,0,1-5.76-11.24Z" style="fill:#fff;stroke:#263238;stroke-linejoin:round"/><path d="M256.5,207.55l-19.21-1.28a1.11,1.11,0,0,0-1.18,1,1,1,0,0,0,0,.29c.58,2.91,2.06,9.44,4.06,11,2.6,2,10.27,1.69,11.83,1.69,3.31,0,5.24-9,5.45-10v-1.63A1.11,1.11,0,0,0,256.5,207.55Zm6,.55,19.25.52a1.09,1.09,0,0,1,1.05,1.13,1.26,1.26,0,0,1-.05.28c-.84,2.84-2.93,9.2-5.07,10.56-2.77,1.77-10.38.72-11.93.58-3.3-.31-4.39-9.4-4.5-10.42a.61.61,0,0,1,0-.19l.1-1.43a1.09,1.09,0,0,1,1.15-1Z" style="fill:none;stroke:#263238;stroke-linejoin:round;stroke-width:2px"/><path d="M256.49,207.55l6,.55m-4.63,1.72,3.41.11m21.72-.64,3.09-2" style="fill:none;stroke:#263238;stroke-linecap:round;stroke-linejoin:round;stroke-width:2px"/><path d="M271.5,212.38c0,1.35-.62,2.45-1.38,2.45s-1.39-1.1-1.39-2.45.62-2.45,1.39-2.45,1.38,1.09,1.38,2.45Zm-21.09-.54c0,1.36-.62,2.45-1.38,2.45s-1.39-1.09-1.39-2.45.62-2.44,1.39-2.44S250.41,210.48,250.41,211.84Z" style="fill:#263238"/><path d="M257.4,213.42l-2.72,10.71c-.32,1.12,1.44,2.24,4.64,1.12m-4.64,5.28s5.76,1.43,10.24-.32m0-23.83s3.19-3.68,13.27-.16m-23-.64s-5.91-4.64-12.63-1" style="fill:none;stroke:#263238;stroke-linecap:round;stroke-linejoin:round"/><path d="M304.36,277.91l-1,45.84c-.66,7.58,1,14.18,8.44,18.14s16.89,3.63,19.93,2.64,13.85-6.6,12.5-15.17-10.47-37.27-14.53-50.79-4.73-19.79-10.14-24.09-7.06-5.46-11.79-2.16" style="fill:#fff;stroke:#263238;stroke-linecap:round;stroke-linejoin:round"/><path d="M185.92,359.88l4.16-6.07s11.52-3.52,16-6.08,7.36-9.91,2.88-14.71-11.83-6.39-17-2.56-7,10.88-9.91,12.79-14.71,4.8-17.91,5.44-4.48,3.2-3.84,5.44,2.88,11.19,4.48,12.47,7,5.12,10.87,5.12,7.68-4.48,9-4.8a4.1,4.1,0,0,0,1.22-7Z" style="fill:#fff;stroke:#263238;stroke-linejoin:round"/><path d="M178.33,349.64s-1.51,14.09-1,14.63a4.84,4.84,0,0,0,4,.82c1.64-.41,3.82-11.07,3.82-13.26a13.84,13.84,0,0,0-1.5-5.06" style="fill:none;stroke:#263238;stroke-linecap:round;stroke-linejoin:round"/><path d="M168.75,350.73s4.65,8.35,6.43,9.58l1.78,1.23m-13.27-6.29s4.65,8.61,7,9.71,7.66,3.14,13,2.73" style="fill:none;stroke:#263238;stroke-linecap:round;stroke-linejoin:round"/><path d="M169.5,337.27l5.69,23,1.64.54.28-2.46-4.87-21.77a1.41,1.41,0,0,0-1.71-1l-.07,0h0a1.41,1.41,0,0,0-1,1.69Z" style="fill:#263238;stroke:#263238;stroke-linejoin:round"/><path d="M167.39,368.24l7.52,2.32a10.9,10.9,0,0,0,5.74-.54m5.27-10.14a3.37,3.37,0,0,1-2.63,1.6" style="fill:none;stroke:#263238;stroke-linecap:round;stroke-linejoin:round"/><path d="M309.5,332.48l-36.94,24c-1.94,1-21.11,6.23-24,7.91s-4.8,8.88-6,11.27-2.4,9.12-2.4,9.12a4,4,0,0,0,3.36,1.2c2.16-.24,4.56-9.36,4.56-9.36l4.79-6.95s-3.12,6.95-3.12,8.63-1.19,6.24-1.19,7,1.43,1.68,3.35.72,3.36-8.16,3.36-8.16l4.08-6.71s-3.12,9.35-4.08,11.27-1.2,2.64,1.44,2.4,2.88-3.12,3.6-5,2.4-5.51,2.4-5.51L267.5,371s-3.11,6.71-4.07,8.39-1.92,2.16,1.44,2.16,5.51-7.43,5.51-7.43a45.39,45.39,0,0,0,3.6-2.88c1-1,4.56-6.48,4.56-6.48l47.73-16.79c5-2.4,5.51-6,3.59-9.11S319.5,328.38,309.5,332.48Zm3.54,72.2-30.92-25.8h55.14Z" style="fill:#fff;stroke:#263238;stroke-linejoin:round"/><path d="M314.34,401.56l-12.55-11.32h19.93Z" style="fill:#263238;stroke:#263238;stroke-linejoin:round"/><path d="M406.55,404.68H313l14.26-59.33h93.51Z" style="fill:#fff;stroke:#263238;stroke-linejoin:round"/><path d="M413.34,376.48c-17.33,2.75-34,13-54.47,19a225.1,225.1,0,0,1-45.61,8.31l-.22.92h93.51Z" style="fill:#263238;stroke:#263238;stroke-linejoin:round"/><ellipse cx="369.28" cy="375.79" rx="6.55" ry="5.01" style="fill:#fff;stroke:#263238;stroke-linejoin:round"/></svg>