<svg xmlns="http://www.w3.org/2000/svg" viewBox="0 0 485.05 456.01"><defs><style>.cls-1,.cls-4,.cls-6{fill:#263238;}.cls-13,.cls-2,.cls-5{fill:none;}.cls-10,.cls-11,.cls-12,.cls-13,.cls-14,.cls-15,.cls-2,.cls-3,.cls-4,.cls-5,.cls-6,.cls-7,.cls-8,.cls-9{stroke:#263238;}.cls-10,.cls-11,.cls-2,.cls-7{stroke-linecap:round;}.cls-10,.cls-11,.cls-12,.cls-2,.cls-3,.cls-4,.cls-5,.cls-7,.cls-8{stroke-linejoin:round;}.cls-12,.cls-15,.cls-3{fill:#fff;}.cls-13,.cls-14,.cls-15,.cls-6,.cls-9{stroke-miterlimit:10;}.cls-7{fill:gray;}.cls-10,.cls-14,.cls-8{fill:#a8a8a8;}.cls-9{fill:#bae6fd;}.cls-11{fill:#575757;}.cls-12{stroke-width:0.5px;}</style></defs><g id="Layer_2" data-name="Layer 2"><g id="Layer_1-2" data-name="Layer 1"><g id="freepik--Plants--inject-42"><path class="cls-1" d="M71.08,344.84c1.76.77,6.07.67,6.07.67s-.92-2.82-1-3c-.94-2-3.93-5.23-6.36-4.91a2.91,2.91,0,0,0-2.39,3.34c0,.1,0,.2.06.3C67.86,342.94,69.58,344.19,71.08,344.84Z"/><path class="cls-1" d="M72.57,357.31c1.82.27,5.67-.85,6-.94a52.78,52.78,0,0,0,2.33,6.45c.53,1.22,1.1,2.44,1.69,3.65a8.1,8.1,0,0,0-.72-1c-1.43-1.66-5.18-4-7.43-3.05A2.88,2.88,0,0,0,73,366.24c0,.1.1.2.15.3.83,1.52,2.83,2.27,4.45,2.5s4.94-.64,5.8-.89l.69,1.39c1.11,2.22,2.23,4.42,3.26,6.62.37.77.7,1.55,1,2.32l-.62-.89c-1.44-1.65-5.18-4-7.43-3a2.88,2.88,0,0,0-1.44,3.82c0,.1.1.2.15.3.83,1.52,2.83,2.27,4.45,2.5s4.61-.56,5.65-.84c.31.8.63,1.6.9,2.4.18.54.38,1.06.52,1.61s.31,1.1.46,1.64c.25,1,.52,2.12.74,3.15l.43,2.09c-.35-.78-1.07-2.28-1.15-2.4-1.16-1.85-4.51-4.75-6.88-4.14a2.89,2.89,0,0,0-2,3.58c0,.1.06.2.1.3.6,1.62,2.46,2.67,4,3.15,1.72.52,5.53,0,6,0,.23,1.14.44,2.25.62,3.3.41,2.32.72,4.4,1,6.16h1.6c-.28-1.82-.64-4-1.13-6.43-.23-1.16-.49-2.39-.78-3.65a32.12,32.12,0,0,0,3.36-1.58,21.32,21.32,0,0,0,4.88,3.15c-.43,1.08-.87,2.12-1.3,3.1-.89,2.05-1.73,3.86-2.48,5.41h1.72c.64-1.43,1.35-3.05,2.08-4.84.45-1.1.91-2.27,1.37-3.48.46.09,4.23.86,6,.46,1.6-.36,3.53-1.26,4.25-2.84a2.91,2.91,0,0,0-1.35-3.89l-.26-.11c-2.32-.78-5.87,1.86-7.17,3.62-.08.11-.78,1.33-1.22,2.11l.56-1.49c.37-1,.71-2,1.08-3.13.16-.53.32-1.08.49-1.62s.28-1.13.43-1.7c.32-1.33.57-2.69.8-4.06.89.32,4,1.42,5.69,1.3s3.68-.71,4.62-2.16a2.89,2.89,0,0,0-.72-4,2.61,2.61,0,0,0-.28-.17c-2.18-1.12-6.09.95-7.64,2.49-.1.1-1.09,1.33-1.62,2,.13-.83.27-1.65.37-2.5.3-2.43.53-4.9.77-7.36l.24-2.26c.31.12,4,1.51,5.88,1.38,1.63-.11,3.68-.71,4.62-2.17a2.89,2.89,0,0,0-.71-4l-.29-.17c-2.18-1.13-6.09,1-7.64,2.49-.12.12-1.54,1.89-1.88,2.36.18-1.65.37-3.3.62-4.92a54.56,54.56,0,0,1,1.41-6.48c.15.06,4,1.53,5.92,1.39,1.63-.11,3.68-.71,4.62-2.16a2.89,2.89,0,0,0-.72-4,2.61,2.61,0,0,0-.28-.17c-2.18-1.12-6.09.95-7.64,2.49-.12.13-1.65,2-1.9,2.41l.09-.38a38.36,38.36,0,0,1,2.57-6.13c.56-1.09,1.15-2.1,1.75-3.08.7.35,3.9,1.91,5.6,2s3.74-.3,4.84-1.64a2.91,2.91,0,0,0-.27-4.11c-.08-.06-.16-.13-.24-.18-2-1.36-6.16.28-7.87,1.64-.09.07-1,.93-1.57,1.57.27-.44.55-.89.83-1.3,1-1.55,2.06-2.9,3-4.09.54-.67,1-1.27,1.5-1.82.86,0,4.33-.12,5.85-.83s3.17-2,3.53-3.69a2.89,2.89,0,0,0-2.12-3.51,1.55,1.55,0,0,0-.31-.06c-2.44-.26-5.33,3.08-6.23,5.08-.07.17-1,3-.92,3h0c-.46.53-1,1.09-1.47,1.72-1,1.18-2,2.51-3.08,4a50.56,50.56,0,0,0-3.2,5.09,38,38,0,0,0-2.73,6.15v-2.8c-.28-2.18-2.1-6.21-4.51-6.65a2.89,2.89,0,0,0-3.31,2.41,3.11,3.11,0,0,0,0,.32c-.14,1.72,1.11,3.45,2.33,4.54,1.38,1.23,5.2,2.42,5.5,2.51a52.1,52.1,0,0,0-1.61,6.66c-.24,1.32-.43,2.65-.61,4V365c-.28-2.18-2.1-6.21-4.51-6.65a2.89,2.89,0,0,0-3.31,2.41,3.11,3.11,0,0,0,0,.32c-.14,1.72,1.11,3.45,2.33,4.54s4.47,2.18,5.33,2.46c-.06.51-.13,1-.19,1.54-.3,2.46-.58,4.91-.93,7.32-.12.84-.28,1.67-.43,2.5v-1.09c-.28-2.17-2.1-6.2-4.51-6.64A2.89,2.89,0,0,0,98,374.16a3.11,3.11,0,0,0,0,.32c-.14,1.72,1.11,3.45,2.33,4.54s4.16,2.08,5.18,2.41c-.18.84-.35,1.69-.57,2.5-.15.55-.27,1.09-.45,1.64l-.52,1.61c-.37,1-.75,2.06-1.13,3-.26.68-.53,1.33-.79,2,.13-.84.36-2.5.36-2.64a11.09,11.09,0,0,0-1.51-5.48,2.29,2.29,0,0,0,0-.64,2.9,2.9,0,0,0-3.24-2.52l-.31.06c-2.37.63-3.87,4.79-4,7,0,.12.08,1.53.14,2.42-.12-.52-.23-1-.35-1.55-.25-1-.53-2.08-.83-3.2-.16-.54-.32-1.08-.49-1.62s-.38-1.1-.57-1.66c-.47-1.28-1-2.56-1.58-3.83.92-.22,4.17-1,5.47-2s2.67-2.62,2.66-4.36a2.9,2.9,0,0,0-2.79-3,2,2,0,0,0-.34,0c-2.44.27-4.56,4.15-5,6.3,0,.13-.17,1.7-.23,2.57-.35-.76-.7-1.52-1.07-2.28-1.09-2.2-2.26-4.39-3.42-6.57-.36-.67-.71-1.35-1-2,.32-.07,4.2-1,5.66-2.09,1.3-1,2.68-2.63,2.66-4.36a2.9,2.9,0,0,0-2.79-3,2,2,0,0,0-.34,0c-2.44.27-4.55,4.15-5,6.29,0,.17-.23,2.43-.26,3-.77-1.48-1.52-3-2.2-4.45a52.92,52.92,0,0,1-2.52-6.15c.15,0,4.2-1,5.7-2.1,1.3-1,2.67-2.63,2.66-4.36a2.9,2.9,0,0,0-2.79-3,2,2,0,0,0-.34,0c-2.44.27-4.56,4.15-5,6.29,0,.17-.25,2.61-.26,3.06a1.26,1.26,0,0,0-.13-.37,38.26,38.26,0,0,1-1.24-6.52c-.14-1.22-.2-2.39-.23-3.53.77-.1,4.29-.56,5.75-1.45s3-2.31,3.13-4a2.9,2.9,0,0,0-2.48-3.27l-.31,0c-2.45,0-5,3.62-5.66,5.7,0,.12-.28,1.31-.45,2.18v-1.54c0-1.85.12-3.55.23-5.06.08-.85.16-1.62.25-2.34.71-.49,3.54-2.49,4.41-3.92s1.55-3.41.92-5a2.9,2.9,0,0,0-3.71-1.77,1.78,1.78,0,0,0-.29.12c-2.18,1.13-2.75,5.52-2.39,7.68,0,.18.85,3,.89,3h0c-.09.69-.19,1.44-.27,2.25-.15,1.5-.31,3.2-.35,5.06a52.26,52.26,0,0,0,.14,6,38.27,38.27,0,0,0,1.12,6.63v.08c-.38-.61-1.52-2.26-1.62-2.38-1.43-1.66-5.18-4-7.43-3.06a2.9,2.9,0,0,0-1.44,3.84l.15.29C69,356.37,71,357.07,72.57,357.31Z"/><path class="cls-1" d="M114.62,345.79s.79-2.86.81-3.05c.3-2.17-.39-6.54-2.6-7.6a2.88,2.88,0,0,0-3.82,1.44,2.68,2.68,0,0,0-.12.3c-.6,1.63.15,3.63,1,5C111,343.49,114.62,345.79,114.62,345.79Z"/><path class="cls-1" d="M25.28,388.05a12.72,12.72,0,0,0,3.63.4s-.56-1.68-.61-1.78c-.56-1.19-2.35-3.14-3.8-2.94a1.74,1.74,0,0,0-1.43,2c0,.06,0,.12,0,.18A3.67,3.67,0,0,0,25.28,388.05Z"/><path class="cls-1" d="M26.17,395.5a12.33,12.33,0,0,0,3.57-.56,31.75,31.75,0,0,0,1.39,3.86c.32.73.66,1.46,1,2.18-.21-.31-.4-.58-.43-.61-.86-1-3.09-2.4-4.44-1.83a1.73,1.73,0,0,0-.87,2.27l.1.19a3.67,3.67,0,0,0,2.66,1.5,11.63,11.63,0,0,0,3.47-.53l.41.83c.66,1.32,1.33,2.64,2,3.95.22.47.41.93.61,1.39-.18-.27-.34-.5-.37-.53-.86-1-3.09-2.4-4.44-1.82a1.73,1.73,0,0,0-.87,2.27l.1.19a3.67,3.67,0,0,0,2.66,1.5,11.28,11.28,0,0,0,3.37-.51c.19.48.38,1,.55,1.44s.22.63.31,1l.27,1c.15.62.31,1.27.44,1.89.1.42.18.83.26,1.24-.21-.46-.64-1.36-.69-1.43-.69-1.11-2.69-2.84-4.11-2.48a1.74,1.74,0,0,0-1.2,2.15l.06.17a3.64,3.64,0,0,0,2.41,1.88,12,12,0,0,0,3.59,0c.14.68.26,1.35.37,2,.25,1.38.43,2.62.57,3.68h1c-.17-1.09-.38-2.39-.67-3.84-.14-.7-.3-1.43-.47-2.19a20.27,20.27,0,0,0,2-.94,13.23,13.23,0,0,0,2.92,1.88c-.26.65-.53,1.27-.78,1.85-.53,1.23-1,2.31-1.48,3.24h1c.38-.85.8-1.82,1.24-2.9.27-.65.54-1.35.82-2.08a12,12,0,0,0,3.58.28,3.63,3.63,0,0,0,2.54-1.7,1.72,1.72,0,0,0-.8-2.31l-.2-.08c-1.39-.47-3.51,1.11-4.29,2.16,0,.06-.47.79-.73,1.26.11-.3.22-.58.33-.89.23-.61.43-1.22.65-1.87.1-.32.19-.64.29-1s.17-.68.26-1q.28-1.18.48-2.43A11.45,11.45,0,0,0,50,410a3.64,3.64,0,0,0,2.77-1.3,1.73,1.73,0,0,0-.42-2.41l-.17-.1c-1.3-.68-3.64.56-4.56,1.49-.06.05-.65.79-1,1.2.08-.49.16-1,.22-1.49.18-1.45.32-2.93.46-4.4a12.36,12.36,0,0,1,.14-1.35,12.2,12.2,0,0,0,3.52.82,3.66,3.66,0,0,0,2.76-1.29,1.75,1.75,0,0,0-.42-2.43l-.16-.09c-1.3-.67-3.64.57-4.57,1.49-.07.07-.92,1.13-1.12,1.42.1-1,.22-2,.37-2.95a30.94,30.94,0,0,1,.89-3.95,12.76,12.76,0,0,0,3.54.83A3.64,3.64,0,0,0,55,394.21a1.73,1.73,0,0,0-.41-2.42,1,1,0,0,0-.17-.1c-1.3-.67-3.64.57-4.57,1.49-.07.07-1,1.22-1.13,1.44l.06-.23a21.76,21.76,0,0,1,1.53-3.66c.33-.65.69-1.26,1-1.84a12,12,0,0,0,3.39,1.18,3.66,3.66,0,0,0,2.89-1,1.73,1.73,0,0,0-.16-2.44.44.44,0,0,0-.15-.12c-1.22-.81-3.68.16-4.7,1a11,11,0,0,0-.94.94l.49-.78c.62-.92,1.24-1.73,1.79-2.44.32-.4.61-.76.89-1.09a11.8,11.8,0,0,0,3.5-.5,3.59,3.59,0,0,0,2.11-2.2,1.74,1.74,0,0,0-1.27-2.11l-.18,0c-1.46-.16-3.19,1.84-3.72,3,0,.1-.58,1.8-.56,1.8h0l-.88,1c-.57.7-1.2,1.5-1.84,2.41a30.64,30.64,0,0,0-1.91,3.05,23.16,23.16,0,0,0-1.63,3.67v-1.67c-.17-1.3-1.26-3.71-2.7-4a1.73,1.73,0,0,0-2,1.43c0,.07,0,.13,0,.2a3.68,3.68,0,0,0,1.39,2.72,12.88,12.88,0,0,0,3.29,1.5,30,30,0,0,0-1,4c-.14.79-.26,1.58-.37,2.38V400c-.16-1.3-1.25-3.71-2.69-4a1.75,1.75,0,0,0-2,1.48c0,.05,0,.1,0,.16a3.67,3.67,0,0,0,1.4,2.71A11.64,11.64,0,0,0,47,401.86a7,7,0,0,1-.11.92c-.18,1.47-.35,2.94-.56,4.38-.07.5-.16,1-.25,1.5V408c-.17-1.3-1.25-3.71-2.7-4a1.73,1.73,0,0,0-2,1.45c0,.06,0,.12,0,.18a3.69,3.69,0,0,0,1.4,2.72,11.31,11.31,0,0,0,3.09,1.44c-.1.5-.21,1-.34,1.5-.09.32-.16.65-.27,1s-.21.65-.31,1c-.22.6-.45,1.23-.68,1.81-.15.41-.31.8-.47,1.19.08-.51.22-1.49.22-1.58a6.59,6.59,0,0,0-.9-3.27,2.54,2.54,0,0,0,0-.39,1.73,1.73,0,0,0-1.93-1.51l-.19,0c-1.42.38-2.31,2.86-2.38,4.17a10.74,10.74,0,0,0,.09,1.45c-.08-.31-.14-.61-.22-.92-.15-.63-.31-1.25-.49-1.92-.1-.32-.2-.64-.29-1s-.23-.66-.35-1c-.28-.77-.6-1.53-.94-2.29a11.52,11.52,0,0,0,3.27-1.22,3.63,3.63,0,0,0,1.54-2.49,1.74,1.74,0,0,0-1.69-1.79h-.18c-1.46.16-2.73,2.49-3,3.77,0,.08-.1,1-.14,1.54-.21-.46-.41-.92-.64-1.37-.65-1.31-1.35-2.62-2-3.93-.22-.4-.42-.8-.63-1.2a12.34,12.34,0,0,0,3.39-1.25,3.64,3.64,0,0,0,1.59-2.61,1.74,1.74,0,0,0-1.7-1.78H36c-1.45.16-2.72,2.48-3,3.76,0,.1-.15,1.45-.16,1.8-.46-.89-.91-1.77-1.32-2.66a33.24,33.24,0,0,1-1.43-3.7,12.06,12.06,0,0,0,3.41-1.26,3.57,3.57,0,0,0,1.59-2.6,1.74,1.74,0,0,0-1.69-1.79h-.18c-1.46.16-2.72,2.48-3,3.77,0,.1-.15,1.55-.16,1.82L30,394.7a22.55,22.55,0,0,1-.74-3.9c-.08-.73-.12-1.43-.14-2.11a11.92,11.92,0,0,0,3.44-.87,3.61,3.61,0,0,0,1.87-2.45,1.72,1.72,0,0,0-1.44-2,1.1,1.1,0,0,0-.26,0c-1.47,0-3,2.16-3.38,3.41,0,.07-.17.78-.27,1.3v-.92c0-1.11.08-2.12.15-3a10.85,10.85,0,0,1,.14-1.4A11.62,11.62,0,0,0,32,380.41a3.6,3.6,0,0,0,.55-3,1.74,1.74,0,0,0-2.21-1.08l-.18.08c-1.3.67-1.65,3.29-1.43,4.58,0,.11.51,1.83.53,1.81h0c-.06.42-.12.86-.17,1.35-.09.9-.18,1.91-.21,3a30.8,30.8,0,0,0,.09,3.59,22.58,22.58,0,0,0,.67,4h0c-.23-.36-.91-1.35-1-1.42-.86-1-3.09-2.4-4.44-1.83a1.73,1.73,0,0,0-.85,2.3,1.3,1.3,0,0,0,.08.17A3.63,3.63,0,0,0,26.17,395.5Z"/><path class="cls-1" d="M51.31,388.62s.47-1.71.48-1.83c.18-1.29-.23-3.9-1.55-4.54a1.72,1.72,0,0,0-2.29.84.77.77,0,0,0-.07.16,3.62,3.62,0,0,0,.62,3A13,13,0,0,0,51.31,388.62Z"/><path class="cls-1" d="M397.72,285c-1.76.77-6.07.67-6.07.67s.92-2.82,1-3c.94-2,3.93-5.24,6.36-4.91a2.91,2.91,0,0,1,2.4,3.34c0,.1,0,.2-.07.3C400.9,283.09,399.18,284.37,397.72,285Z"/><path class="cls-1" d="M396.19,297.47c-1.82.26-5.67-.85-6-.94a51.6,51.6,0,0,1-2.33,6.44c-.53,1.23-1.1,2.44-1.69,3.66a7.29,7.29,0,0,1,.72-1c1.43-1.66,5.18-4,7.43-3.06a2.9,2.9,0,0,1,1.44,3.84c-.05.09-.09.19-.15.28-.83,1.52-2.83,2.27-4.45,2.51s-4.94-.65-5.8-.89l-.64,1.36c-1.11,2.21-2.23,4.42-3.26,6.61-.37.78-.7,1.55-1,2.33.31-.46.58-.84.62-.89,1.44-1.66,5.18-4,7.43-3.06A2.9,2.9,0,0,1,390,318.5l-.16.29c-.83,1.51-2.83,2.26-4.45,2.5s-4.61-.56-5.65-.85c-.31.81-.63,1.61-.9,2.4-.18.55-.38,1.06-.52,1.62s-.31,1.09-.46,1.63c-.25,1-.52,2.13-.74,3.16-.15.71-.29,1.4-.43,2.08.35-.77,1.07-2.27,1.15-2.39,1.16-1.86,4.51-4.75,6.88-4.15a2.91,2.91,0,0,1,2,3.6c0,.09-.06.18-.1.28-.6,1.63-2.46,2.67-4,3.15-1.72.53-5.53.05-6,0-.23,1.14-.44,2.25-.62,3.3-.41,2.32-.72,4.4-1,6.16h-1.6c.28-1.82.64-4,1.13-6.42.23-1.16.49-2.39.78-3.66a32,32,0,0,1-3.36-1.57,20.9,20.9,0,0,1-4.88,3.15c.43,1.08.87,2.12,1.3,3.1.89,2,1.73,3.86,2.48,5.4h-1.74c-.64-1.42-1.35-3-2.08-4.84-.45-1.09-.91-2.27-1.37-3.48-.46.1-4.23.87-6,.47-1.6-.36-3.53-1.26-4.25-2.84a2.91,2.91,0,0,1,1.35-3.89l.26-.11c2.32-.78,5.87,1.86,7.17,3.62.08.1.78,1.32,1.22,2.1-.19-.49-.37-1-.56-1.49-.37-1-.71-2-1.08-3.12-.16-.54-.32-1.08-.49-1.63s-.28-1.13-.43-1.69c-.32-1.33-.57-2.69-.8-4.07-.89.32-4.05,1.42-5.69,1.31s-3.68-.72-4.62-2.17a2.9,2.9,0,0,1,.72-4,2.61,2.61,0,0,1,.28-.17c2.18-1.13,6.09.94,7.64,2.49.1.1,1.09,1.33,1.62,2-.13-.83-.27-1.66-.37-2.5-.3-2.43-.53-4.9-.77-7.37l-.24-2.25c-.31.11-4,1.5-5.88,1.38-1.63-.12-3.68-.72-4.62-2.17a2.91,2.91,0,0,1,.72-4l.28-.17c2.18-1.12,6.09.95,7.64,2.5.12.11,1.54,1.89,1.88,2.36-.18-1.66-.37-3.31-.62-4.93a50.72,50.72,0,0,0-1.41-6.47c-.15.05-4,1.52-5.92,1.39-1.63-.12-3.68-.71-4.62-2.17a2.9,2.9,0,0,1,.72-4,2.61,2.61,0,0,1,.28-.17c2.18-1.13,6.09.95,7.64,2.49.12.12,1.65,2,1.9,2.4l-.09-.38a36.86,36.86,0,0,0-2.57-6.12c-.56-1.1-1.15-2.11-1.75-3.08-.7.35-3.9,1.9-5.6,2s-3.74-.31-4.84-1.64a2.92,2.92,0,0,1,.28-4.11,1.3,1.3,0,0,1,.23-.18c2-1.36,6.15.27,7.87,1.64.09.07.95.93,1.57,1.56-.27-.43-.55-.88-.83-1.29-1-1.55-2.06-2.9-3-4.09-.54-.67-1-1.27-1.5-1.82-.86,0-4.33-.12-5.85-.84s-3.17-2-3.53-3.68a2.93,2.93,0,0,1,2.13-3.53l.3-.05c2.44-.26,5.33,3.08,6.23,5.08.07.18,1,3,.92,3h-.05c.46.52.95,1.09,1.47,1.72,1,1.17,2,2.5,3.08,4a47.94,47.94,0,0,1,3.2,5.1,36.33,36.33,0,0,1,2.73,6.15v-2.81c.28-2.17,2.1-6.2,4.51-6.65a2.9,2.9,0,0,1,3.32,2.41,1.66,1.66,0,0,1,0,.32c.14,1.73-1.11,3.46-2.33,4.55-1.38,1.22-5.2,2.41-5.5,2.51a52.1,52.1,0,0,1,1.61,6.66c.24,1.31.43,2.64.61,4v-1.26c.28-2.17,2.1-6.2,4.51-6.65a2.9,2.9,0,0,1,3.32,2.41,1.66,1.66,0,0,1,0,.32c.14,1.73-1.11,3.45-2.33,4.54s-4.47,2.19-5.33,2.46c.06.52.13,1,.19,1.54.3,2.46.58,4.92.93,7.32.12.85.28,1.68.43,2.51v-1.09c.28-2.17,2.1-6.2,4.51-6.65a2.9,2.9,0,0,1,3.32,2.41,1.66,1.66,0,0,1,0,.32c.14,1.73-1.11,3.45-2.33,4.54s-4.16,2.08-5.18,2.41c.18.85.35,1.7.57,2.51.15.55.27,1.09.45,1.63s.35,1.08.52,1.61c.37,1,.75,2.06,1.13,3,.26.69.53,1.33.79,2-.14-.84-.36-2.49-.36-2.63a11.3,11.3,0,0,1,1.51-5.48,3.42,3.42,0,0,1,0-.64,2.91,2.91,0,0,1,3.25-2.53l.3.06c2.37.63,3.87,4.79,4,7,0,.13-.08,1.54-.14,2.43.12-.52.23-1,.35-1.55.25-1,.53-2.09.83-3.21.16-.53.32-1.07.49-1.62s.38-1.1.57-1.66c.47-1.28,1-2.55,1.58-3.83-.92-.22-4.17-1-5.47-2S371,314,371,312.28a2.9,2.9,0,0,1,2.79-3,1.9,1.9,0,0,1,.34,0c2.44.26,4.56,4.15,5,6.29,0,.14.17,1.71.23,2.58.35-.77.7-1.53,1.07-2.29,1.09-2.19,2.26-4.38,3.42-6.57.36-.67.71-1.34,1.05-2-.32-.08-4.2-1-5.66-2.1-1.3-1-2.68-2.62-2.66-4.35a2.9,2.9,0,0,1,2.77-3,2.17,2.17,0,0,1,.36,0c2.44.26,4.55,4.15,5,6.29,0,.16.23,2.43.26,3,.77-1.48,1.52-3,2.2-4.45a51.53,51.53,0,0,0,2.39-6.18c-.15,0-4.2-1-5.7-2.11-1.3-1-2.67-2.62-2.66-4.35a2.9,2.9,0,0,1,2.79-3,1.9,1.9,0,0,1,.34,0c2.44.26,4.56,4.15,5,6.29,0,.17.25,2.61.26,3.05a1.49,1.49,0,0,1,.13-.37,37.31,37.31,0,0,0,1.24-6.52c.14-1.22.2-2.39.23-3.54-.77-.09-4.29-.56-5.75-1.44s-3-2.32-3.13-4a2.92,2.92,0,0,1,2.5-3.28l.29,0c2.45,0,5,3.63,5.66,5.71,0,.11.28,1.31.45,2.18v-1.54c0-1.86-.12-3.56-.23-5.06-.08-.85-.16-1.63-.25-2.35-.71-.48-3.54-2.49-4.41-3.92s-1.55-3.41-.92-5a2.91,2.91,0,0,1,3.72-1.76,1.39,1.39,0,0,1,.28.12c2.18,1.13,2.75,5.51,2.39,7.67a30.55,30.55,0,0,1-.89,3h0c.09.69.19,1.43.27,2.24.15,1.51.31,3.21.35,5.07a50.09,50.09,0,0,1-.14,6,36.56,36.56,0,0,1-1.12,6.64.11.11,0,0,1,0,.08c.38-.61,1.52-2.27,1.62-2.39,1.43-1.65,5.18-4,7.43-3a2.9,2.9,0,0,1,1.44,3.84,1.91,1.91,0,0,1-.15.28C399.81,296.48,397.81,297.23,396.19,297.47Z"/><path class="cls-1" d="M354.14,285.94s-.79-2.86-.81-3c-.3-2.17.39-6.54,2.6-7.61a2.9,2.9,0,0,1,3.83,1.44,2.83,2.83,0,0,1,.11.31c.6,1.63-.15,3.62-1,5C357.78,283.65,354.14,285.94,354.14,285.94Z"/><path class="cls-1" d="M424.12,311.23a12.65,12.65,0,0,1-3.63.41s.55-1.69.6-1.79c.56-1.18,2.35-3.13,3.8-2.94a1.74,1.74,0,0,1,1.44,2,1,1,0,0,1,0,.17A3.7,3.7,0,0,1,424.12,311.23Z"/><path class="cls-1" d="M423.23,318.69a12.38,12.38,0,0,1-3.57-.56,31.07,31.07,0,0,1-1.4,3.85c-.31.73-.65,1.46-1,2.18.21-.3.39-.58.43-.61.85-1,3.09-2.4,4.44-1.83A1.73,1.73,0,0,1,423,324l-.09.17a3.66,3.66,0,0,1-2.66,1.49,11.68,11.68,0,0,1-3.47-.53c-.14.28-.27.56-.41.83-.67,1.33-1.34,2.64-1.95,4-.22.46-.42.92-.62,1.39.19-.28.35-.5.37-.54.86-1,3.1-2.39,4.45-1.82a1.72,1.72,0,0,1,.86,2.29,1.4,1.4,0,0,1-.09.17,3.65,3.65,0,0,1-2.66,1.5,11.45,11.45,0,0,1-3.38-.51c-.19.48-.38,1-.54,1.44a9,9,0,0,0-.31,1l-.28,1c-.15.63-.3,1.27-.44,1.89-.09.42-.17.83-.26,1.24.21-.46.65-1.36.69-1.43.7-1.11,2.7-2.84,4.12-2.48a1.73,1.73,0,0,1,1.19,2.15l-.06.17a3.64,3.64,0,0,1-2.4,1.89,12.7,12.7,0,0,1-3.59,0c-.14.68-.27,1.34-.38,2-.24,1.38-.43,2.63-.57,3.68h-1c.17-1.09.39-2.39.68-3.84.13-.69.29-1.43.46-2.19a19.13,19.13,0,0,1-2-.94,12.82,12.82,0,0,1-2.92,1.89c.26.64.52,1.26.78,1.85.53,1.22,1,2.31,1.48,3.23h-1c-.38-.85-.81-1.82-1.25-2.89-.26-.66-.54-1.36-.81-2.08a12.7,12.7,0,0,1-3.59.28,3.72,3.72,0,0,1-2.53-1.7,1.74,1.74,0,0,1,.8-2.32l.2-.08c1.39-.47,3.51,1.11,4.28,2.16.05.07.47.8.73,1.26-.11-.29-.22-.58-.33-.89-.22-.6-.43-1.21-.65-1.87-.09-.32-.19-.64-.29-1s-.17-.67-.26-1c-.19-.8-.34-1.61-.48-2.43a11.6,11.6,0,0,1-3.4.78,3.65,3.65,0,0,1-2.76-1.3,1.73,1.73,0,0,1,.42-2.41l.16-.1c1.31-.67,3.64.57,4.57,1.49.06.06.65.79,1,1.21-.08-.5-.16-1-.23-1.5-.18-1.45-.31-2.93-.46-4.4a12.36,12.36,0,0,0-.14-1.35,12.38,12.38,0,0,1-3.51.82,3.61,3.61,0,0,1-2.77-1.29,1.74,1.74,0,0,1,.43-2.41l.16-.1c1.3-.68,3.63.56,4.56,1.49.07.06.92,1.13,1.12,1.41-.1-1-.21-2-.36-3a30,30,0,0,0-.85-3.87,12.26,12.26,0,0,1-3.54.83,3.59,3.59,0,0,1-2.76-1.29,1.75,1.75,0,0,1,.43-2.43L395,315c1.31-.67,3.64.57,4.57,1.5.07.07,1,1.21,1.14,1.43l-.06-.23a21,21,0,0,0-1.54-3.66c-.33-.65-.68-1.26-1-1.84a11.73,11.73,0,0,1-3.35,1.18,3.64,3.64,0,0,1-2.89-1,1.75,1.75,0,0,1,.16-2.46l.14-.11c1.22-.81,3.68.17,4.71,1l.94.94c-.17-.26-.33-.53-.5-.78-.61-.92-1.23-1.73-1.78-2.44-.32-.4-.62-.76-.9-1.09a11.79,11.79,0,0,1-3.49-.5,3.66,3.66,0,0,1-2.12-2.2,1.76,1.76,0,0,1,1.3-2.11.45.45,0,0,1,.16,0c1.45-.15,3.19,1.84,3.72,3,0,.1.58,1.8.55,1.8h0l.88,1c.57.7,1.21,1.5,1.84,2.41a29,29,0,0,1,1.92,3.05,22.29,22.29,0,0,1,1.63,3.67h0V315.8c.16-1.3,1.25-3.71,2.69-4a1.73,1.73,0,0,1,2,1.45,1.23,1.23,0,0,1,0,.19,3.59,3.59,0,0,1-1.39,2.71,11.67,11.67,0,0,1-3.29,1.5,28.88,28.88,0,0,1,1,4q.21,1.17.36,2.37v-.75c.17-1.3,1.26-3.71,2.7-4a1.72,1.72,0,0,1,2,1.43,1.36,1.36,0,0,1,0,.2,3.59,3.59,0,0,1-1.39,2.71,11.59,11.59,0,0,1-3.19,1.48l.12.91c.17,1.48.34,2.94.55,4.38.07.51.17,1,.25,1.5v-.65c.17-1.3,1.26-3.71,2.7-4a1.73,1.73,0,0,1,2,1.45,1.23,1.23,0,0,1,0,.19,3.59,3.59,0,0,1-1.39,2.71,11.37,11.37,0,0,1-3.1,1.44c.11.51.22,1,.34,1.5.1.33.16.65.28,1s.2.64.31,1c.22.61.44,1.23.67,1.82.16.4.31.79.47,1.18-.08-.5-.21-1.49-.21-1.57a6.6,6.6,0,0,1,.9-3.28,2.41,2.41,0,0,1,0-.38,1.73,1.73,0,0,1,1.92-1.52l.2,0c1.42.38,2.32,2.87,2.39,4.17,0,.08-.05.92-.09,1.45.07-.3.14-.6.21-.92.15-.63.32-1.25.5-1.92.09-.32.19-.64.29-1s.23-.65.34-1c.28-.76.6-1.53.94-2.29a11.57,11.57,0,0,1-3.26-1.22,3.68,3.68,0,0,1-1.6-2.61,1.75,1.75,0,0,1,1.71-1.78h.17c1.46.16,2.72,2.48,3,3.76,0,.08.1,1,.14,1.54.2-.46.41-.91.64-1.37.65-1.31,1.35-2.62,2-3.92l.63-1.21a12.14,12.14,0,0,1-3.39-1.25,3.6,3.6,0,0,1-1.59-2.6,1.73,1.73,0,0,1,1.68-1.79h.19c1.46.16,2.72,2.48,3,3.76,0,.1.14,1.45.16,1.8.45-.88.9-1.77,1.31-2.66a29.14,29.14,0,0,0,1.43-3.7,12.59,12.59,0,0,1-3.41-1.25,3.7,3.7,0,0,1-1.59-2.61,1.75,1.75,0,0,1,1.71-1.78h.17c1.45.16,2.72,2.48,3,3.76,0,.1.16,1.56.16,1.82a.74.74,0,0,1,.08-.22,22.55,22.55,0,0,0,.74-3.9c.08-.73.12-1.43.14-2.11a12.41,12.41,0,0,1-3.44-.86,3.64,3.64,0,0,1-1.87-2.42,1.73,1.73,0,0,1,1.44-2l.22,0c1.47,0,3,2.17,3.39,3.41,0,.07.17.78.27,1.3v-.92c0-1.11-.07-2.12-.14-3a9.24,9.24,0,0,0-.15-1.4,12.06,12.06,0,0,1-2.64-2.35,3.63,3.63,0,0,1-.54-3,1.75,1.75,0,0,1,2.22-1.08l.17.08c1.3.67,1.64,3.3,1.43,4.59a18.84,18.84,0,0,1-.54,1.81h0c.05.41.11.85.16,1.34.09.9.18,1.92.21,3a30.78,30.78,0,0,1-.08,3.59,22.58,22.58,0,0,1-.67,4v.05c.24-.37.91-1.36,1-1.43.86-1,3.1-2.4,4.45-1.82a1.74,1.74,0,0,1,.85,2.31,1.09,1.09,0,0,1-.08.15A3.63,3.63,0,0,1,423.23,318.69Z"/><path class="cls-1" d="M398.09,311.8s-.47-1.71-.49-1.82c-.18-1.3.24-3.91,1.56-4.55a1.72,1.72,0,0,1,2.29.86,1.07,1.07,0,0,1,.07.19,3.58,3.58,0,0,1-.63,3A12,12,0,0,1,398.09,311.8Z"/><path class="cls-1" d="M452.88,364.82c-1.76.77-6.06.67-6.07.67s.93-2.82,1-3c.94-2,3.93-5.24,6.36-4.91a2.89,2.89,0,0,1,2.4,3.32c0,.11,0,.21-.07.32C456.11,362.91,454.38,364.16,452.88,364.82Z"/><path class="cls-1" d="M451.4,377.29c-1.83.26-5.67-.85-6-.94a49.65,49.65,0,0,1-2.33,6.45c-.53,1.22-1.1,2.44-1.68,3.65a7.08,7.08,0,0,1,.72-1c1.43-1.66,5.17-4,7.43-3.06a2.9,2.9,0,0,1,1.42,3.86c0,.09-.09.18-.14.27-.83,1.51-2.83,2.27-4.44,2.5s-4.94-.64-5.81-.89c-.23.46-.45.93-.69,1.39-1.11,2.21-2.23,4.42-3.26,6.62-.37.77-.7,1.55-1,2.32.31-.45.58-.84.63-.89,1.43-1.66,5.17-4,7.43-3.05a2.89,2.89,0,0,1,1.43,3.84,2.49,2.49,0,0,1-.15.28c-.83,1.52-2.83,2.27-4.44,2.5s-4.62-.56-5.65-.85c-.32.81-.64,1.61-.91,2.41-.17.54-.38,1.06-.52,1.61s-.31,1.1-.46,1.64c-.25,1-.51,2.12-.73,3.15-.16.72-.3,1.4-.44,2.09.35-.78,1.08-2.28,1.15-2.4,1.17-1.85,4.51-4.75,6.89-4.14a2.89,2.89,0,0,1,2,3.58,1.76,1.76,0,0,1-.1.3c-.59,1.62-2.45,2.67-4,3.14-1.72.53-5.53.05-6,0-.23,1.14-.44,2.25-.62,3.3-.41,2.32-.72,4.39-.95,6.15h-1.65c.28-1.82.65-4,1.13-6.42.23-1.16.5-2.39.78-3.65-1.14-.47-2.26-1-3.35-1.58a21,21,0,0,1-4.89,3.15c.44,1.08.87,2.12,1.3,3.1.89,2,1.73,3.86,2.48,5.4h-1.74c-.64-1.42-1.34-3-2.08-4.84-.45-1.09-.91-2.26-1.36-3.47-.47.09-4.24.86-6,.46-1.59-.36-3.53-1.26-4.24-2.84a2.92,2.92,0,0,1,1.33-3.89l.27-.11c2.32-.78,5.87,1.86,7.17,3.62.08.11.79,1.33,1.22,2.1-.19-.49-.37-1-.55-1.48-.38-1-.72-2-1.09-3.13l-.48-1.62c-.18-.54-.29-1.13-.44-1.7-.32-1.33-.57-2.69-.8-4.07-.88.33-4,1.43-5.69,1.31s-3.68-.71-4.62-2.16a2.91,2.91,0,0,1,.72-4l.28-.17c2.18-1.13,6.09,1,7.64,2.49.1.1,1.09,1.33,1.62,2-.13-.83-.26-1.65-.37-2.5-.3-2.43-.53-4.9-.77-7.36-.07-.76-.16-1.51-.23-2.26-.32.12-4.05,1.51-5.89,1.38-1.63-.12-3.68-.72-4.62-2.17a2.9,2.9,0,0,1,.7-4,2.38,2.38,0,0,1,.3-.18c2.17-1.13,6.08.94,7.63,2.49.12.11,1.54,1.89,1.88,2.36-.17-1.66-.36-3.3-.62-4.92a49.21,49.21,0,0,0-1.41-6.48c-.15.06-4,1.52-5.92,1.39-1.63-.11-3.67-.71-4.62-2.16a2.92,2.92,0,0,1,.74-4l.26-.16c2.18-1.12,6.08.95,7.64,2.49.12.12,1.64,2,1.9,2.4a1.27,1.27,0,0,0-.1-.37,35,35,0,0,0-2.57-6.13c-.55-1.09-1.15-2.11-1.75-3.08-.69.35-3.89,1.9-5.6,2s-3.73-.3-4.83-1.64a2.91,2.91,0,0,1,.25-4.1l.25-.19c2.05-1.36,6.16.27,7.87,1.64.09.07,1,.93,1.58,1.57-.28-.44-.56-.89-.83-1.3-1-1.55-2.06-2.9-3-4.09-.53-.67-1-1.27-1.49-1.82-.87,0-4.34-.12-5.85-.83s-3.18-2-3.53-3.69a2.92,2.92,0,0,1,2.12-3.52l.3,0c2.44-.27,5.34,3.08,6.23,5.08.08.17,1,3,.92,3h-.05c.46.52,1,1.09,1.47,1.72,1,1.17,2,2.51,3.09,4a48.83,48.83,0,0,1,3.2,5.09,38,38,0,0,1,2.73,6.15v-2.81c.28-2.17,2.1-6.2,4.51-6.64a2.9,2.9,0,0,1,3.32,2.41,1.66,1.66,0,0,1,0,.32c.14,1.72-1.11,3.45-2.33,4.54-1.38,1.23-5.19,2.42-5.5,2.51a49,49,0,0,1,1.61,6.66c.24,1.32.43,2.64.61,4V385c.29-2.17,2.11-6.2,4.52-6.64a2.9,2.9,0,0,1,3.32,2.41,1.55,1.55,0,0,1,0,.31c.14,1.73-1.11,3.46-2.33,4.55s-4.48,2.18-5.34,2.46c.07.51.13,1,.2,1.53.29,2.47.57,4.92.92,7.32.13.85.28,1.68.43,2.51v-1.09c.28-2.17,2.1-6.2,4.51-6.65a2.9,2.9,0,0,1,3.32,2.41,1.66,1.66,0,0,1,0,.32c.14,1.73-1.11,3.46-2.33,4.55s-4.16,2.07-5.18,2.41c.18.84.36,1.69.57,2.5.16.55.27,1.09.46,1.64s.35,1.08.52,1.61c.37,1,.74,2.06,1.12,3l.79,2c-.13-.85-.36-2.5-.36-2.64A11.3,11.3,0,0,1,423.1,404c0-.22,0-.43,0-.64a2.89,2.89,0,0,1,3.22-2.52,1.91,1.91,0,0,1,.33.06c2.37.63,3.87,4.79,4,7,0,.13-.08,1.54-.15,2.43l.36-1.55c.25-1,.53-2.08.82-3.2.16-.54.33-1.08.49-1.63s.38-1.1.58-1.65c.46-1.28,1-2.56,1.57-3.83-.92-.22-4.16-1-5.47-2s-2.67-2.63-2.66-4.36a2.91,2.91,0,0,1,2.81-3h.33c2.43.27,4.55,4.15,5,6.29,0,.14.18,1.71.24,2.58.35-.76.69-1.53,1.07-2.29,1.09-2.19,2.26-4.38,3.42-6.57l1.05-2c-.33-.07-4.21-1-5.67-2.09-1.3-1-2.67-2.63-2.66-4.36a2.9,2.9,0,0,1,2.79-3,1.9,1.9,0,0,1,.34,0c2.44.26,4.56,4.15,5,6.29,0,.16.24,2.43.26,3,.77-1.48,1.52-3,2.2-4.45a49.35,49.35,0,0,0,2.4-6.18c-.16,0-4.21-1-5.7-2.1-1.3-1-2.68-2.63-2.67-4.36a2.91,2.91,0,0,1,2.81-3h.33c2.44.26,4.55,4.15,5,6.29,0,.17.26,2.61.27,3.05a1.69,1.69,0,0,1,.12-.36,36.34,36.34,0,0,0,1.24-6.53c.14-1.22.2-2.39.24-3.53-.77-.1-4.3-.57-5.76-1.45s-2.95-2.32-3.12-4A2.9,2.9,0,0,1,440,357.1l.32,0c2.46,0,5,3.62,5.66,5.7,0,.12.29,1.31.45,2.18v-1.54c0-1.86-.12-3.55-.24-5.06-.07-.85-.16-1.62-.24-2.34-.71-.49-3.55-2.49-4.42-3.92s-1.55-3.42-.91-5a2.92,2.92,0,0,1,3.71-1.77l.29.13c2.18,1.13,2.75,5.51,2.39,7.67a30.55,30.55,0,0,1-.89,3h0c.1.69.19,1.43.28,2.25.15,1.5.3,3.2.34,5.06a50.09,50.09,0,0,1-.14,6,37.47,37.47,0,0,1-1.11,6.63v.08c.39-.61,1.52-2.27,1.63-2.38,1.43-1.66,5.17-4,7.43-3.06a2.89,2.89,0,0,1,1.43,3.84,2.49,2.49,0,0,1-.15.28C455,376.3,453,377.05,451.4,377.29Z"/><path class="cls-1" d="M409.34,365.77s-.78-2.86-.81-3c-.3-2.17.39-6.54,2.6-7.61a2.91,2.91,0,0,1,3.85,1.47,2.31,2.31,0,0,1,.1.28c.59,1.63-.16,3.63-1.05,5C413,363.47,409.34,365.76,409.34,365.77Z"/><path class="cls-1" d="M479.32,391.06a12.65,12.65,0,0,1-3.63.4s.56-1.69.6-1.79c.57-1.18,2.35-3.13,3.81-2.93a1.71,1.71,0,0,1,1.43,2,1.29,1.29,0,0,1,0,.19A3.63,3.63,0,0,1,479.32,391.06Z"/><path class="cls-1" d="M478.43,398.51a12.38,12.38,0,0,1-3.57-.56,29.48,29.48,0,0,1-1.39,3.85c-.32.74-.66,1.46-1,2.19l.43-.62c.86-1,3.09-2.4,4.44-1.83a1.73,1.73,0,0,1,.86,2.3l-.09.17a3.65,3.65,0,0,1-2.66,1.5A11.69,11.69,0,0,1,472,405c-.14.28-.27.56-.41.83-.66,1.33-1.33,2.65-1.95,4-.22.46-.42.93-.61,1.39.18-.27.34-.5.37-.53.86-1,3.09-2.4,4.44-1.83a1.73,1.73,0,0,1,.86,2.3l-.09.17a3.66,3.66,0,0,1-2.66,1.49,11.12,11.12,0,0,1-3.38-.5c-.19.48-.38,1-.54,1.43a7.43,7.43,0,0,0-.31,1l-.27,1c-.15.63-.31,1.28-.44,1.89-.1.43-.18.84-.26,1.25.21-.47.64-1.36.69-1.43.69-1.11,2.69-2.85,4.11-2.48a1.73,1.73,0,0,1,1.2,2.13,1.46,1.46,0,0,1-.07.19,3.62,3.62,0,0,1-2.4,1.88,12,12,0,0,1-3.59,0c-.14.68-.26,1.34-.37,2-.25,1.39-.43,2.63-.57,3.68h-1c.16-1.09.38-2.38.67-3.84.14-.69.3-1.43.47-2.18a21.49,21.49,0,0,1-2-.95,12.49,12.49,0,0,1-2.92,1.89c.26.64.52,1.27.78,1.85.53,1.22,1,2.31,1.48,3.23h-1c-.38-.85-.8-1.82-1.24-2.89-.27-.65-.54-1.36-.82-2.08a12,12,0,0,1-3.58.28,3.67,3.67,0,0,1-2.54-1.7,1.75,1.75,0,0,1,.82-2.33L455,416c1.39-.46,3.51,1.11,4.29,2.17,0,.06.47.79.72,1.25-.11-.29-.22-.58-.33-.89-.22-.6-.42-1.21-.64-1.86-.1-.32-.2-.65-.29-1s-.18-.67-.26-1c-.19-.79-.35-1.61-.48-2.43a11.6,11.6,0,0,1-3.4.78,3.7,3.7,0,0,1-2.77-1.29,1.75,1.75,0,0,1,.44-2.43l.15-.09c1.3-.67,3.64.57,4.56,1.49.06.06.65.8,1,1.21-.08-.5-.16-1-.22-1.49-.18-1.46-.32-2.93-.46-4.41,0-.45-.1-.9-.14-1.35a12.82,12.82,0,0,1-3.52.83,3.65,3.65,0,0,1-2.76-1.3,1.72,1.72,0,0,1,.4-2.4l.18-.11c1.3-.67,3.64.56,4.57,1.49.07.07.92,1.13,1.12,1.41-.11-1-.22-2-.37-2.94a28.42,28.42,0,0,0-.85-3.87,12.28,12.28,0,0,1-3.53.83,3.66,3.66,0,0,1-2.77-1.3,1.74,1.74,0,0,1,.43-2.41l.16-.1c1.3-.67,3.64.56,4.56,1.49.08.07,1,1.21,1.14,1.43l-.06-.22a21.86,21.86,0,0,0-1.53-3.67c-.33-.65-.69-1.25-1.05-1.83A12.35,12.35,0,0,1,450,393.2a3.67,3.67,0,0,1-2.89-1,1.73,1.73,0,0,1,.16-2.44l.15-.12c1.22-.81,3.68.16,4.7,1a11.92,11.92,0,0,1,.94.93c-.16-.26-.33-.53-.49-.77-.62-.93-1.24-1.73-1.79-2.45l-.89-1.09a11.89,11.89,0,0,1-3.5-.49,3.66,3.66,0,0,1-2.11-2.21,1.74,1.74,0,0,1,1.27-2.1l.18,0c1.46-.16,3.19,1.84,3.72,3,.05.11.58,1.81.56,1.81h0l.88,1c.57.71,1.21,1.5,1.85,2.42a29.27,29.27,0,0,1,1.91,3,22,22,0,0,1,1.63,3.68h0v-1.72c.17-1.3,1.26-3.71,2.7-4a1.72,1.72,0,0,1,2,1.43,1.36,1.36,0,0,1,0,.2,3.62,3.62,0,0,1-1.39,2.71,12.28,12.28,0,0,1-3.29,1.51,28.88,28.88,0,0,1,1,4c.14.78.26,1.58.37,2.38v-.75c.16-1.3,1.25-3.71,2.69-4a1.72,1.72,0,0,1,2,1.43,1.36,1.36,0,0,1,0,.2,3.61,3.61,0,0,1-1.39,2.72,11.7,11.7,0,0,1-3.19,1.47l.12.92c.18,1.47.34,2.94.55,4.37.08.51.17,1,.26,1.5v-.65c.16-1.3,1.25-3.71,2.69-4a1.74,1.74,0,0,1,2,1.45c0,.06,0,.12,0,.18a3.64,3.64,0,0,1-1.4,2.71,10.9,10.9,0,0,1-3.09,1.44c.1.51.21,1,.34,1.5s.16.65.27,1,.21.64.31,1c.22.61.45,1.23.67,1.82.16.41.32.79.48,1.18-.08-.5-.22-1.49-.22-1.57a6.84,6.84,0,0,1,.9-3.28,2.41,2.41,0,0,1,0-.38,1.73,1.73,0,0,1,1.93-1.51l.19,0c1.42.37,2.31,2.86,2.38,4.17,0,.07-.05.92-.09,1.45.07-.31.14-.61.22-.93.15-.62.31-1.25.49-1.91.1-.32.19-.65.29-1s.23-.66.35-1c.28-.76.6-1.52.94-2.28a12,12,0,0,1-3.27-1.23,3.6,3.6,0,0,1-1.59-2.6,1.73,1.73,0,0,1,1.68-1.79h.19c1.46.16,2.72,2.48,3,3.76,0,.08.1,1,.14,1.54.21-.45.41-.91.64-1.36.65-1.32,1.35-2.62,2-3.93.22-.4.42-.8.63-1.2a13,13,0,0,1-3.39-1.26,3.68,3.68,0,0,1-1.59-2.6,1.75,1.75,0,0,1,1.72-1.79h.16c1.45.16,2.72,2.48,3,3.76,0,.1.15,1.46.16,1.8.46-.88.91-1.77,1.32-2.66a33.08,33.08,0,0,0,1.43-3.69,12.29,12.29,0,0,1-3.41-1.26,3.63,3.63,0,0,1-1.59-2.6,1.73,1.73,0,0,1,1.68-1.79h.19c1.46.16,2.72,2.48,3,3.76,0,.1.15,1.56.15,1.83,0-.08.06-.15.08-.22a22.66,22.66,0,0,0,.74-3.91c.08-.72.12-1.42.14-2.11a11.74,11.74,0,0,1-3.44-.86,3.69,3.69,0,0,1-1.87-2.42,1.74,1.74,0,0,1,1.46-2,.75.75,0,0,1,.21,0c1.47,0,3,2.17,3.38,3.41,0,.07.17.79.27,1.31v-.92c0-1.11-.07-2.13-.14-3a10.85,10.85,0,0,0-.14-1.4,11.76,11.76,0,0,1-2.64-2.34,3.67,3.67,0,0,1-.55-3,1.75,1.75,0,0,1,2.22-1.08l.17.08c1.3.68,1.64,3.3,1.43,4.59,0,.11-.51,1.82-.53,1.81h0c.06.41.11.86.17,1.34.09.9.18,1.92.2,3a30.91,30.91,0,0,1-.08,3.6,21.7,21.7,0,0,1-.67,4v.05c.23-.36.91-1.35,1-1.42.86-1,3.09-2.4,4.44-1.83a1.72,1.72,0,0,1,.86,2.29,1.4,1.4,0,0,1-.09.17A3.63,3.63,0,0,1,478.43,398.51Z"/><path class="cls-1" d="M453.29,391.62s-.47-1.71-.48-1.82c-.18-1.3.23-3.91,1.55-4.55a1.74,1.74,0,0,1,2.3.88l.06.17a3.58,3.58,0,0,1-.63,3A12.28,12.28,0,0,1,453.29,391.62Z"/></g><g id="freepik--Clouds--inject-42"><path class="cls-2" d="M440.72,56.75c-1.48-7.46-9.15-10.32-14.84-12.82-7.13-3.12-11.13-5.94-14.78-11a68.49,68.49,0,0,1-5.22-8.81C400,12.66,389.94,4.25,378.8,1.41c-9-2.3-19.54-.43-25.36,8-4.87,7-7,18.59-14.63,19.82-3.69.6-7.22-1.73-10.46-3.9-4.58-3-9.35-6-14.55-7s-10.93-.08-14.91,4c-5.87,6-7.72,18-15.37,19.74-6.56,1.47-12.8-6.28-19.31-4.55-5.39,1.43-8,8.4-11.56,13.34a22.86,22.86,0,0,1-6.3,5.94Z"/><path class="cls-2" d="M434.22,90.08c-.58-3-3.61-4.08-5.86-5.07a12.73,12.73,0,0,1-5.85-4.33,29.74,29.74,0,0,1-2.06-3.48,17.2,17.2,0,0,0-10.7-9c-3.56-.91-7.73-.17-10,3.15-1.92,2.78-2.77,7.35-5.78,7.84-1.46.23-2.85-.69-4.14-1.55a16.88,16.88,0,0,0-5.75-2.79,6.35,6.35,0,0,0-5.89,1.58c-2.32,2.38-3.06,7.13-6.08,7.81-2.59.58-5.06-2.49-7.63-1.8-2.13.56-3.16,3.32-4.57,5.27a9,9,0,0,1-2.49,2.35Z"/><path class="cls-2" d="M174.49,85.25c-.58-3-3.62-4.07-5.87-5.06a12.75,12.75,0,0,1-5.84-4.34,27.68,27.68,0,0,1-2.06-3.48,17.22,17.22,0,0,0-10.71-9c-3.56-.91-7.72-.17-10,3.15-1.93,2.78-2.77,7.35-5.79,7.84-1.45.24-2.85-.69-4.13-1.54A16.7,16.7,0,0,0,124.34,70a6.3,6.3,0,0,0-5.89,1.58c-2.33,2.37-3.06,7.12-6.08,7.8-2.59.58-5.06-2.48-7.64-1.8-2.12.57-3.15,3.32-4.56,5.28a9.29,9.29,0,0,1-2.5,2.34Z"/><path class="cls-2" d="M153.28,223.51c-1-5-6.12-6.91-9.93-8.58-4.78-2.09-7.45-4-9.9-7.34a47.88,47.88,0,0,1-3.49-5.9c-4-7.67-10.67-13.3-18.12-15.2-6-1.54-13.08-.28-17,5.34-3.26,4.7-4.68,12.44-9.79,13.26-2.47.4-4.83-1.16-7-2.6-3.07-2.05-6.26-4-9.74-4.73a10.68,10.68,0,0,0-10,2.68c-3.93,4-5.17,12.06-10.28,13.21-4.39,1-8.58-4.21-12.93-3.05-3.61,1-5.34,5.63-7.74,8.93a15.28,15.28,0,0,1-4.21,4Z"/><path class="cls-2" d="M162.37,254.25c-.4-2-2.42-2.73-3.93-3.39a8.43,8.43,0,0,1-3.91-2.9,17.62,17.62,0,0,1-1.38-2.33,11.56,11.56,0,0,0-7.17-6,6.12,6.12,0,0,0-6.71,2.11c-1.29,1.86-1.85,4.92-3.87,5.25a4.2,4.2,0,0,1-2.77-1,11.22,11.22,0,0,0-3.84-1.86,4.22,4.22,0,0,0-3.95,1.05c-1.55,1.59-2,4.77-4.07,5.23-1.73.38-3.38-1.67-5.11-1.21-1.42.38-2.11,2.23-3,3.53A6,6,0,0,1,111,254.3Z"/></g><g id="freepik--Rocks--inject-42"><path class="cls-3" d="M349.26,309.28s-41.54-47.66-47-55.91-29.28,0-39.92.89-20.4,16-24.84,19.51-8,22.18-8,22.18-6.21,6.21-8.87,8-3.55,22.18-2.67,25.73,54.12,27.5,60.33,29.27,48.79-2.66,55.88-2.66,29.28-13.3,27.5-25.72S349.26,309.28,349.26,309.28Z"/><path class="cls-4" d="M360.06,338.23a124,124,0,0,0-1.23-16.56,42.34,42.34,0,0,0-9.57-12.39s-41.54-47.66-47-55.91c-1.17-1.78-3.2-2.78-5.76-3.26-2.18,1.41-4.51,3.35-4.55,5.24-.09,3.58-1.76,27.93-1.76,31.29s1.67,21,1.67,21,5,14.27,8.4,15.11,38.62,21.83,44.5,21.83c2.85,0,6.06,1.32,8.82,1.56A30,30,0,0,0,360.06,338.23Z"/><path class="cls-4" d="M484.55,455l-11.83-23.67-15-24-12-14s-28-16-32-16-35-8-35-8l-35,29-112.44-19.9s-25.56,9.9-28.56,11.9-47,14-52,15-70,49-70,49l54.13.67Z"/><polyline class="cls-4" points="430.59 410.32 424.62 418.69 406.61 422.01 423.2 435.28 431.72 440.02 412.72 438.37 376.76 410.64 402.35 405.9"/><path class="cls-3" d="M163.62,328.47S151.44,314.6,147,314.6s-17.75,3.55-21.29,5.32-12.42,23.95-15.08,25.73-26.62,23.06-31,27.5S62.72,384.68,62.72,390s8,10.65,8,10.65H155s25.73-24.84,27.5-33.71S163.62,328.47,163.62,328.47Z"/><path class="cls-3" d="M280,339.19s-62.84-22.44-68.18-24.82-41.72,6.47-41.72,6.47-30.16,14.19-34.6,20.4-3.54,10.65-.88,14.19,107.34,36.38,118,37.26,39-5.32,46.13-19.51S280,339.19,280,339.19Z"/><path class="cls-4" d="M224.31,357l-4.42,3.09s-19.42-7.94-18.09-4.41,29.57,26,30,30,.77,7.39,6.57,9.65,12.41,4.92,16.83,2.27,9.27-3.09,9.27-8.39-2.21-16.77-2.21-16.77S227.4,355.66,224.31,357Z"/><polygon class="cls-4" points="225.61 365.63 253.09 386 255.94 388.37 265.41 382.21 225.61 365.63"/><path class="cls-3" d="M372.33,363.37c-3,8.34-5.32,17.74-13.31,23.06s-30.16,16-37.26,16-57.66-14.19-63.87-18.63-27.5-12.42-33.71-19.51.89-23.07.89-23.07,20.4-15.08,26.51-14.88,52.44-4.64,59.54-2.86,59.43,22.18,59.43,22.18A21,21,0,0,1,372.33,363.37Z"/><path class="cls-3" d="M231.28,378.47s-23.06-22.18-28.39-26.61S171,349.19,165.64,351s-20.41,12.4-23.92,16.85-13.3,26.62-13.3,26.62l9.76,14.19s36.37,3.55,49.67,3.55,37.26-.89,37.26-.89,9.76-8,13.31-16S231.28,378.47,231.28,378.47Z"/><path class="cls-4" d="M202.65,370.57c9,12.57,18.07,16.5,15.71,20s-9.43,1.57-13.75,1.17-8.25,7.47-10.61,11a102.36,102.36,0,0,0-5.48,9.4c13.43,0,36.55-.89,36.55-.89s9.76-8,13.31-16-7.1-16.85-7.1-16.85-23.06-22.18-28.39-26.61C202.89,351.86,193.61,358,202.65,370.57Z"/><path class="cls-3" d="M115.72,400.37l22-19,18-3s37-4,41,1,15,20,15,20l-8,19s-1,11-8,15-39,16-39,16h-25s-17-11-17-17S115.72,400.37,115.72,400.37Z"/><path class="cls-4" d="M211.72,399.37s-11-15-15-20a3.64,3.64,0,0,0-1.47-1l-.1.57-.39,2s.79,18.41,2.35,22.33,5.09,10.18,2.35,12.92-8.22,8.62-12.14,12.14-14.1,6.66-18,7.05-7.44-2-14.49-2.35-9.4-.39-12.53.79a63.1,63.1,0,0,0-8.62,4.7s-5.48-3.14-6.66-7.45-4.31-8.22-5.48-8.22-2.35,9.79-2.74,14.49a9.51,9.51,0,0,1-.27,1.49c5,5.23,13.19,10.54,13.19,10.54h25s32-12,39-16,8-15,8-15Z"/><path class="cls-3" d="M120,454.53l.72-4.16v-11c0-3,8-23,8-29s-13-21-16-23-15-9-18-9-17,2-25,6-22,17-29,23S.39,455.7.39,455.7"/><path class="cls-3" d="M373.72,407.37c-2.09-2.09-6.47-5.77-10.84-9.33a96.51,96.51,0,0,0-8-6.39l-4.16-3.28h-.46c-2.2-1.51-4.13-2.8-5.43-3.67-5.32-3.55-23.95-16-31.05-15.08s-39.92,1.77-42.58,6.21-56.77,35.48-56.77,35.48h.76l-6.47,3.06-13,19s13,9,16,9S231.41,441,238.41,440c6.29-.9,49.11,8.62,57.72,10.55a21.26,21.26,0,0,0,3.07.46l53.43,4.11a21.26,21.26,0,0,0,12.33-2.8l13.76-8s7-4,11-7,4-10,4-13S378.72,412.37,373.72,407.37Z"/><path class="cls-4" d="M373.72,407.37c-.75-.75-1.81-1.72-3.05-2.8l-3.86,2.8s4.27,9,7.11,10.43,7.11,7.1,7.11,7.1,1.89,6.64-1.43,10.43-22.27,9.95-28.42,10.9a126.08,126.08,0,0,1-15.17.94s8.53-1.89,16.59-3.31,14.69-3.32,16.58-5.22,3.79-5.21,2.37-4.73a104.15,104.15,0,0,1-11.37,3.31c-6.16,1.42-14.69,2.85-20.38,2.85s-16.58.94-19.9.94-44.54-6.16-46.91-6.63a19.39,19.39,0,0,1-4.26-1.42s-2.84,2.84,4.26,4.26,6.64,3.32,21.33,5.22,29.37,4.73,27,5.21-9,.94-19-1-16.11-1.42-21.79-3.79a129.85,129.85,0,0,0-16.59-5.69c-8-2.37-11.84-3.31-20.85-3.79s-12.32-.47-16.11-.47-7.58,5.21-12.79,6.16c-2,.37-4.87.81-7.56,1.21,2.19,1.21,4.1,2.09,5,2.09,3,0,19.69-1.35,26.69-2.35,6.29-.9,49.11,8.62,57.72,10.55a21.26,21.26,0,0,0,3.07.46l53.43,4.11a21.26,21.26,0,0,0,12.33-2.8l13.85-8s7-4,11-7,4-10,4-13S378.72,412.37,373.72,407.37Z"/><path class="cls-3" d="M336.72,285.18s-10,9-10,13,6,21,6,24,15,43,18,53,7,20,9,23,7,11,7,11l8.55,6.24a38.7,38.7,0,0,0,20.56,7.37l13.48.78a24.05,24.05,0,0,0,21.51-10.81L438,401.88a23.8,23.8,0,0,0,4-14.13c-.22-4.57-1.8-8.07-8.26-16.57-4.23-5.58-56-59-62-65S342.72,281.18,336.72,285.18Z"/><path class="cls-5" d="M393.72,424.37c8,6,14,15,25,15,10,0,25,0,26.47,13.18"/><path class="cls-5" d="M357,428.54c-2.08.91-4,1.69-4.9,2-2.84.95-12.32,2.37-26.53,2.37H291"/><path class="cls-5" d="M366.34,424.37l-4.43,2"/><path class="cls-5" d="M343.72,422.2a117.47,117.47,0,0,0,12.19-5.83l-4.73-4.26"/><path class="cls-5" d="M258.77,426.37c3.91-.06,7.44-.1,9.49-.1,6.63,0,47.38,1.42,59.22.47a47.64,47.64,0,0,0,11-2.54"/><path class="cls-5" d="M239.35,426.75l8.53-.17"/><path class="cls-5" d="M374.2,400.43c-2.9-2.75-6.44-5.9-6.44-5.9"/><path class="cls-5" d="M421.54,369.56a103.39,103.39,0,0,0,5,9.33c2.4,3.79,4.63,13,2.43,17.52s-6.69,12.33-13.33,14.7S401,415.85,397.17,414s-18-8.06-19.43-9.95"/><path class="cls-4" d="M432.84,402.29c-2.54,3.14-2.83,5-5.76,7.14s-18.57,5.47-18.57,5.47l-14.22,2.85L381,411.59,364,402.11s9.47,9,12.32,11.37,8.53,5.21,10.42,6.16,11.37,2.84,14.22,2.84c2.54,0,10.36.38,15.38.46a24,24,0,0,0,14.52-10.18L438,401.88a23.8,23.8,0,0,0,4-14.13c-.22-4.57-1.8-8.07-8.26-16.57l.36,10.08S435.37,399.15,432.84,402.29Z"/><path class="cls-5" d="M230,356.24s-1.17,2.35,2.35,5.49,13.71,7.83,13.71,7.83"/><line class="cls-5" x1="249.6" y1="371.13" x2="256.26" y2="374.26"/><line class="cls-5" x1="236.28" y1="369.17" x2="258.61" y2="379.74"/><path class="cls-3" d="M416,389.69s-42.24,40-42.24,42,5,12.68,5,12.68,19.67,4.67,23,4.67,13.33-2,17.33-5.34,16-4,18-13.33,8-12.42,4.68-21.87S434.2,382.37,416,389.69Z"/><path class="cls-5" d="M435.72,405c-.48,6.3,2.1,13.64-.39,19.69-3,7.19-11.61,9.64-17.61,13.64"/><path class="cls-5" d="M430.13,421.08c-5,6.08-10.34,11.67-17.74,14.62"/><path class="cls-5" d="M381.72,442.37s12,2,16.67,2.67,15.33-2,15.33-2"/><path class="cls-4" d="M120,454.53l.72-4.16v-11c0-3,8-23,8-29,0-3.19-3.68-8.93-7.57-13.9.3,2.48,1.24,10.33,1.24,12.57,0,2.66-6.67,16-10.67,16.66s-20.67-2-20.67-2-18-1.33-22,5.34-11.33,18-11.33,18l-11,8Z"/><path class="cls-5" d="M143.24,425.37c-3.76,2.49-6.33,4.41-6.33,4.41"/><path class="cls-5" d="M190.32,414.37,174,422.32s-11.48.44-14.13.44c-1.92,0-6.16-.93-10.19-.26"/><path class="cls-5" d="M118.72,406.64a38.37,38.37,0,0,0,.55-4.64"/><path class="cls-5" d="M95.86,420.54s11,1.77,14.13,0,6.62-7.94,7.5-9.27a5.59,5.59,0,0,0,.57-1.52"/><path class="cls-5" d="M90.1,416.49c-2.21.05-4.38.08-6.16.08-6.62,0-12.36.44-14.56,3.53s-4.42,11-4.86,13.69a42.14,42.14,0,0,0-.44,5.73"/><path class="cls-5" d="M102.48,416.13l-5.76.24"/></g><g id="freepik--Character--inject-42"><path class="cls-1" d="M159.06,339.5s34.08,3.87,38.83,3.87,14.23.43,16.39-.43,9.06-6,9.06-6L235,335.21a36.46,36.46,0,0,1,5.61-2.58c1.72-.44,12.08.86,12.08.86l18.12,1.72s15.1-12.08,17.25-14.66-3-33.66-3-35.81,4.32-15.53,5.18-19,1.71-10.37,1.71-10.37l-38.4,4.75s-9.06,15.1-10.79,19a17.32,17.32,0,0,0-1.72,8.2,78.66,78.66,0,0,1-.86,9.06c-.43,3-4.75,6.47-6.47,7.33S223.34,308,223.34,308s-1.72,7.34-1.72,9.5a18.68,18.68,0,0,0,.86,4.74s-7.34,3.88-9.49,5.18-9.93,3.45-15.53,4.31-18.56,1.73-23.3,3S159.06,339.5,159.06,339.5Z"/><path class="cls-6" d="M204,94.37a26.34,26.34,0,0,0-5.92,10.32c-1.72,6.11,1.91,8.78,4.77,11.07s2.49,3.63,1,6.11a3.65,3.65,0,0,0,1.1,5,5.2,5.2,0,0,0,.62.32c1.52.57,3.82.38,3,3.44s-1.33,4.77.57,5.35,5.54,1.71,4.59,4-.38,5.34,1,5.53,3.06-1.33,3.06.77-2.68,3.82.19,5.54,4.58,1.33,4.39,2.29-1.34,2.1-.76,3.63,2.67,1.33,2.86,2.29-1,1.72-.57,3.63,1.14,2.1,3.05,2.48,1.91.38,1.91,1.91-.38,1.72,1.72,1.91,4.2-.38,6.88-2.48,5.54-12.42,6.49-16.62,2.87-10.12.19-17.57-14.89-31.13-18.71-35.52a19.65,19.65,0,0,0-13.75-6.3C207.85,91.49,204,94.37,204,94.37Z"/><path class="cls-7" d="M232.41,192.62s.32,1.29-2.09,2.74-3.22.64-3.38,2.73-.16,2.74-.48,3.22-4.35,2.58-6.12,3.22a11.35,11.35,0,0,0-3.22,1.93l-.32,6.44a31.94,31.94,0,0,0,7.73-1,46.25,46.25,0,0,1,6.76-1.45s1.6,1.13,3.37-6.27S234.83,190.85,232.41,192.62Z"/><path class="cls-8" d="M224.72,207.91c.2-2.85-.95-4-1.82-4.51-.82.42-1.67.79-2.53,1.13a11.35,11.35,0,0,0-3.22,1.93l-.32,6.44a35,35,0,0,0,7-.77A14.92,14.92,0,0,0,224.72,207.91Z"/><path class="cls-7" d="M230.57,184.49s2.1,11.65-1.14,17.19-1.53,12.41.19,14.7,3.82,1.91,5,.38,4-9.54,3.44-20.43S231.72,181.05,230.57,184.49Z"/><path class="cls-9" d="M238.59,144.2s-10.31,27.88-10.12,35.33,6.88,14.32,7.26,15.66-.38,11.26-1.53,14.51-3.44,9.36-3.44,9.36a33.48,33.48,0,0,0,15.85,5.31,48.7,48.7,0,0,0,16.05-2.1l3.81-2.48s-5.53-14.13-9-25.78-5-36.86-4.58-45.64.76-11.84-2.49-12S240.12,141.52,238.59,144.2Z"/><path class="cls-10" d="M233,219.88s-20.84.89-35.26,6.21-21.73,7.76-21.95,15.52,11.09,36.15,11.09,36.15,12,32.82,12.41,34.82a7.37,7.37,0,0,1-.22,4.66c-.44.66,1.56,5.54,6.21,5.54s8-3.55,8.65-8.43-2.44-8.87-4-16.85-4.44-25.95-4.44-32.38-2.21-14.64-2.21-14.64,17.07,5.77,26.39,8.65,36.81,2.22,41.91,1.33,4.66-7.54.23-17.3-18.41-16.41-23.29-18.62S233,219.88,233,219.88Z"/><path class="cls-6" d="M248.48,224.54c-4.88-2.22-15.53-4.66-15.53-4.66s-20.84.89-35.26,6.21-21.73,7.76-21.95,15.52,11.09,36.15,11.09,36.15,6.17,16.92,9.81,27.2a23.81,23.81,0,0,0,13.3-7.25,1.6,1.6,0,0,1-.05-.21c-1.53-7.85-4.44-25.95-4.44-32.38s-2.21-14.64-2.21-14.64,17.07,5.77,26.39,8.65,36.81,2.22,41.91,1.33,4.66-7.54.23-17.3S253.36,226.75,248.48,224.54Z"/><path class="cls-3" d="M199.72,317.57s-.6-2-1.61-.4-1,4.23-1.82,5-2.62,4.44-7.06,6.66-8.47,3.43-8.88,5,2.43,3,6.86,3.23,13.32.4,17.15-.6,6.06-3.43,10.29-4.85,7.06-1.61,7.87-3.43-2.82-11.29-4.44-13.11-2.42-4.44-4-4.44-2,2-2.22,3.63-.41,3.84-4.44,4.84S199.72,317.57,199.72,317.57Z"/><path class="cls-9" d="M199.48,334.92c-6.36,1.47-15.76-.36-19.12-1.11v.1c-.4,1.62,2.43,3,6.86,3.23s13.32.4,17.15-.6,6.06-3.43,10.29-4.85,7.06-1.61,7.87-3.43c.27-.6,0-2.05-.43-3.78-1.08.43-2.43,1-4,1.77C213.81,328.26,207.35,333.11,199.48,334.92Z"/><path class="cls-10" d="M239.39,220.1s-18.19,4.66-29.06,7.32-18.18,4.88-18.85,12.64-8.2,61.87-9.53,65.64-4,14.42-4,17.08a6.24,6.24,0,0,0,6,6.21c4.22.44,6.43-1.55,7.1-3.55s2.66-7.54,5.1-15.52,12-22,14.42-33.49A81.73,81.73,0,0,0,211.9,254a130.64,130.64,0,0,1,18,4.22c9.09,2.88,34.37,3.54,48.57,2.43s18.18-9.09,18.41-15.52-6.21-17.52-10-21.29-10.65-4.66-23.29-4.88A203.78,203.78,0,0,0,239.39,220.1Z"/><path class="cls-6" d="M296.83,245.16c.22-6.43-6.21-17.52-10-21.29s-10.65-4.66-23.29-4.88a205.41,205.41,0,0,0-24.17,1.11s-18.19,4.66-29.06,7.32-18.18,4.88-18.85,12.64-8.2,61.87-9.53,65.64c-.27.76-.59,1.79-.93,3a30.72,30.72,0,0,0,14.27,4c.27-.88.56-1.8.85-2.75,2.44-8,12-22,14.42-33.49a81.73,81.73,0,0,0,1.33-22.4,130.64,130.64,0,0,1,18,4.22c9.09,2.88,34.37,3.54,48.57,2.43S296.6,251.59,296.83,245.16Z"/><path class="cls-3" d="M177.72,318.79s-.47-.69-2.34,1.39a34.34,34.34,0,0,1-11.71,8.29c-5.63,2.3-11.72,3-13.36,4.83s-.46,4.38,0,5.07,16.4,2.3,24.36,2.3,17.57-.23,19.21-.92,1.87-5.07,1.64-7.83-1.4-4.38-1.4-5.76.7-3.68,0-4.6-3.75,1.84-5.39,3-7.5.92-8.67-.23S178.61,318.79,177.72,318.79Z"/><path class="cls-9" d="M176.26,337.68c-9.67,0-21.9-1.26-26.83-1.82a5.74,5.74,0,0,0,.83,2.51c.47.69,16.4,2.3,24.36,2.3s17.57-.23,19.21-.92c.89-.38,1.37-1.84,1.58-3.54A133.44,133.44,0,0,1,176.26,337.68Z"/><path class="cls-10" d="M210.33,100.27s-4,5.73-3.63,10.13,1.91,5.53,3.06,6.87a7.64,7.64,0,0,1,1.91,6.68c-.58,3.25-1.53,3.82-1,5.16s4.39,1.72,4.39,1.72c2.11,2.4,4.35,4.69,6.69,6.87,2.1,1.72,4,2.68,6.11,1.34a39.56,39.56,0,0,0,4.77-3.44c.58-.57,5,5.73,5.73,9.74s-2.29,8.41-.57,9,4.58-4.39,6.49-9.36,3.82-5.92,3.82-5.92-10.88-22.34-17.95-31.7S216,96.86,213.54,97.62A5.14,5.14,0,0,0,210.33,100.27Z"/><path class="cls-2" d="M220.45,130.45s3.63-1,4-3.82"/><path class="cls-2" d="M211.48,117.27s2.48,4,4.39,4.39,5.15-.76,5.73-3.43-1.15-5.54-1.15-5.54S214.72,113.83,211.48,117.27Z"/><path class="cls-2" d="M211.48,117.27l-3.06,2.29a4.48,4.48,0,0,0,2.87,2.68"/><line class="cls-2" x1="220.45" y1="112.69" x2="230.76" y2="108.68"/><path class="cls-1" d="M217.91,118.61c.49,1,.6,1.87.24,2.06s-1.05-.43-1.54-1.38-.61-1.88-.25-2.06S217.41,117.66,217.91,118.61Z"/><path class="cls-2" d="M211.86,114.6a4.46,4.46,0,0,1,4.39-2.49"/><path class="cls-6" d="M210.33,98.75a2.54,2.54,0,0,0,1.9,3h0c2.48.77,5.16-.19,4.77,2.68s-2.1,4.2,1.34,4.77,4.78,0,4.78,3.82-2.49,5.16,1.52,6.11,6.11.38,5.54,4.58-2.86,5.73.19,6.88,5.35-.57,5.35,2.67,0,5.16,1.91,5.54,3.44-2.1,3.82.57.57,4,2.1,4.2,1.91-1.52,4-1,10.31-3.44,12.79-6.11,6.69-2.1,9.93,2.29,9.93,18.71,10.32,21.58.95,3.44,3.24.19,4.2-6.49,2.29-9.74-3.24-2.67-1.91-6.3,4-5.16,1.34-8.4-3.44-2.49-2.86-6.88,1.52-5-1.34-6.68-3.82-1.91-3.82-4.78,1.34-4.77-1.34-6.3-3.43-1.14-3.43-3.63.57-3.43-1.34-4.77-3.63-2.29-3.63-4.77,0-2.68-1.72-4A7.38,7.38,0,0,1,263,89.6c-.19-1.72-1.15-3.44-2.49-3.82s-2.29.77-3.24-1.53-1.53-3.43-3.25-3.62A7.23,7.23,0,0,1,249.28,78c-1.15-1.53-1.91-2.29-3.44-1.72s-5.16.77-6.68-.57-4-2.1-5.92-.57a5.74,5.74,0,0,1-5.52,1.28c-1.72-.57-3.44-.57-4.58.58s-1,1.91-3.25,1.33-4.39-.57-5.54,1.15a8.57,8.57,0,0,1-3.63,3.06c-1.14.57-3.82,1.14-4.2,3.24s-.19,3.06-1.14,3.82-2.49,2.67-2.49,4,2.29,3.82,4.59,4.2"/><path class="cls-7" d="M246.42,144.37s-.95,26.16-1.72,39.34,3.25,17.95,5.73,21.19,25.78,34,27.12,37.24,2.67,9,3.25,9.55,6.3-.19,10.5-1.34S298,245,298,245s1.15-5.16-1.71-13.37-6.5-13.56-6.88-19.29-3.25-25.4-4.2-34.56a173,173,0,0,0-5.54-26.55c-1.72-5.92-3.44-10.12-6.3-12.79a28.3,28.3,0,0,0-6.49-4.39Z"/><path class="cls-11" d="M283.85,231.85l-3.05,19.86-5.54-11.46S282.13,232,283.85,231.85Z"/><path class="cls-7" d="M249.86,204.16s17.76,15.47,25.21,20.82,8.78,6.87,8.78,6.87-10.13,15.09-10.69,15.09-4-8.21-7.83-14.52S250.24,207.22,249.86,204.16Z"/><polygon class="cls-7" points="265.14 128.16 244.32 141.14 247 148.21 269.34 133.5 265.14 128.16"/><polygon class="cls-3" points="187.35 225.13 209.56 233.01 242.39 219.98 221.59 213.75 187.35 225.13"/><polygon class="cls-12" points="219.68 224.86 216.8 223.94 213.35 225.33 216.37 226.31 219.68 224.86"/><polygon class="cls-12" points="213.1 221.7 218.47 219.7 216.87 219.24 211.5 221.18 213.1 221.7"/><polygon class="cls-12" points="206.3 223.07 207.97 223.6 211.58 222.26 209.96 221.74 206.3 223.07"/><polygon class="cls-12" points="203.01 222.01 204.74 222.57 208.41 221.24 206.7 220.69 203.01 222.01"/><polygon class="cls-12" points="203.21 223.12 201.27 222.5 198.47 223.27 200.73 224.02 203.21 223.12"/><polygon class="cls-12" points="216.76 222.87 222.04 220.74 220.08 220.17 214.64 222.19 216.76 222.87"/><polygon class="cls-12" points="210.42 225.44 207.99 224.66 205.47 225.6 207.97 226.43 210.42 225.44"/><polygon class="cls-12" points="198.97 226.94 202.46 225.65 200.74 225.08 197.22 226.35 198.97 226.94"/><polygon class="cls-12" points="215.31 223.46 213.12 222.76 209.51 224.1 211.86 224.86 215.31 223.46"/><polygon class="cls-12" points="202.26 224.53 203.95 225.1 206.45 224.17 204.76 223.62 202.26 224.53"/><polygon class="cls-12" points="199.21 224.57 196.74 223.75 192.75 224.84 195.71 225.84 199.21 224.57"/><polygon class="cls-12" points="212.62 229.04 209.37 230.46 210.72 230.91 214.26 229.59 212.62 229.04"/><polygon class="cls-12" points="223.59 221.19 218.24 223.35 221.06 224.26 226.29 221.97 223.59 221.19"/><polygon class="cls-12" points="209.94 220.68 215.24 218.77 213.5 218.26 208.25 220.14 209.94 220.68"/><polygon class="cls-12" points="222.5 224.72 225.06 225.54 230.96 223.32 227.79 222.41 222.5 224.72"/><polygon class="cls-12" points="211.2 228.57 208 227.5 204.64 228.86 207.96 229.98 211.2 228.57"/><polygon class="cls-12" points="214.99 226.91 211.9 225.92 209.43 226.92 212.57 227.97 214.99 226.91"/><polygon class="cls-12" points="203.97 226.16 200.48 227.45 203.19 228.37 206.54 227.01 203.97 226.16"/><polygon class="cls-12" points="218.44 228.02 216.43 227.37 213.99 228.44 215.75 229.03 218.44 228.02"/><polygon class="cls-12" points="217.81 226.77 219.95 227.45 223.55 226.1 221.12 225.32 217.81 226.77"/><polygon class="cls-3" points="209.56 233.01 194.11 197.61 169.65 193.91 183.31 224.42 209.56 233.01"/><path class="cls-7" d="M254.83,156s-3.06,7.83-2.49,14.13,5.92,19.67,6.69,23.49a11.33,11.33,0,0,1-.19,6.11s-1-1.15-1.72.95-3.06,7.83-3.06,7.83l-1.91,1,7.83,14.7,2.48,4.2s5.73-2.86,7.83-4.77,7.64-3.44,9.93-6.3.77-2.87,2.49-7.07,2.67-13.75,1.52-16.61-2.29-3.63-2.29-6.5,2.68-7.82.58-15.46-3.63-19.67-7.07-22.92-6.3-2.67-8.21-2.67"/><path class="cls-13" d="M270.84,210.68a13.55,13.55,0,0,0,2.51,1.5"/><path class="cls-13" d="M260.55,202.82s4.48,3.61,8.19,6.35"/><path class="cls-13" d="M265,203s11.65,3.44,11.07,4.59-5.53-1.15-6.49-1.53"/><path class="cls-14" d="M245.47,216s-17.95,10.31-19.29,10.31-5.54-3.05-6.87-2.67a51.58,51.58,0,0,0-5.16,2.29c-1.72.76-5-.19-5.16,1.15s1.34,2.29,1.34,2.29-3.82.76-4.58.76-1.72,1.53,0,2.87,4.77,1.52,5.34,1.72,3.82,1.91,6.5,1.91,8.21-2.87,11.84-3.82,22.34-6.12,22.34-6.12S248.33,216,245.47,216Z"/><path class="cls-15" d="M210.33,229.37a16.29,16.29,0,0,0,6.88-.19"/><path class="cls-7" d="M254.44,207.37s5.92,9.16,9.36,15.27,2.29,6.5,1.34,7.45-8,2.1-10.31,2.48a3.76,3.76,0,0,1-4.5-2.83,4.14,4.14,0,0,1-.09-.6c0-2.29-2.86-8.21-4-10.31s-2.86-1.72-2.86-3.44,3.82-4,5.54-5.54S253.11,207.22,254.44,207.37Z"/><path class="cls-8" d="M211,201s5.31,2.41,7.08,3.54,4.51,2.25,4.34,3.54-3.54,5.31-5,5.63-4.51-1.93-6.44-1.93-3.7-5.15-3.06-6.92S209.72,201.15,211,201Z"/><path class="cls-8" d="M204.09,207.91s-1.61,1.45-1.61,2.73.81,5.15,1.77,6,1.45-.32,1.45-1.29-1.45-1.77-.81-3.06,1.45-3.38,1.45-3.38S205.38,207.27,204.09,207.91Z"/><path class="cls-8" d="M207.31,205.82a3.5,3.5,0,0,0-3.22,1.28c-1.13,1.61-.16,3.38.8,5.15a5,5,0,0,0,3.87,2.58c1.28.16,1.93-.32.8-1.77a17,17,0,0,1-2.09-4.51A19.23,19.23,0,0,1,207.31,205.82Z"/><path class="cls-8" d="M209.56,201.79s-3.06,1.77-3.06,3.22a21.4,21.4,0,0,0,1.45,6.6c.81,1.77,3.22,4,3.54,3.22s-.32-2.9-.64-4.51-.81-7.56-.81-7.56a.61.61,0,0,0-.1-.85A.58.58,0,0,0,209.56,201.79Z"/><path class="cls-8" d="M213.1,203.24s-1.45-2.73-3.22-2.73-.64,1.93-.48,5.63,1,7.4,2.09,8.69,1.77.32,1.45-1.93-.48-5.63-.48-6.12v-1.12"/><path class="cls-8" d="M217.61,207.91a7.73,7.73,0,0,1-1.29,3.22c-1,1.12-2.09,3.05-1.29,3.54s1.61,0,2.42-1,2.89-2.73,3.86-4.5a2.71,2.71,0,0,0-1-3.68,2.35,2.35,0,0,0-.43-.19,13.83,13.83,0,0,0-1.93-.16"/><path class="cls-4" d="M255.35,333.87s10.48,13.24,20.55,13.24,19.31-1.68,26-1.68,23.51-2.52,28.55-5,2.52-5-1.68-7.55-25.19-12.6-25.19-12.6Z"/><path class="cls-14" d="M249.14,276.43a256.1,256.1,0,0,1-14.63,21.07c-8,10.2-12.2,12.2-14,16.85s-.89,9.1.66,10.21,17.3,4.21,21.29,4.43a43.2,43.2,0,0,0,8.65-.66l.44-2s-7.09.22-8.87,0-8.87-5.32-11.31-6.88-3.55-2.21-3.55-2.21a203,203,0,0,1,13.53-15.75,106.09,106.09,0,0,0,12.42-16S252.47,274.21,249.14,276.43Z"/><path class="cls-3" d="M227.85,317.24s-2.88,4-2.88,5.54"/><path class="cls-14" d="M284.63,254s-20.18,4-24.84,4.88-6.65,2.22-9.09,7.76-3.77,7.76-2.66,13.09,1.55,24.39,1.55,32.6-1.78,13.75-.45,16.41,5.1,4.21,6.21,5.1,10,4,12.64,4.66,6.44,3.55,9.76,3.55,10.87-2.67,16-4.88,12.64-1.78,16.41-3.55,5.55-3.11,4.66-7.76-4.44-7.77-5.1-13.09-.22-13.3-1.33-17.3S304.62,286.85,304,280s.45-16-2-19.3-1.56-2.66-5.77-4.21S288.4,252,284.63,254Z"/><path class="cls-15" d="M279.53,264c10-2.22,12.42-3.1,16-4.88s5.11.22,5.11.22l.25-.15c-1.21-1.67-1.26-1.47-4.69-2.73-4.21-1.55-7.76-4.43-11.53-2.44,0,0-20.18,4-24.84,4.88s-6.65,2.22-9.09,7.76-3.77,7.76-2.66,13.09,1.55,24.39,1.55,32.6-1.78,13.75-.45,16.41,5.1,4.21,6.21,5.1a31.43,31.43,0,0,0,5,2.13.5.5,0,0,0-.09-.58c-1.55-1.77.67-8.87,2-18.4s.89-25.07-.44-29.5-4-9.54-2.22-14.42S269.55,266.23,279.53,264Z"/><path class="cls-15" d="M268.88,299.5s-.89,25.5-1.55,31-1.55,6.43-.89,7.54,7.54,3.77,10,3.77,3.33.23,3.55-2.66-2-23.51-1.77-28.38,1.55-9.76-1.11-11.31S271.54,294.17,268.88,299.5Z"/><path class="cls-3" d="M301.43,285.52s-13.08,4.44-21.29,7.1-11.09,2.44-11.53,5.1,0,2.66,1.11,3.11a9.09,9.09,0,0,1,4.43,5.54c1.11,3.33,2.22,6,3.77,6s24.4-3.55,28.17-5.1,5.32-2,4.88-4.44-.67-6.65-1.56-11.75S305,284.19,301.43,285.52Z"/><polygon class="cls-4" points="283.08 306.59 285.07 323.23 288.4 322.12 285.97 305.73 283.08 306.59"/><polygon class="cls-4" points="303.32 302.76 306.36 318.35 309.24 317.46 306.36 301.71 303.32 302.76"/><path class="cls-3" d="M266.89,275.54s7.31-1.55,16.19-3.77,17.07-4.88,17.07-4.88v2.48s-10,3.11-15.3,4.22-10.42,1.77-11.31,2-3.55.89-4.88,1.33l-1.33.45Z"/></g></g></g></svg>